M48
;Layer_Color=9474304
;FILE_FORMAT=4:4
METRIC,LZ
;TYPE=PLATED
T1F00S00C0.3000
T2F00S00C1.0200
T3F00S00C1.2000
T4F00S00C1.8000
T5F00S00C3.2000
%
T01
X00194Y00096
X00208
X00215Y0011
X00201
X00208Y00124
X00215Y00138
X00201
X0026Y000975
X0027
X0028
X0029
X00285Y0009
X00275
X00265
X0027Y000825
X0028
X0029
X0026
X00376Y00096
X0039
X00383Y0011
X00369
X00376Y00124
X00383Y00138
X00369
X00362Y00152
X00376
X0039
X00411Y00166
X00425
X00418Y00208
X00425Y00222
X00411
X00418Y00236
X00425Y0025
X00411
X00418Y00292
X00425Y00306
X00418Y0032
X00425Y00334
X00418Y00348
X00404
X00411Y00362
X00425
X00397
X0039Y00376
X00376
X00383Y0039
X00369
X00355
X00341
X00327
X00313
X00299
X00285
X00271
X00257
X00243
X00229
X00215
X00201
X00194Y00376
X00208
X00222
X00236
X0025
X00264
Y00404
X00278
X00292
X00306
X0032
X00362
X00376
X0039
X0025
X00222
X00208
X00215Y00362
X00229
X00243
X00201
X00187
X00173
X00159
X00152Y00348
X00166
X00159Y00334
X00152Y0032
X0016975Y0031575
X00152Y00292
Y00264
Y00236
X001625Y0022475
X00152Y00208
X00159Y00194
X0018Y0018
X00187Y00166
X00194Y00152
X00166
X00152
X002135Y0017475
X002275Y00175
X002375
X002425Y001675
X002325
X002375Y0016
X002425Y001525
X002325Y001825
X002275Y0019
X002375
X002325Y001975
X002275Y00205
X002375
X002475
X002575
X00276Y0019425
X002905Y0019975
X0031325Y00242
X00334Y00264
X00348
X00355Y00278
X00341
X00348Y00152
T02
X002024Y002986
Y00324
X002278
Y002986
X002532
Y00324
X002786
Y002986
X00304
Y00324
X003294
Y002986
X003548
Y00324
X003802
Y002986
T03
X0023677Y00403038
X00346498Y0040253
T04
X0026725Y00353
X0031625
T05
X00176Y00125
X0041Y00127
X00418Y00397
X00168Y00396
M30
