M48
;Layer_Color=9474304
;FILE_FORMAT=4:4
METRIC,LZ
;TYPE=PLATED
T1F00S00C0.3000
T2F00S00C1.0200
T3F00S00C3.2000
%
T01
X00194Y00082
X00208
X00222
X00215Y00096
X00201
X00187
X00208Y0011
X00215Y00124
X00208Y00138
X00259Y00103
X0027125Y0010325
X00285Y00096
X00299
X0030875Y0010225
X00306Y00082
X0032
X00327Y00096
X00334Y0011
X00376
X00383Y00096
X00397
X0039Y00082
X00376
X00362
X00369Y00096
Y00124
X00362Y00138
X00376
X00348
X0029575Y00129
X00292Y00082
X00278
X00264
X0028125Y001435
X0031125Y0016425
X00348Y00166
X00341Y00152
X00397
X00404Y00166
X00418
X00432
X00425Y0018
X00411
X00432Y00194
X00425Y00152
X00414Y002285
X00399
Y002435
X00384
Y002285
X00414Y002435
X00432Y00334
X00425Y00348
X00418Y00362
X00432
X00404
X0039
X00376
X00362
X00348
X00334
X0032
X00306
X00292
X00278
X00264
X0025
X00236
X00222
X00208
X00194
X0018
X00166
X00152
X00159Y00348
X00152Y00334
X00159Y003085
X00187Y0032
Y00292
Y00264
Y00236
X0018Y00166
X00166
X00152
X00159Y0018
X00152Y00194
X00159Y00152
X00187
X0022725Y0019675
X00229Y00376
X00243
X00257
X00271
X00285
X00299
X00313
X00327
X00341
X00355
X00369
X00383
X00397
X0039Y0039
X00376
X00362
X00348
X00334
X0032
X00306
X00292
X00278
X00264
X0025
X00236
X00222
X00208
X00215Y00404
X00229
X00243
X00257
X00271
X00285
X00299
X00313
X00327
X00341
X00355
X00369
X00383
X00201
Y00376
X00215
X00187
T02
X002024Y002986
X002278
X002532
X002786
X00304
X003294
X003548
X003802
Y00324
X003548
X003294
X00304
X002786
X002532
X002278
X002024
T03
X00176Y00125
X0041Y00127
X00418Y00397
X00168Y00396
M30
