M48
;Layer_Color=9474304
;FILE_FORMAT=4:4
METRIC,LZ
;TYPE=PLATED
T1F00S00C0.3000
T2F00S00C0.4000
T4F00S00C1.0200
T5F00S00C1.2000
T6F00S00C1.8000
T7F00S00C3.2000
;TYPE=NON_PLATED
T8F00S00C0.8500
%
T01
X00136Y-00054
Y-00014
Y00026
Y00066
X001395Y00077
X00136Y00106
X0014625Y0009025
X001725Y0008525
X00156Y00066
X00166Y00046
X0016875Y0003175
X00176Y00026
X00196
X00186Y00006
X00166
X00146
X00156Y00026
X00146Y00046
X0018775Y0006325
X00216384Y00039634
X0022775Y0004395
X0021625Y00014
X0024675Y000215
X00254561Y0002845
X00276Y00026
X00296
X00316
X00326Y00006
X00306
X00286
X00266
X00276Y-00014
X00296
X00316
X00336
X00356
X00376
X00396
X00416
X00436
X00456
X00466Y00006
X00446
X00426
X00406
X00416Y00026
X00436
X00456
X00466Y00046
X00446
X00426
X00406
X00416Y00066
X00436
X00456
X00466Y00086
X00446
X00426
X00406
X00416Y00106
X00436
X00456
X00466Y00126
X00446
X00426
X00406
X0037425Y0011075
X003713Y0008245
X00358Y0008075
X00346Y00046
X0033325Y00058
X0032075Y000575
X00296Y00066
X00286Y00046
X00356Y00026
X00376
X00366Y00006
Y-00034
X00386
X00406
X00426
X00446
X00466
X00456Y-00054
X00436
X00416
X00396
X00376
X00356
X00336
X00316
X00296
X00276
X00256
X00236
X00216
X00196
X00176
X00156
X00166Y-00034
X00186
X00206
Y-00074
X00226
X00246
X00256Y-00094
X00276
X00296
X00286Y-00074
X00326
X00346
X00366
X00386
X00406
X00426
X00396Y-00094
X00376
X00356
X00336
X00346Y-00034
X00326
X00306
X00236Y-00094
X00216
X00196
X00176
X00186Y-00074
X00166
X00146Y-00034
X00156Y-00014
X0016825Y0012475
X00185Y0013225
X0018325Y00115
X0022096Y000875
X0033375Y0011275
X00336Y00146
X0036375Y001475
X00371944Y00147509
X00379444Y00148009
X00396Y00146
X00416
X00436
X00456
X00466Y00166
X00446
X00426
X00406
X00416Y00186
X00396
X00406Y00206
X00416Y00226
X00396
X00406Y00246
X00426
X00416Y00266
X00396
X00376
X00386Y00286
X00406
X00416Y00306
X00406Y00326
X00446
X00466
X00456Y00346
X00436
X00466Y00366
X00446Y00406
X00426
X00406
X00386
X00366
X00346
X00326
X00306
X00286
X00266
X00246
X00226
X00206
X00186
X00166
X00146
X00196Y00386
X00216
X00236
X00256
X00276
X00296
X00316
X00336
X00356
X00376
X00396
X00416
X00406Y00366
X00386
X00366
X00346
X00326
X00306
X00286
X00266
X00246
X00226
X00206
X00186
X00196Y00346
X00216
X00236
X00256
Y00266
X00276
X00266Y00246
X00246
X00256Y00226
X00236
X00246Y00206
X00256Y00186
X00246Y00166
X00206
X00186
X0016155
X00196Y00186
X00206Y00206
X00186
X001775Y00215
X00186Y00246
X00196Y00266
X00145Y0024125
X0014775Y0022675
X00156Y00306
X00166Y00326
X00146
X00156Y00346
X00176
X00316Y00306
X00326Y00286
X00346
X00366
X00386Y00246
X00341Y002391
Y002241
Y002091
X00326
Y002241
Y002391
X00326Y00166
X00346
X00306
X00296Y00186
X00196Y00146
X0043475Y0018775
X00456Y00186
X00466Y00206
X00456Y00226
X00466Y00246
X00456Y00266
X00466Y00286
X00446
X00456Y00306
X00136
Y00346
Y00386
X00137Y0020125
X00136Y00186
Y00146
T02
X0019475Y-00018
X0020275
X0021075
X0021475Y-00011
X0022275
X0023075
X0023475Y-00018
X0022675
X0024275
X0024675Y-00011
X0020675
X0019075
T04
X002024Y002985
Y003239
X002278
Y002985
X002532
Y003239
X002786
Y002985
X00304
Y003239
X003294
Y002985
X003548
Y003239
X003802
Y002985
T05
X00309758Y-00085572
X0041974Y-0008608
T06
X00341Y0001425
X0039
T07
X00158Y0038075
X00438Y0038125
T08
X0018275Y-000045
X0025475
M30
