M48
;Layer_Color=9474304
;FILE_FORMAT=4:4
METRIC,LZ
;TYPE=PLATED
T1F00S00C0.3000
T2F00S00C1.0200
T3F00S00C3.2000
%
T01
X00181Y00096
X00206
X00231
X00256
X00281
X00306
X00331
X00356
X00381
X00406
X004185Y00121
X003935
X003685
X003435
X003185
X002935
X002685
X002435
X002185
X001935
X00206Y00146
X00231
Y00196
X0024575Y0018325
X001935Y00171
X00192Y00202
X00191Y002145
X00206167Y0024106
X00218Y0023675
X001935Y00271
X00181Y00296
X001935Y00321
X00206Y00346
X00231
X00256
X00281
X00306
X00331
X00356
X00381
X00406
X00431
X004185Y00371
X003935
X003685
X003435
X003185
X002935
X002685
X002435
X002185
X001935
X00206Y00396
X00231
X00256
X00281
X00306
X00331
X00356
X00381
X00406
X00431
X004185Y00321
X00431Y00296
X00406
X00381
X003555Y002785
X003655Y00251
X0034875Y0022925
X003435Y00221
X0034875Y0021425
X0033375
Y0022925
X0031875
X003185Y00221
X0031875Y0021425
X00327Y0019625
X003435Y00171
X003685
X003935
X004185
X00431Y00196
X004185Y00221
X00394Y0022825
X00431Y00246
X004185Y00271
X0029725Y0027375
X00331Y00146
X00356
X00381
X00406
X00431
X00181
Y00346
Y00396
T02
X002024Y002985
Y003239
X002278
Y002985
X002532
Y003239
X002786
Y002985
X00304
Y003239
X003294
Y002985
X003548
Y003239
X003802
Y002985
T03
X00176Y00125
X0041Y00127
X00418Y00397
X00168Y00396
M30
