G04*
G04 #@! TF.GenerationSoftware,Altium Limited,Altium Designer,21.6.1 (37)*
G04*
G04 Layer_Physical_Order=1*
G04 Layer_Color=255*
%FSLAX44Y44*%
%MOMM*%
G71*
G04*
G04 #@! TF.SameCoordinates,5872C4F4-FB42-489D-B6BF-DE351544A3BA*
G04*
G04*
G04 #@! TF.FilePolarity,Positive*
G04*
G01*
G75*
%ADD10C,0.2000*%
%ADD16R,0.9300X0.8900*%
%ADD17R,0.6000X0.5600*%
%ADD18R,0.5400X0.6000*%
%ADD19R,0.7000X0.9000*%
%ADD20R,1.1500X1.8200*%
%ADD21R,1.9700X0.6000*%
%ADD22R,2.1300X3.0000*%
%ADD23R,2.3000X2.2000*%
%ADD24R,1.3800X1.8200*%
%ADD25R,1.9050X2.7940*%
%ADD26R,1.8200X1.3800*%
%ADD27R,2.3300X1.5600*%
G04:AMPARAMS|DCode=28|XSize=1.01mm|YSize=0.27mm|CornerRadius=0.0675mm|HoleSize=0mm|Usage=FLASHONLY|Rotation=90.000|XOffset=0mm|YOffset=0mm|HoleType=Round|Shape=RoundedRectangle|*
%AMROUNDEDRECTD28*
21,1,1.0100,0.1350,0,0,90.0*
21,1,0.8750,0.2700,0,0,90.0*
1,1,0.1350,0.0675,0.4375*
1,1,0.1350,0.0675,-0.4375*
1,1,0.1350,-0.0675,-0.4375*
1,1,0.1350,-0.0675,0.4375*
%
%ADD28ROUNDEDRECTD28*%
G04:AMPARAMS|DCode=29|XSize=1.01mm|YSize=0.27mm|CornerRadius=0.0675mm|HoleSize=0mm|Usage=FLASHONLY|Rotation=180.000|XOffset=0mm|YOffset=0mm|HoleType=Round|Shape=RoundedRectangle|*
%AMROUNDEDRECTD29*
21,1,1.0100,0.1350,0,0,180.0*
21,1,0.8750,0.2700,0,0,180.0*
1,1,0.1350,-0.4375,0.0675*
1,1,0.1350,0.4375,0.0675*
1,1,0.1350,0.4375,-0.0675*
1,1,0.1350,-0.4375,-0.0675*
%
%ADD29ROUNDEDRECTD29*%
%ADD30R,0.5600X0.6000*%
%ADD31R,0.6000X0.5400*%
%ADD32R,0.4000X2.0000*%
%ADD33R,0.3200X0.7000*%
G04:AMPARAMS|DCode=34|XSize=1.31mm|YSize=0.62mm|CornerRadius=0.0775mm|HoleSize=0mm|Usage=FLASHONLY|Rotation=90.000|XOffset=0mm|YOffset=0mm|HoleType=Round|Shape=RoundedRectangle|*
%AMROUNDEDRECTD34*
21,1,1.3100,0.4650,0,0,90.0*
21,1,1.1550,0.6200,0,0,90.0*
1,1,0.1550,0.2325,0.5775*
1,1,0.1550,0.2325,-0.5775*
1,1,0.1550,-0.2325,-0.5775*
1,1,0.1550,-0.2325,0.5775*
%
%ADD34ROUNDEDRECTD34*%
%ADD35R,2.7000X1.0000*%
%ADD36R,1.7000X0.6000*%
%ADD37R,1.7000X0.6000*%
%ADD38R,2.7000X1.0000*%
%ADD64C,0.6000*%
%ADD74R,3.2500X3.2500*%
%ADD75C,0.3000*%
%ADD76C,0.6000*%
%ADD77C,1.0000*%
%ADD78C,0.5000*%
%ADD79C,0.4000*%
%ADD80C,2.0000*%
%ADD81C,7.0000*%
%ADD82C,0.4000*%
G04:AMPARAMS|DCode=83|XSize=2.4mm|YSize=2.4mm|CornerRadius=0.6mm|HoleSize=0mm|Usage=FLASHONLY|Rotation=90.000|XOffset=0mm|YOffset=0mm|HoleType=Round|Shape=RoundedRectangle|*
%AMROUNDEDRECTD83*
21,1,2.4000,1.2000,0,0,90.0*
21,1,1.2000,2.4000,0,0,90.0*
1,1,1.2000,0.6000,0.6000*
1,1,1.2000,0.6000,-0.6000*
1,1,1.2000,-0.6000,-0.6000*
1,1,1.2000,-0.6000,0.6000*
%
%ADD83ROUNDEDRECTD83*%
%ADD84C,2.4000*%
%ADD85C,1.6000*%
%ADD86O,0.9000X1.8000*%
%ADD87O,1.5000X0.9000*%
%ADD88C,0.8500*%
%ADD89C,1.3700*%
%ADD90R,1.3700X1.3700*%
%ADD91C,0.7000*%
G36*
X445194Y420451D02*
X475701Y389944D01*
X475701Y-45944D01*
X423694Y-97951D01*
X170805Y-97951D01*
X119798Y-46944D01*
X119799Y395944D01*
X144306Y420451D01*
X445194Y420451D01*
D02*
G37*
%LPC*%
G36*
X355926Y332450D02*
X353674D01*
X351500Y331867D01*
X349550Y330742D01*
X347958Y329150D01*
X346833Y327200D01*
X346250Y325026D01*
Y322774D01*
X346833Y320600D01*
X347958Y318650D01*
X349550Y317058D01*
X351500Y315933D01*
X353674Y315350D01*
X355926D01*
X358100Y315933D01*
X360050Y317058D01*
X361642Y318650D01*
X362767Y320600D01*
X363350Y322774D01*
Y325026D01*
X362767Y327200D01*
X361642Y329150D01*
X360050Y330742D01*
X358100Y331867D01*
X355926Y332450D01*
D02*
G37*
G36*
X330526D02*
X328274D01*
X326100Y331867D01*
X324150Y330742D01*
X322558Y329150D01*
X321433Y327200D01*
X320850Y325026D01*
Y322774D01*
X321433Y320600D01*
X322558Y318650D01*
X324150Y317058D01*
X326100Y315933D01*
X328274Y315350D01*
X330526D01*
X332700Y315933D01*
X334650Y317058D01*
X336242Y318650D01*
X337367Y320600D01*
X337950Y322774D01*
Y325026D01*
X337367Y327200D01*
X336242Y329150D01*
X334650Y330742D01*
X332700Y331867D01*
X330526Y332450D01*
D02*
G37*
G36*
X305126D02*
X302874D01*
X300700Y331867D01*
X298750Y330742D01*
X297158Y329150D01*
X296033Y327200D01*
X295450Y325026D01*
Y322774D01*
X296033Y320600D01*
X297158Y318650D01*
X298750Y317058D01*
X300700Y315933D01*
X302874Y315350D01*
X305126D01*
X307300Y315933D01*
X309250Y317058D01*
X310842Y318650D01*
X311967Y320600D01*
X312550Y322774D01*
Y325026D01*
X311967Y327200D01*
X310842Y329150D01*
X309250Y330742D01*
X307300Y331867D01*
X305126Y332450D01*
D02*
G37*
G36*
X279726D02*
X277474D01*
X275300Y331867D01*
X273350Y330742D01*
X271758Y329150D01*
X270633Y327200D01*
X270050Y325026D01*
Y322774D01*
X270633Y320600D01*
X271758Y318650D01*
X273350Y317058D01*
X275300Y315933D01*
X277474Y315350D01*
X279726D01*
X281900Y315933D01*
X283850Y317058D01*
X285442Y318650D01*
X286567Y320600D01*
X287150Y322774D01*
Y325026D01*
X286567Y327200D01*
X285442Y329150D01*
X283850Y330742D01*
X281900Y331867D01*
X279726Y332450D01*
D02*
G37*
G36*
X228926D02*
X226674D01*
X224500Y331867D01*
X222550Y330742D01*
X220958Y329150D01*
X219833Y327200D01*
X219250Y325026D01*
Y322774D01*
X219833Y320600D01*
X220958Y318650D01*
X222550Y317058D01*
X224500Y315933D01*
X226674Y315350D01*
X228926D01*
X231100Y315933D01*
X233050Y317058D01*
X234642Y318650D01*
X235767Y320600D01*
X236350Y322774D01*
Y325026D01*
X235767Y327200D01*
X234642Y329150D01*
X233050Y330742D01*
X231100Y331867D01*
X228926Y332450D01*
D02*
G37*
G36*
X254326D02*
X252074D01*
X249900Y331867D01*
X247950Y330742D01*
X246358Y329150D01*
X245233Y327200D01*
X244650Y325026D01*
Y322774D01*
X245233Y320600D01*
X246088Y319118D01*
X246398Y318371D01*
X246442Y318313D01*
Y305258D01*
X233134D01*
X233050Y305342D01*
X231100Y306467D01*
X228926Y307050D01*
X226674D01*
X224500Y306467D01*
X222550Y305342D01*
X220958Y303750D01*
X219833Y301800D01*
X219250Y299626D01*
Y297374D01*
X219833Y295200D01*
X220334Y294331D01*
Y284258D01*
X190250D01*
X188501Y284028D01*
X186871Y283352D01*
X185471Y282278D01*
X162221Y259028D01*
X161147Y257629D01*
X160866Y256950D01*
X153300D01*
Y247550D01*
X166561D01*
X167000Y247492D01*
X167439Y247550D01*
X173700D01*
Y251393D01*
X193049Y270742D01*
X212702D01*
Y267550D01*
X208960D01*
Y245950D01*
X210802D01*
Y240550D01*
X208960D01*
Y237103D01*
X205800D01*
Y239540D01*
X184200D01*
Y222340D01*
X205800D01*
Y223587D01*
X208960D01*
Y218950D01*
X212702D01*
Y209300D01*
X212932Y207551D01*
X213608Y205921D01*
X214681Y204522D01*
X215242Y203961D01*
Y194420D01*
X211375D01*
Y163080D01*
X217092D01*
Y144250D01*
X211750D01*
Y125250D01*
X238450D01*
Y144250D01*
X230608D01*
Y163080D01*
X233825D01*
Y194420D01*
X228758D01*
Y206760D01*
X228528Y208509D01*
X227852Y210139D01*
X226779Y211539D01*
X226218Y212099D01*
Y227850D01*
X226160Y228289D01*
Y240550D01*
X224318D01*
Y245950D01*
X226160D01*
Y256271D01*
X226218Y256710D01*
Y268161D01*
X229357Y271300D01*
X231200D01*
Y273143D01*
X231870Y273814D01*
X232945Y275213D01*
X233620Y276843D01*
X233850Y278592D01*
Y291742D01*
X247866D01*
X247950Y291658D01*
X249900Y290533D01*
X252074Y289950D01*
X254326D01*
X256500Y290533D01*
X256534Y290552D01*
X262393Y284693D01*
X263451Y283986D01*
X264700Y283737D01*
X307899D01*
X312362Y279274D01*
Y275275D01*
X312611Y274027D01*
X313318Y272968D01*
X316800Y269486D01*
Y262863D01*
X315507D01*
X314259Y262614D01*
X313200Y261907D01*
X312773Y261480D01*
X311600Y261966D01*
Y265700D01*
X298900D01*
Y259863D01*
X296350D01*
X295101Y259614D01*
X294043Y258907D01*
X287693Y252557D01*
X286986Y251499D01*
X286737Y250250D01*
Y237500D01*
X286986Y236251D01*
X287693Y235193D01*
X289013Y233873D01*
X288526Y232700D01*
X264050D01*
Y222595D01*
X263101Y220304D01*
X262699Y217250D01*
Y194420D01*
X262175D01*
Y163080D01*
X284625D01*
Y180726D01*
X284720Y180849D01*
X285899Y183696D01*
X286301Y186750D01*
Y198292D01*
X305987D01*
Y189700D01*
X305780D01*
Y180300D01*
X323220D01*
Y181737D01*
X356500D01*
X357749Y181986D01*
X358807Y182693D01*
X361307Y185193D01*
X362014Y186251D01*
X362263Y187500D01*
Y200350D01*
X369800D01*
Y208654D01*
X370979Y209585D01*
X371070Y209593D01*
X371200Y209553D01*
Y206450D01*
X371892D01*
Y202550D01*
X371600D01*
Y180950D01*
X371892D01*
Y172100D01*
X372122Y170351D01*
X372153Y170238D01*
X371343Y169008D01*
X366000D01*
X364251Y168778D01*
X362621Y168102D01*
X361222Y167029D01*
X360148Y165629D01*
X359473Y163999D01*
X359242Y162250D01*
X359473Y160501D01*
X360148Y158871D01*
X360242Y158748D01*
Y153253D01*
X360173Y153200D01*
X359300D01*
Y152531D01*
X358971Y152278D01*
X357898Y150879D01*
X357223Y149249D01*
X356992Y147500D01*
X357223Y145751D01*
X357898Y144121D01*
X358971Y142722D01*
X359300Y142393D01*
Y140800D01*
X361710D01*
X362501Y140472D01*
X364250Y140242D01*
X364500D01*
X366249Y140472D01*
X366900Y140742D01*
X373153D01*
X373201Y140723D01*
X374950Y140492D01*
X376750D01*
X378499Y140723D01*
X378686Y140800D01*
X383700D01*
Y144911D01*
X383852Y145064D01*
X384644Y146975D01*
Y149044D01*
X383852Y150955D01*
X383700Y151107D01*
Y153200D01*
X380501D01*
X380478Y153209D01*
X379871D01*
X378499Y153778D01*
X376750Y154008D01*
X376497D01*
X376449Y154028D01*
X374700Y154258D01*
X374650Y155492D01*
X376399Y155723D01*
X378029Y156398D01*
X378348Y156642D01*
X379150D01*
X379589Y156700D01*
X387350D01*
Y178300D01*
X385408D01*
Y180950D01*
X386500D01*
Y202550D01*
X385408D01*
Y206450D01*
X386100D01*
Y228050D01*
X371200D01*
Y224258D01*
X360047D01*
X359999Y224277D01*
X358461Y224480D01*
X358544Y225750D01*
X369800D01*
Y235150D01*
X346700D01*
Y225750D01*
X357956D01*
X358039Y224480D01*
X356501Y224277D01*
X354871Y223602D01*
X353471Y222528D01*
X353411Y222450D01*
X346700D01*
Y213050D01*
X353411D01*
X353471Y212971D01*
X353722Y212722D01*
X355121Y211648D01*
X356751Y210972D01*
X356522Y209750D01*
X346700D01*
Y200350D01*
X355737D01*
Y188851D01*
X355149Y188263D01*
X323220D01*
Y189700D01*
X312513D01*
Y199492D01*
X313528Y200271D01*
X313589Y200350D01*
X320300D01*
Y209750D01*
X313589D01*
X313528Y209828D01*
X312129Y210902D01*
X310499Y211577D01*
X308750Y211808D01*
X290450D01*
Y230777D01*
X291623Y231263D01*
X293243Y229643D01*
X294301Y228936D01*
X295550Y228687D01*
X297200D01*
Y225750D01*
X320300D01*
Y235150D01*
X304615D01*
X304300Y235213D01*
X296901D01*
X293263Y238851D01*
Y248899D01*
X297701Y253337D01*
X302300D01*
X302615Y253400D01*
X310487D01*
Y247850D01*
X297200D01*
Y238450D01*
X320300D01*
Y247850D01*
X317013D01*
Y256337D01*
X320200D01*
X320515Y256400D01*
X326200D01*
Y257637D01*
X328550D01*
Y256400D01*
X337950D01*
Y265400D01*
X328550D01*
Y264163D01*
X326200D01*
Y274100D01*
X321414D01*
X318888Y276626D01*
Y280625D01*
X318639Y281874D01*
X317932Y282932D01*
X311557Y289307D01*
X310499Y290014D01*
X309341Y290245D01*
X309214Y290473D01*
X309032Y291533D01*
X309250Y291658D01*
X310842Y293250D01*
X311967Y295200D01*
X312550Y297374D01*
Y299626D01*
X311967Y301800D01*
X310842Y303750D01*
X309250Y305342D01*
X307300Y306467D01*
X305126Y307050D01*
X302874D01*
X300700Y306467D01*
X298750Y305342D01*
X297158Y303750D01*
X296033Y301800D01*
X295450Y299626D01*
Y297374D01*
X296033Y295200D01*
X297158Y293250D01*
X298750Y291658D01*
X298968Y291533D01*
X298627Y290263D01*
X283973D01*
X283632Y291533D01*
X283850Y291658D01*
X285442Y293250D01*
X286567Y295200D01*
X287150Y297374D01*
Y299626D01*
X286567Y301800D01*
X285442Y303750D01*
X283850Y305342D01*
X281900Y306467D01*
X279726Y307050D01*
X277474D01*
X275300Y306467D01*
X273350Y305342D01*
X271758Y303750D01*
X270633Y301800D01*
X270050Y299626D01*
Y297374D01*
X270633Y295200D01*
X271758Y293250D01*
X273350Y291658D01*
X273568Y291533D01*
X273227Y290263D01*
X266052D01*
X261148Y295166D01*
X261167Y295200D01*
X261750Y297374D01*
Y299626D01*
X261167Y301800D01*
X260042Y303750D01*
X259958Y303834D01*
Y318566D01*
X260042Y318650D01*
X261167Y320600D01*
X261750Y322774D01*
Y325026D01*
X261167Y327200D01*
X260042Y329150D01*
X258450Y330742D01*
X256500Y331867D01*
X254326Y332450D01*
D02*
G37*
G36*
X355926Y307050D02*
X353674D01*
X351500Y306467D01*
X349550Y305342D01*
X347958Y303750D01*
X346833Y301800D01*
X346250Y299626D01*
Y297374D01*
X346833Y295200D01*
X347958Y293250D01*
X349550Y291658D01*
X351500Y290533D01*
X353674Y289950D01*
X355926D01*
X358100Y290533D01*
X360050Y291658D01*
X361642Y293250D01*
X362767Y295200D01*
X363350Y297374D01*
Y299626D01*
X362767Y301800D01*
X361642Y303750D01*
X360050Y305342D01*
X358100Y306467D01*
X355926Y307050D01*
D02*
G37*
G36*
X330526D02*
X328274D01*
X326100Y306467D01*
X324150Y305342D01*
X322558Y303750D01*
X321433Y301800D01*
X320850Y299626D01*
Y297374D01*
X321433Y295200D01*
X322558Y293250D01*
X324150Y291658D01*
X326100Y290533D01*
X328274Y289950D01*
X330526D01*
X332700Y290533D01*
X334650Y291658D01*
X336242Y293250D01*
X337367Y295200D01*
X337950Y297374D01*
Y299626D01*
X337367Y301800D01*
X336242Y303750D01*
X334650Y305342D01*
X332700Y306467D01*
X330526Y307050D01*
D02*
G37*
G36*
X362200Y264650D02*
X352800D01*
Y255650D01*
X354237D01*
Y247850D01*
X346700D01*
Y238450D01*
X369800D01*
Y247850D01*
X360763D01*
Y255650D01*
X362200D01*
Y264650D01*
D02*
G37*
G36*
X146034Y246450D02*
X143966D01*
X142054Y245658D01*
X140592Y244196D01*
X139800Y242284D01*
Y240216D01*
X140592Y238305D01*
X142054Y236842D01*
X143966Y236050D01*
X146034D01*
X147946Y236842D01*
X148341Y237237D01*
X153300D01*
Y235050D01*
X173700D01*
Y244450D01*
X153300D01*
Y243763D01*
X149588D01*
X149408Y244196D01*
X147946Y245658D01*
X146034Y246450D01*
D02*
G37*
G36*
X148784Y231950D02*
X146716D01*
X144804Y231158D01*
X143342Y229696D01*
X142550Y227784D01*
Y225716D01*
X143342Y223804D01*
X144804Y222342D01*
X146716Y221550D01*
X148784D01*
X150696Y222342D01*
X152030Y223676D01*
X153300Y223589D01*
Y222550D01*
X173700D01*
Y231950D01*
X153300D01*
Y230263D01*
X151591D01*
X150696Y231158D01*
X148784Y231950D01*
D02*
G37*
G36*
X178534Y220200D02*
X176466D01*
X174924Y219561D01*
X173700Y219450D01*
X173700Y219450D01*
X173700Y219450D01*
X153300D01*
Y210050D01*
X173700D01*
Y210050D01*
X174970Y210420D01*
X176466Y209800D01*
X178534D01*
X180446Y210592D01*
X181908Y212054D01*
X182700Y213966D01*
Y216034D01*
X181908Y217946D01*
X180446Y219408D01*
X178534Y220200D01*
D02*
G37*
G36*
X381326Y332450D02*
X379074D01*
X376900Y331867D01*
X374950Y330742D01*
X373358Y329150D01*
X372233Y327200D01*
X371650Y325026D01*
Y322774D01*
X372233Y320600D01*
X373358Y318650D01*
X374950Y317058D01*
X376900Y315933D01*
X379074Y315350D01*
X381326D01*
X383500Y315933D01*
X383991Y316216D01*
X444247Y255960D01*
Y218495D01*
X443720Y218100D01*
X442450Y218735D01*
Y226450D01*
X422050D01*
Y217050D01*
X441611D01*
X442137Y215780D01*
X440307Y213950D01*
X422050D01*
Y204550D01*
X442450D01*
Y208307D01*
X448947Y214803D01*
X449543Y215697D01*
X449753Y216750D01*
X449753Y216750D01*
Y257100D01*
X449753Y257100D01*
X449543Y258153D01*
X448947Y259047D01*
X387884Y320109D01*
X388167Y320600D01*
X388750Y322774D01*
Y325026D01*
X388167Y327200D01*
X387042Y329150D01*
X385450Y330742D01*
X383500Y331867D01*
X381326Y332450D01*
D02*
G37*
G36*
X173700Y206950D02*
X153300D01*
Y205013D01*
X140591D01*
X139946Y205658D01*
X138034Y206450D01*
X135966D01*
X134054Y205658D01*
X132592Y204196D01*
X131800Y202284D01*
Y200216D01*
X132592Y198304D01*
X134054Y196842D01*
X135966Y196050D01*
X138034D01*
X139946Y196842D01*
X141408Y198304D01*
X141484Y198487D01*
X146237D01*
Y146000D01*
X146486Y144751D01*
X147193Y143693D01*
X150300Y140586D01*
Y129400D01*
X151987D01*
Y99750D01*
X152236Y98501D01*
X152943Y97443D01*
X158916Y91470D01*
X158692Y90584D01*
X158429Y90200D01*
X157900D01*
Y89013D01*
X153184D01*
X151450Y90747D01*
Y91284D01*
X150658Y93196D01*
X149196Y94658D01*
X147284Y95450D01*
X145216D01*
X143304Y94658D01*
X141842Y93196D01*
X141050Y91284D01*
Y89216D01*
X141842Y87304D01*
X143304Y85842D01*
X145216Y85050D01*
X147284D01*
X147733Y85236D01*
X149525Y83443D01*
X150584Y82736D01*
X151832Y82487D01*
X157900D01*
Y80800D01*
X169655D01*
X171466Y80050D01*
X173534D01*
X175345Y80800D01*
X175600D01*
Y80996D01*
X176908Y82304D01*
X177700Y84216D01*
Y84997D01*
X186312D01*
X186838Y83727D01*
X179624Y76513D01*
X175100D01*
Y77700D01*
X157400D01*
Y77513D01*
X144700D01*
Y78034D01*
X143908Y79946D01*
X142446Y81408D01*
X140534Y82200D01*
X138466D01*
X136554Y81408D01*
X135092Y79946D01*
X134300Y78034D01*
Y75966D01*
X135092Y74054D01*
X136554Y72592D01*
X138466Y71800D01*
X140534D01*
X140930Y71964D01*
X140950Y71943D01*
X142009Y71236D01*
X143257Y70987D01*
X157400D01*
Y68300D01*
X167747D01*
Y67500D01*
X167957Y66446D01*
X168553Y65553D01*
X173553Y60553D01*
X173553Y60553D01*
X174447Y59957D01*
X175500Y59747D01*
X183899D01*
X184804Y58842D01*
X186716Y58050D01*
X188784D01*
X190696Y58842D01*
X192158Y60304D01*
X192950Y62216D01*
Y64284D01*
X192158Y66196D01*
X190696Y67658D01*
X188784Y68450D01*
X186716D01*
X184804Y67658D01*
X183342Y66196D01*
X182951Y65253D01*
X176640D01*
X174659Y67235D01*
X175100Y68300D01*
X175100D01*
Y69987D01*
X180975D01*
X182224Y70236D01*
X183282Y70943D01*
X188813Y76474D01*
X189297Y76425D01*
X190149Y76014D01*
X190268Y75418D01*
X190734Y74520D01*
X190268Y73622D01*
X190083Y72695D01*
Y71345D01*
X190268Y70418D01*
X190793Y69633D01*
X191578Y69108D01*
X192505Y68924D01*
X201255D01*
X201315Y68935D01*
X202395Y67855D01*
X202383Y67795D01*
Y59045D01*
X202568Y58118D01*
X203093Y57333D01*
X203878Y56808D01*
X204805Y56624D01*
X206155D01*
X207082Y56808D01*
X207980Y57274D01*
X208878Y56808D01*
X209805Y56624D01*
X211155D01*
X212082Y56808D01*
X212867Y57333D01*
X213392Y58118D01*
X213577Y59045D01*
Y67795D01*
X213392Y68722D01*
X212867Y69507D01*
X212082Y70032D01*
X211155Y70216D01*
X209805D01*
X208878Y70032D01*
X207980Y69566D01*
X207082Y70032D01*
X206155Y70216D01*
X204805D01*
X204744Y70205D01*
X203664Y71285D01*
X203676Y71345D01*
Y72695D01*
X203492Y73622D01*
X203026Y74520D01*
X203492Y75418D01*
X203676Y76345D01*
Y77695D01*
X203492Y78622D01*
X203026Y79520D01*
X203492Y80418D01*
X203676Y81345D01*
Y82695D01*
X203492Y83622D01*
X203026Y84520D01*
X203492Y85418D01*
X203676Y86345D01*
Y87695D01*
X203492Y88622D01*
X203026Y89520D01*
X203492Y90418D01*
X203676Y91345D01*
Y92695D01*
X203492Y93622D01*
X203026Y94520D01*
X203492Y95418D01*
X203676Y96345D01*
Y97695D01*
X203492Y98622D01*
X203026Y99520D01*
X203492Y100418D01*
X203676Y101345D01*
Y102695D01*
X203664Y102755D01*
X204744Y103835D01*
X204805Y103823D01*
X206155D01*
X207082Y104008D01*
X207980Y104474D01*
X208878Y104008D01*
X209805Y103823D01*
X211155D01*
X212082Y104008D01*
X212980Y104474D01*
X213878Y104008D01*
X214805Y103823D01*
X216155D01*
X217082Y104008D01*
X217980Y104474D01*
X218878Y104008D01*
X219805Y103823D01*
X221155D01*
X222082Y104008D01*
X222980Y104474D01*
X223878Y104008D01*
X224805Y103823D01*
X226155D01*
X227082Y104008D01*
X227980Y104474D01*
X228878Y104008D01*
X229805Y103823D01*
X231155D01*
X232082Y104008D01*
X232980Y104474D01*
X233878Y104008D01*
X234805Y103823D01*
X236155D01*
X236215Y103835D01*
X237295Y102755D01*
X237283Y102695D01*
Y101345D01*
X237468Y100418D01*
X237934Y99520D01*
X237468Y98622D01*
X237283Y97695D01*
Y96345D01*
X237468Y95418D01*
X237934Y94520D01*
X237468Y93622D01*
X237283Y92695D01*
Y91345D01*
X237468Y90418D01*
X237934Y89520D01*
X237468Y88622D01*
X237283Y87695D01*
Y86345D01*
X237468Y85418D01*
X237934Y84520D01*
X237468Y83622D01*
X237283Y82695D01*
Y81345D01*
X237468Y80418D01*
X237934Y79520D01*
X237468Y78622D01*
X237283Y77695D01*
Y76345D01*
X237468Y75418D01*
X237934Y74520D01*
X237468Y73622D01*
X237283Y72695D01*
Y71345D01*
X237295Y71285D01*
X236215Y70205D01*
X236155Y70216D01*
X234805D01*
X233878Y70032D01*
X232980Y69566D01*
X232082Y70032D01*
X231155Y70216D01*
X229805D01*
X228878Y70032D01*
X227980Y69566D01*
X227082Y70032D01*
X226155Y70216D01*
X224805D01*
X223878Y70032D01*
X222980Y69566D01*
X222082Y70032D01*
X221155Y70216D01*
X219805D01*
X218878Y70032D01*
X218093Y69507D01*
X217568Y68722D01*
X217383Y67795D01*
Y64162D01*
X217377Y64130D01*
Y57359D01*
X213553Y53535D01*
X212957Y52642D01*
X212747Y51588D01*
Y43351D01*
X211976Y42580D01*
X211184Y40668D01*
Y38600D01*
X211797Y37120D01*
X211155Y35850D01*
X210800D01*
Y28318D01*
X209950Y27400D01*
X200550D01*
Y18400D01*
X202497D01*
Y14600D01*
X202707Y13546D01*
X203303Y12653D01*
X207387Y8570D01*
X206861Y7300D01*
X192950D01*
Y-3100D01*
X202987D01*
Y-8116D01*
X202766Y-8338D01*
X202050Y-10065D01*
Y-11935D01*
X202129Y-12127D01*
X201514Y-13425D01*
X200088Y-14016D01*
X199580Y-14524D01*
X198750Y-15323D01*
X197920Y-14524D01*
X197412Y-14016D01*
X195685Y-13300D01*
X193815D01*
X192088Y-14016D01*
X190765Y-15338D01*
X190050Y-17065D01*
Y-18935D01*
X190765Y-20662D01*
X192088Y-21985D01*
X193815Y-22700D01*
X195685D01*
X197412Y-21985D01*
X197920Y-21477D01*
X198750Y-20677D01*
X199580Y-21477D01*
X200088Y-21985D01*
X201815Y-22700D01*
X203685D01*
X205412Y-21985D01*
X205920Y-21477D01*
X206750Y-20677D01*
X207580Y-21477D01*
X208088Y-21985D01*
X209815Y-22700D01*
X211685D01*
X213412Y-21985D01*
X214734Y-20662D01*
X215450Y-18935D01*
Y-17065D01*
X215191Y-16439D01*
X215685Y-15700D01*
X217412Y-14985D01*
X217920Y-14476D01*
X218750Y-13677D01*
X219580Y-14476D01*
X220088Y-14985D01*
X221815Y-15700D01*
X222309Y-16439D01*
X222050Y-17065D01*
Y-18935D01*
X222766Y-20662D01*
X223487Y-21384D01*
Y-30000D01*
X223736Y-31249D01*
X224443Y-32307D01*
X233793Y-41657D01*
X234851Y-42364D01*
X236100Y-42613D01*
X276800D01*
Y-43850D01*
X286200D01*
Y-34850D01*
X276800D01*
Y-36087D01*
X237451D01*
X230013Y-28649D01*
Y-21706D01*
X231128Y-21041D01*
X231580Y-21477D01*
X232088Y-21985D01*
X233815Y-22700D01*
X235685D01*
X237412Y-21985D01*
X237920Y-21477D01*
X238750Y-20677D01*
X239580Y-21477D01*
X240088Y-21985D01*
X241815Y-22700D01*
X243685D01*
X245412Y-21985D01*
X246734Y-20662D01*
X247450Y-18935D01*
Y-17065D01*
X246734Y-15338D01*
X245412Y-14016D01*
X243685Y-13300D01*
X241815D01*
X240088Y-14016D01*
X239580Y-14524D01*
X238750Y-15323D01*
X237920Y-14524D01*
X237412Y-14016D01*
X235685Y-13300D01*
X235191Y-12561D01*
X235450Y-11935D01*
Y-10065D01*
X234734Y-8338D01*
X234513Y-8116D01*
Y-3100D01*
X244550D01*
Y7300D01*
X234513D01*
Y9564D01*
X238622Y13673D01*
X239329Y14731D01*
X239578Y15980D01*
Y16468D01*
X245311D01*
X245716Y16300D01*
X247784D01*
X248189Y16468D01*
X257750D01*
X259389Y16794D01*
X260778Y17722D01*
X270928Y27872D01*
X271856Y29261D01*
X272182Y30900D01*
Y70400D01*
Y125250D01*
X276636D01*
X278693Y123193D01*
X279751Y122486D01*
X281000Y122237D01*
X302952D01*
Y119725D01*
X303144Y118759D01*
X303691Y117941D01*
X304509Y117394D01*
X305475Y117201D01*
X310125D01*
X311091Y117394D01*
X311909Y117941D01*
X312456Y118759D01*
X312649Y119725D01*
Y131275D01*
X312456Y132241D01*
X311909Y133059D01*
X311091Y133606D01*
X310125Y133799D01*
X305475D01*
X304509Y133606D01*
X303691Y133059D01*
X303144Y132241D01*
X302952Y131275D01*
Y128763D01*
X282351D01*
X281250Y129864D01*
Y138737D01*
X304280D01*
Y137300D01*
X313080D01*
Y146700D01*
X304280D01*
Y145263D01*
X279000D01*
X277751Y145014D01*
X276693Y144307D01*
X276636Y144250D01*
X254550D01*
Y125250D01*
X263618D01*
Y83600D01*
X255800D01*
Y81088D01*
X254500D01*
X253447Y80878D01*
X252727Y80398D01*
X252323Y80330D01*
X251101Y80590D01*
X250812Y81023D01*
X250877Y81345D01*
Y82695D01*
X250692Y83622D01*
X250226Y84520D01*
X250692Y85418D01*
X250877Y86345D01*
Y87695D01*
X250692Y88622D01*
X250226Y89520D01*
X250692Y90418D01*
X250877Y91345D01*
Y92695D01*
X250692Y93622D01*
X250226Y94520D01*
X250692Y95418D01*
X250877Y96345D01*
Y97695D01*
X250692Y98622D01*
X250226Y99520D01*
X250692Y100418D01*
X250877Y101345D01*
Y102695D01*
X250692Y103622D01*
X250167Y104407D01*
X249382Y104932D01*
X248455Y105117D01*
X239705D01*
X239645Y105105D01*
X238564Y106185D01*
X238577Y106245D01*
Y114995D01*
X238392Y115922D01*
X237867Y116707D01*
X237082Y117232D01*
X236155Y117416D01*
X234805D01*
X233878Y117232D01*
X232980Y116766D01*
X232082Y117232D01*
X231155Y117416D01*
X229805D01*
X228878Y117232D01*
X227980Y116766D01*
X227082Y117232D01*
X226155Y117416D01*
X224805D01*
X223878Y117232D01*
X222980Y116766D01*
X222082Y117232D01*
X221155Y117416D01*
X219805D01*
X218878Y117232D01*
X217980Y116766D01*
X217082Y117232D01*
X216155Y117416D01*
X214805D01*
X213878Y117232D01*
X212980Y116766D01*
X212082Y117232D01*
X211155Y117416D01*
X209805D01*
X208878Y117232D01*
X207980Y116766D01*
X207082Y117232D01*
X206155Y117416D01*
X204805D01*
X203878Y117232D01*
X203093Y116707D01*
X202568Y115922D01*
X202383Y114995D01*
Y106245D01*
X202395Y106185D01*
X201315Y105105D01*
X201255Y105117D01*
X192505D01*
X191578Y104932D01*
X190793Y104407D01*
X190268Y103622D01*
X190083Y102695D01*
Y101345D01*
X190117Y101177D01*
X189605Y100708D01*
X188991Y100326D01*
X188100Y100503D01*
X186890D01*
X181447Y105947D01*
X180553Y106543D01*
X179761Y106701D01*
X179142Y107878D01*
X181401Y110137D01*
X182216Y109800D01*
X184284D01*
X186196Y110592D01*
X187658Y112054D01*
X188450Y113966D01*
Y116034D01*
X187658Y117946D01*
X186196Y119408D01*
X184284Y120200D01*
X182216D01*
X180304Y119408D01*
X178842Y117946D01*
X178050Y116034D01*
Y116014D01*
X172571Y110535D01*
X171400Y111160D01*
X171513Y111726D01*
Y120659D01*
X172658Y121804D01*
X173450Y123716D01*
Y125784D01*
X172658Y127696D01*
X172540Y127814D01*
X173026Y128987D01*
X180909D01*
X182054Y127842D01*
X183966Y127050D01*
X186034D01*
X187946Y127842D01*
X189408Y129304D01*
X190200Y131216D01*
Y133284D01*
X189408Y135196D01*
X187946Y136658D01*
X186034Y137450D01*
X183966D01*
X182054Y136658D01*
X180909Y135513D01*
X170327D01*
X170325Y135514D01*
X169076Y135763D01*
X159700D01*
Y147100D01*
X153014D01*
X152763Y147351D01*
Y196502D01*
X153300Y197550D01*
X173700D01*
Y206950D01*
D02*
G37*
G36*
X442450Y201450D02*
X422050D01*
Y192050D01*
X429977D01*
Y189816D01*
X429550Y188784D01*
Y186716D01*
X430342Y184804D01*
X431804Y183342D01*
X433716Y182550D01*
X435784D01*
X437696Y183342D01*
X439158Y184804D01*
X439950Y186716D01*
Y188784D01*
X439158Y190696D01*
X438977Y190877D01*
X439463Y192050D01*
X442450D01*
Y201450D01*
D02*
G37*
G36*
X386325Y133799D02*
X381675D01*
X380709Y133606D01*
X379891Y133059D01*
X379344Y132241D01*
X379151Y131275D01*
Y119725D01*
X379344Y118759D01*
X379891Y117941D01*
X380709Y117394D01*
X381675Y117201D01*
X386325D01*
X387291Y117394D01*
X388109Y117941D01*
X388656Y118759D01*
X388848Y119725D01*
Y131275D01*
X388656Y132241D01*
X388109Y133059D01*
X387291Y133606D01*
X386325Y133799D01*
D02*
G37*
G36*
X360925D02*
X356275D01*
X355309Y133606D01*
X354491Y133059D01*
X353944Y132241D01*
X353751Y131275D01*
Y119725D01*
X353944Y118759D01*
X354491Y117941D01*
X355309Y117394D01*
X356275Y117201D01*
X360925D01*
X361891Y117394D01*
X362709Y117941D01*
X363256Y118759D01*
X363448Y119725D01*
Y131275D01*
X363256Y132241D01*
X362709Y133059D01*
X361891Y133606D01*
X360925Y133799D01*
D02*
G37*
G36*
X348225D02*
X343575D01*
X342609Y133606D01*
X341791Y133059D01*
X341244Y132241D01*
X341051Y131275D01*
Y119725D01*
X341244Y118759D01*
X341791Y117941D01*
X342609Y117394D01*
X343575Y117201D01*
X348225D01*
X349191Y117394D01*
X350009Y117941D01*
X350556Y118759D01*
X350748Y119725D01*
Y131275D01*
X350556Y132241D01*
X350009Y133059D01*
X349191Y133606D01*
X348225Y133799D01*
D02*
G37*
G36*
X322825D02*
X318175D01*
X317209Y133606D01*
X316391Y133059D01*
X315844Y132241D01*
X315651Y131275D01*
Y119725D01*
X315844Y118759D01*
X316391Y117941D01*
X317209Y117394D01*
X318175Y117201D01*
X322825D01*
X323791Y117394D01*
X324609Y117941D01*
X325156Y118759D01*
X325349Y119725D01*
Y131275D01*
X325156Y132241D01*
X324609Y133059D01*
X323791Y133606D01*
X322825Y133799D01*
D02*
G37*
G36*
X399025D02*
X394375D01*
X393409Y133606D01*
X392591Y133059D01*
X392044Y132241D01*
X391852Y131275D01*
Y119725D01*
X392044Y118759D01*
X392591Y117941D01*
X393409Y117394D01*
X393437Y117388D01*
Y114551D01*
X392899Y114013D01*
X378341D01*
X377196Y115158D01*
X375284Y115950D01*
X373670Y115950D01*
X373625Y117201D01*
X374591Y117394D01*
X375409Y117941D01*
X375956Y118759D01*
X376148Y119725D01*
Y131275D01*
X375956Y132241D01*
X375409Y133059D01*
X374591Y133606D01*
X373625Y133799D01*
X368975D01*
X368009Y133606D01*
X367191Y133059D01*
X366644Y132241D01*
X366451Y131275D01*
Y119725D01*
X366644Y118759D01*
X367191Y117941D01*
X368009Y117394D01*
X368975Y117201D01*
X372373D01*
X373171Y117201D01*
X373216Y115950D01*
X372513Y115659D01*
X371304Y115158D01*
X369842Y113696D01*
X369050Y111784D01*
Y109716D01*
X369842Y107804D01*
X371304Y106342D01*
X373216Y105550D01*
X375284D01*
X377196Y106342D01*
X378341Y107487D01*
X394250D01*
X395499Y107736D01*
X396557Y108443D01*
X399007Y110893D01*
X399714Y111951D01*
X399963Y113200D01*
Y117388D01*
X399991Y117394D01*
X400809Y117941D01*
X401356Y118759D01*
X401549Y119725D01*
Y131275D01*
X401356Y132241D01*
X400809Y133059D01*
X399991Y133606D01*
X399025Y133799D01*
D02*
G37*
G36*
X335525D02*
X330875D01*
X329909Y133606D01*
X329091Y133059D01*
X328544Y132241D01*
X328352Y131275D01*
Y119725D01*
X328544Y118759D01*
X329091Y117941D01*
X329616Y117589D01*
X329809Y116469D01*
X329772Y116126D01*
X329342Y115696D01*
X328550Y113784D01*
Y111716D01*
X329342Y109804D01*
X330804Y108342D01*
X332716Y107550D01*
X334784D01*
X336696Y108342D01*
X338158Y109804D01*
X338950Y111716D01*
Y113784D01*
X338158Y115696D01*
X337366Y116487D01*
X337309Y117941D01*
X337856Y118759D01*
X338049Y119725D01*
Y131275D01*
X337856Y132241D01*
X337309Y133059D01*
X336491Y133606D01*
X335525Y133799D01*
D02*
G37*
G36*
X372334Y87650D02*
X370266D01*
X368354Y86858D01*
X366892Y85396D01*
X366100Y83484D01*
Y81416D01*
X366892Y79504D01*
X367293Y79103D01*
X367191Y78059D01*
X366644Y77241D01*
X366451Y76275D01*
Y64725D01*
X366644Y63759D01*
X367191Y62941D01*
X368009Y62394D01*
X368975Y62201D01*
X373625D01*
X374591Y62394D01*
X375409Y62941D01*
X375956Y63759D01*
X376148Y64725D01*
Y76275D01*
X375956Y77241D01*
X375409Y78059D01*
X375307Y79103D01*
X375708Y79504D01*
X376500Y81416D01*
Y83484D01*
X375708Y85396D01*
X374246Y86858D01*
X372334Y87650D01*
D02*
G37*
G36*
X359034Y85950D02*
X356966D01*
X355054Y85158D01*
X353592Y83696D01*
X352800Y81784D01*
Y79716D01*
X353592Y77804D01*
X354029Y77368D01*
X353944Y77241D01*
X353751Y76275D01*
Y64725D01*
X353944Y63759D01*
X354491Y62941D01*
X355309Y62394D01*
X356275Y62201D01*
X360925D01*
X361891Y62394D01*
X362709Y62941D01*
X363256Y63759D01*
X363448Y64725D01*
Y76275D01*
X363256Y77241D01*
X362709Y78059D01*
X362556Y78162D01*
X363200Y79716D01*
Y81784D01*
X362408Y83696D01*
X360946Y85158D01*
X359034Y85950D01*
D02*
G37*
G36*
X335525Y78798D02*
X330875D01*
X329909Y78606D01*
X329091Y78059D01*
X328544Y77241D01*
X328352Y76275D01*
Y64725D01*
X328544Y63759D01*
X329091Y62941D01*
X329229Y61333D01*
X328842Y60946D01*
X328050Y59034D01*
Y56966D01*
X328842Y55054D01*
X330304Y53592D01*
X332216Y52800D01*
X334284D01*
X336196Y53592D01*
X337658Y55054D01*
X338450Y56966D01*
Y59034D01*
X337658Y60946D01*
X337238Y61366D01*
X337309Y62941D01*
X337856Y63759D01*
X338049Y64725D01*
Y76275D01*
X337856Y77241D01*
X337309Y78059D01*
X336491Y78606D01*
X335525Y78798D01*
D02*
G37*
G36*
X322825D02*
X318175D01*
X317209Y78606D01*
X316391Y78059D01*
X315844Y77241D01*
X315651Y76275D01*
Y64725D01*
X315844Y63759D01*
X316391Y62941D01*
X316780Y62680D01*
X317069Y61408D01*
X317030Y61134D01*
X316342Y60446D01*
X315550Y58534D01*
Y56466D01*
X316342Y54555D01*
X317804Y53092D01*
X319716Y52300D01*
X321784D01*
X323696Y53092D01*
X325158Y54555D01*
X325950Y56466D01*
Y58534D01*
X325158Y60446D01*
X324305Y61300D01*
X324479Y62854D01*
X324609Y62941D01*
X325156Y63759D01*
X325349Y64725D01*
Y76275D01*
X325156Y77241D01*
X324609Y78059D01*
X323791Y78606D01*
X322825Y78798D01*
D02*
G37*
G36*
X348225D02*
X343575D01*
X342609Y78606D01*
X341791Y78059D01*
X341244Y77241D01*
X341051Y76275D01*
Y64725D01*
X341244Y63759D01*
X341791Y62941D01*
X342609Y62394D01*
X343152Y62286D01*
Y59450D01*
X342530D01*
Y50050D01*
X351330D01*
Y59450D01*
X349678D01*
Y62719D01*
X350009Y62941D01*
X350556Y63759D01*
X350748Y64725D01*
Y76275D01*
X350556Y77241D01*
X350009Y78059D01*
X349191Y78606D01*
X348225Y78798D01*
D02*
G37*
G36*
X399025D02*
X394375D01*
X393409Y78606D01*
X392591Y78059D01*
X392044Y77241D01*
X391852Y76275D01*
Y65924D01*
X391737Y65350D01*
Y54950D01*
X391300D01*
Y31550D01*
X398700D01*
Y54950D01*
X398263D01*
Y62201D01*
X399025D01*
X399991Y62394D01*
X400809Y62941D01*
X401356Y63759D01*
X401549Y64725D01*
Y76275D01*
X401356Y77241D01*
X400809Y78059D01*
X399991Y78606D01*
X399025Y78798D01*
D02*
G37*
G36*
X386325D02*
X381675D01*
X380709Y78606D01*
X379891Y78059D01*
X379344Y77241D01*
X379151Y76275D01*
Y66471D01*
X379137Y66400D01*
Y64001D01*
X370086Y54950D01*
X367300D01*
Y31550D01*
X374700D01*
Y50336D01*
X384707Y60343D01*
X385414Y61401D01*
X385574Y62201D01*
X386325D01*
X387291Y62394D01*
X388109Y62941D01*
X388656Y63759D01*
X388848Y64725D01*
Y76275D01*
X388656Y77241D01*
X388109Y78059D01*
X387291Y78606D01*
X386325Y78798D01*
D02*
G37*
G36*
X391804Y27950D02*
X388196D01*
X384712Y27016D01*
X381588Y25213D01*
X379037Y22662D01*
X377234Y19538D01*
X376300Y16054D01*
Y12446D01*
X377234Y8962D01*
X379037Y5838D01*
X381588Y3287D01*
X384712Y1484D01*
X388196Y550D01*
X391804D01*
X395288Y1484D01*
X398412Y3287D01*
X400963Y5838D01*
X402766Y8962D01*
X403700Y12446D01*
Y16054D01*
X402766Y19538D01*
X400963Y22662D01*
X398412Y25213D01*
X395288Y27016D01*
X391804Y27950D01*
D02*
G37*
G36*
X255933Y1450D02*
X253566D01*
X251380Y544D01*
X249706Y-1130D01*
X248800Y-3316D01*
Y-5684D01*
X249706Y-7870D01*
X251380Y-9544D01*
X253566Y-10450D01*
X255933D01*
X258120Y-9544D01*
X259794Y-7870D01*
X260700Y-5684D01*
Y-3316D01*
X259794Y-1130D01*
X258120Y544D01*
X255933Y1450D01*
D02*
G37*
G36*
X183934D02*
X181566D01*
X179380Y544D01*
X177706Y-1130D01*
X176800Y-3316D01*
Y-5684D01*
X177706Y-7870D01*
X179380Y-9544D01*
X181566Y-10450D01*
X183934D01*
X186120Y-9544D01*
X187794Y-7870D01*
X188700Y-5684D01*
Y-3316D01*
X187794Y-1130D01*
X186120Y544D01*
X183934Y1450D01*
D02*
G37*
G36*
X311035Y-75872D02*
X308481D01*
X306014Y-76533D01*
X303802Y-77810D01*
X301996Y-79616D01*
X300719Y-81828D01*
X300058Y-84295D01*
Y-86849D01*
X300719Y-89316D01*
X301996Y-91528D01*
X303802Y-93334D01*
X306014Y-94611D01*
X308481Y-95272D01*
X311035D01*
X313502Y-94611D01*
X315714Y-93334D01*
X317520Y-91528D01*
X318797Y-89316D01*
X319458Y-86849D01*
Y-84295D01*
X318797Y-81828D01*
X317520Y-79616D01*
X315714Y-77810D01*
X313502Y-76533D01*
X311035Y-75872D01*
D02*
G37*
G36*
X421017Y-76380D02*
X418463D01*
X415996Y-77041D01*
X413784Y-78318D01*
X411978Y-80124D01*
X410701Y-82336D01*
X410040Y-84803D01*
Y-87357D01*
X410701Y-89824D01*
X411978Y-92036D01*
X413784Y-93842D01*
X415996Y-95119D01*
X418463Y-95780D01*
X421017D01*
X423484Y-95119D01*
X425696Y-93842D01*
X427502Y-92036D01*
X428779Y-89824D01*
X429440Y-87357D01*
Y-84803D01*
X428779Y-82336D01*
X427502Y-80124D01*
X425696Y-78318D01*
X423484Y-77041D01*
X421017Y-76380D01*
D02*
G37*
%LPD*%
G36*
X255800Y65900D02*
X263618D01*
Y32674D01*
X255976Y25032D01*
X250572D01*
X249696Y25908D01*
X247784Y26700D01*
X245716D01*
X243804Y25908D01*
X242970Y25074D01*
X241700Y25133D01*
Y27580D01*
X232300D01*
Y18780D01*
X233052D01*
Y17331D01*
X230158Y14437D01*
X228888Y14963D01*
Y18150D01*
X230950D01*
Y26850D01*
Y35850D01*
X229003D01*
Y37573D01*
X229557Y37943D01*
X230264Y39001D01*
X230343Y39395D01*
X230696Y39542D01*
X232158Y41004D01*
X232950Y42916D01*
Y44984D01*
X232158Y46896D01*
X230696Y48358D01*
X230503Y48438D01*
Y52651D01*
X230503Y52652D01*
X230445Y52943D01*
X231615Y53568D01*
X239880Y45303D01*
X240774Y44707D01*
X241827Y44497D01*
X244530D01*
Y40550D01*
X253330D01*
Y49950D01*
X253330D01*
Y50300D01*
X253330D01*
Y59700D01*
X246398D01*
X246013Y60970D01*
X246227Y61113D01*
X252251Y67137D01*
X255800D01*
Y65900D01*
D02*
G37*
D10*
X187000Y62500D02*
X187750Y63250D01*
X175500Y62500D02*
X187000D01*
X171250Y104000D02*
X179500D01*
X171250Y87750D02*
X192450D01*
X170500Y67500D02*
X175500Y62500D01*
X179500Y104000D02*
X185750Y97750D01*
X168250Y32500D02*
X169500D01*
X186321Y49321D01*
X208000D01*
X215130Y56451D01*
Y63070D02*
X215480Y63420D01*
X215130Y56451D02*
Y63070D01*
X170500Y67500D02*
Y73500D01*
X224750Y55651D02*
Y63000D01*
X216384Y32234D02*
Y39634D01*
X227750Y43950D02*
Y52652D01*
X224750Y55651D02*
X227750Y52652D01*
X226250Y31350D02*
Y40250D01*
X215500Y40518D02*
Y51588D01*
X226250Y40250D02*
Y43950D01*
X215500Y40518D02*
X216384Y39634D01*
X215500Y31350D02*
X216384Y32234D01*
X320500Y57750D02*
X320750Y57500D01*
X320500Y57750D02*
Y70500D01*
X185750Y97750D02*
X188100D01*
X188830Y97020D01*
X194020D01*
X192450Y87750D02*
X193450Y86750D01*
X195250D01*
X439750Y209500D02*
X447000Y216750D01*
Y257100D01*
X436750Y209500D02*
X439750D01*
X380200Y323900D02*
X447000Y257100D01*
X254500Y78335D02*
X259735D01*
X245750Y77000D02*
X253165D01*
X259735Y78335D02*
X260500Y79100D01*
X253165Y77000D02*
X254500Y78335D01*
X249680Y47250D02*
Y55000D01*
X248680Y46250D02*
X249680Y47250D01*
X248250Y46250D02*
X248680D01*
X230830Y58247D02*
X241827Y47250D01*
X247500D02*
X248250Y46500D01*
X230480Y63420D02*
X230830Y63070D01*
Y58247D02*
Y63070D01*
X241827Y47250D02*
X247500D01*
X215500Y51588D02*
X220130Y56218D01*
Y64130D01*
X216250Y14000D02*
Y22250D01*
Y2100D02*
Y14000D01*
X205250Y14600D02*
Y22900D01*
Y14600D02*
X211250Y8600D01*
Y1750D02*
Y8600D01*
X215750Y22750D02*
X216250Y22250D01*
D16*
X305250Y274950D02*
D03*
Y259550D02*
D03*
D17*
X321500Y269600D02*
D03*
Y260900D02*
D03*
X333250D02*
D03*
Y269600D02*
D03*
X357500Y260150D02*
D03*
Y268850D02*
D03*
X155000Y142600D02*
D03*
Y133900D02*
D03*
X215500Y31350D02*
D03*
Y22650D02*
D03*
X205250Y31600D02*
D03*
Y22900D02*
D03*
X226250Y31350D02*
D03*
Y22650D02*
D03*
X260500Y70400D02*
D03*
Y79100D02*
D03*
X281500Y-30650D02*
D03*
Y-39350D02*
D03*
D18*
X310180Y185000D02*
D03*
X318820D02*
D03*
X364820Y161250D02*
D03*
X356180D02*
D03*
X257570Y55000D02*
D03*
X248930D02*
D03*
Y45250D02*
D03*
X257570D02*
D03*
X355570Y54750D02*
D03*
X346930D02*
D03*
X308680Y142000D02*
D03*
X317320D02*
D03*
D19*
X364500Y147000D02*
D03*
X349500D02*
D03*
X378500Y147000D02*
D03*
X393500D02*
D03*
X226000Y277500D02*
D03*
X241000D02*
D03*
D20*
X379900Y167500D02*
D03*
X409600D02*
D03*
X379050Y191750D02*
D03*
X408750D02*
D03*
X378650Y217250D02*
D03*
X408350D02*
D03*
D21*
X358250Y205050D02*
D03*
Y217750D02*
D03*
Y230450D02*
D03*
Y243150D02*
D03*
X308750D02*
D03*
Y230450D02*
D03*
Y217750D02*
D03*
Y205050D02*
D03*
D22*
X333500Y224100D02*
D03*
D23*
X277250Y220000D02*
D03*
Y269000D02*
D03*
D24*
X244940Y256750D02*
D03*
X217560D02*
D03*
X244940Y229750D02*
D03*
X217560D02*
D03*
D25*
X222600Y178750D02*
D03*
X273400D02*
D03*
D26*
X195000Y203560D02*
D03*
Y230940D02*
D03*
D27*
X267900Y134750D02*
D03*
X225100D02*
D03*
D28*
X205480Y63420D02*
D03*
X210480D02*
D03*
X215480D02*
D03*
X220480D02*
D03*
X225480D02*
D03*
X230480D02*
D03*
X235480D02*
D03*
Y110620D02*
D03*
X230480D02*
D03*
X225480D02*
D03*
X220480D02*
D03*
X215480D02*
D03*
X210480D02*
D03*
X205480D02*
D03*
D29*
X244080Y72020D02*
D03*
Y77020D02*
D03*
Y82020D02*
D03*
Y87020D02*
D03*
Y92020D02*
D03*
Y97020D02*
D03*
Y102020D02*
D03*
X196880D02*
D03*
Y97020D02*
D03*
Y92020D02*
D03*
Y87020D02*
D03*
Y82020D02*
D03*
Y77020D02*
D03*
Y72020D02*
D03*
D30*
X163150Y105000D02*
D03*
X171850D02*
D03*
X162400Y85500D02*
D03*
X171100D02*
D03*
X161900Y73000D02*
D03*
X170600D02*
D03*
D31*
X237000Y31820D02*
D03*
Y23180D02*
D03*
D32*
X395000Y43250D02*
D03*
X383000D02*
D03*
X371000D02*
D03*
D33*
X246250Y2100D02*
D03*
X241250D02*
D03*
X236250D02*
D03*
X231250D02*
D03*
X226250D02*
D03*
X221250D02*
D03*
X216250D02*
D03*
X211250D02*
D03*
X206250D02*
D03*
X201250D02*
D03*
X196250D02*
D03*
X191250D02*
D03*
D34*
X320500Y70500D02*
D03*
X345900Y125500D02*
D03*
X307800Y70500D02*
D03*
X333200D02*
D03*
X345900D02*
D03*
X333200Y125500D02*
D03*
X358600D02*
D03*
X371300D02*
D03*
Y70500D02*
D03*
X396700Y125500D02*
D03*
X358600Y70500D02*
D03*
X384000D02*
D03*
Y125500D02*
D03*
X396700Y70500D02*
D03*
X320500Y125500D02*
D03*
X307800D02*
D03*
D35*
X464250Y178250D02*
D03*
Y252750D02*
D03*
D36*
X432250Y209250D02*
D03*
Y196750D02*
D03*
Y221750D02*
D03*
Y234250D02*
D03*
D37*
X163500Y252250D02*
D03*
Y239750D02*
D03*
Y227250D02*
D03*
Y214750D02*
D03*
Y202250D02*
D03*
Y189750D02*
D03*
D38*
X131500Y171250D02*
D03*
Y270750D02*
D03*
D64*
X242750Y-18000D02*
D03*
X234750D02*
D03*
X226750D02*
D03*
X194750D02*
D03*
X202750D02*
D03*
X210750D02*
D03*
X246750Y-11000D02*
D03*
X230750D02*
D03*
X222750D02*
D03*
X190750D02*
D03*
X206750D02*
D03*
X214750D02*
D03*
D74*
X220480Y87020D02*
D03*
D75*
X140507Y77000D02*
X143257Y74250D01*
X139500Y77000D02*
X140507D01*
X143257Y74250D02*
X163082D01*
X149500Y146000D02*
Y201750D01*
Y146000D02*
X154500Y141000D01*
X333475Y113025D02*
X333750Y112750D01*
X333475Y124675D02*
X333750Y124950D01*
X333200Y125500D02*
X333750Y124950D01*
X333475Y113025D02*
Y124675D01*
X180975Y73250D02*
X189595Y81870D01*
X169562Y73250D02*
X180975D01*
X172500Y105850D02*
X180885Y114235D01*
X182485D02*
X183250Y115000D01*
X180885Y114235D02*
X182485D01*
X162575Y104626D02*
X164450Y106500D01*
Y107925D01*
X168250Y111726D01*
X162500Y104626D02*
X162575D01*
X168250Y111726D02*
Y124750D01*
X333225Y70425D02*
X333250Y70450D01*
X151832Y85750D02*
X162750D01*
X161450Y93550D02*
X185375D01*
X155250Y99750D02*
Y132500D01*
Y99750D02*
X161450Y93550D01*
X146250Y90250D02*
X147332D01*
X151832Y85750D01*
X137500Y201750D02*
X149500D01*
X137000Y201250D02*
X137500Y201750D01*
X169076Y132500D02*
X169326Y132250D01*
X185000D01*
X155250Y132500D02*
X169076D01*
X206250Y-10500D02*
X206750Y-11000D01*
X206250Y-10500D02*
Y2100D01*
X246250Y-8250D02*
X248250Y-10250D01*
X189688Y-11250D02*
X190750D01*
X220480Y87020D02*
X220960Y87500D01*
X341000Y14250D02*
Y32144D01*
X307800Y47450D02*
Y70500D01*
Y47450D02*
X337000Y18250D01*
X338000D01*
X227250Y40250D02*
Y43450D01*
X227750Y43950D01*
X189595Y81870D02*
X193330D01*
X333225Y58025D02*
Y70425D01*
Y58025D02*
X333250Y58000D01*
X333200Y70500D02*
X333250Y70450D01*
X149500Y201750D02*
X161000D01*
X210250Y143876D02*
X211749Y145375D01*
X239950Y125625D02*
Y143876D01*
X233451Y150375D02*
Y161580D01*
X211749Y145375D02*
Y161580D01*
X210250Y125625D02*
Y143876D01*
X212125Y123750D02*
X238076D01*
X239950Y125625D01*
X210250D02*
X212125Y123750D01*
X233451Y150375D02*
X239950Y143876D01*
X209875Y163454D02*
X211749Y161580D01*
X233451D02*
X235325Y163454D01*
X235250Y194121D02*
X235325Y194046D01*
X210357Y194528D02*
Y201243D01*
X209875Y194046D02*
X210357Y194528D01*
X235325Y163454D02*
Y194046D01*
X195000Y203000D02*
X208600D01*
X210357Y201243D01*
X209875Y163454D02*
Y194046D01*
X235250Y194121D02*
Y203000D01*
X244940Y212690D01*
X346415Y55265D02*
Y67085D01*
X345500Y68000D02*
X346415Y67085D01*
Y55265D02*
X346930Y54750D01*
X358000Y71100D02*
X358300Y71400D01*
X358000Y80750D02*
X358300Y80450D01*
Y71400D02*
Y80450D01*
X358000Y71100D02*
X358600Y70500D01*
X371300D02*
Y82450D01*
X343000Y18750D02*
X366500D01*
X342250Y19500D02*
X343000Y18750D01*
X383000Y35250D02*
Y43250D01*
X366500Y18750D02*
X383000Y35250D01*
X355570Y54750D02*
Y55680D01*
Y46714D02*
Y54750D01*
X341000Y32144D02*
X355570Y46714D01*
X355500Y55750D02*
X355570Y55680D01*
X396000Y66350D02*
Y68250D01*
X395000Y43250D02*
Y65350D01*
X396000Y66350D01*
X371000Y43250D02*
Y51250D01*
X382400Y62650D01*
Y66400D01*
X384750Y68750D01*
X374250Y110750D02*
X394250D01*
X396700Y113200D01*
Y125500D01*
X185375Y93550D02*
X186905Y92020D01*
X196880D01*
X267900Y70400D02*
X268100D01*
X260500D02*
X267900D01*
X268100D02*
X268250Y70250D01*
X236315Y15980D02*
Y22065D01*
X270750Y133750D02*
X279000Y142000D01*
X308680D01*
X268500Y133750D02*
X270750D01*
X273250Y133250D02*
X281000Y125500D01*
X270000Y133250D02*
X273250D01*
X281000Y125500D02*
X307800D01*
X352171Y156941D02*
X356180Y160950D01*
X349750Y148250D02*
Y154820D01*
X356180Y160950D02*
Y161250D01*
X351871Y156941D02*
X352171D01*
X349750Y154820D02*
X351871Y156941D01*
X408350Y165150D02*
Y217250D01*
X405350Y159850D02*
Y164100D01*
X406250Y165000D01*
X393500Y147000D02*
Y148000D01*
X405350Y159850D01*
X464250Y178250D02*
Y252750D01*
Y168000D02*
Y178250D01*
X409750Y166000D02*
X462250D01*
X464250Y168000D01*
X295550Y231950D02*
X304300D01*
X290000Y237500D02*
X295550Y231950D01*
X304300D02*
X306500Y229750D01*
X290000Y237500D02*
Y250250D01*
X296350Y256600D01*
X302300D01*
X305250Y259550D01*
X357500Y244000D02*
X357750Y243750D01*
X357500Y244000D02*
Y260150D01*
X313750Y245000D02*
Y257843D01*
X315507Y259600D01*
X320200D01*
X321500Y260900D01*
X333250D02*
X333600D01*
X321500D02*
X333250D01*
X333600D02*
X334000Y260500D01*
X333625Y269225D02*
X357475D01*
X333250Y269600D02*
X333625Y269225D01*
X357475D02*
X357750Y269500D01*
X254250Y297450D02*
X264700Y287000D01*
X309250D01*
X254250Y297450D02*
Y297500D01*
X309250Y287000D02*
X315625Y280625D01*
Y275275D02*
X321300Y269600D01*
X321500D01*
X315625Y275275D02*
Y280625D01*
X167375Y214875D02*
X177375D01*
X177500Y215000D01*
X167250D02*
X167375Y214875D01*
X148000Y227000D02*
X160750D01*
X147750Y226750D02*
X148000Y227000D01*
X160750D02*
X161500Y226250D01*
X160000Y240500D02*
X161250Y239250D01*
X145750Y240500D02*
X160000D01*
X145000Y241250D02*
X145750Y240500D01*
X359000Y187500D02*
Y204250D01*
X356500Y185000D02*
X359000Y187500D01*
X318820Y185000D02*
X356500D01*
X309250Y185930D02*
Y203250D01*
Y185930D02*
X310180Y185000D01*
X275750Y268000D02*
X276500D01*
X244940Y256750D02*
X264500D01*
X275750Y268000D01*
X189990Y200750D02*
X194000D01*
X163500Y189750D02*
X178990D01*
X189990Y200750D01*
X244940Y229750D02*
Y256750D01*
Y212690D02*
Y229750D01*
X249100Y70400D02*
X260500D01*
X235480Y63420D02*
X243920D01*
X250500Y70000D01*
X247630Y71870D02*
X249100Y70400D01*
X225625Y13900D02*
Y22125D01*
X221250Y2100D02*
Y9525D01*
X225625Y13900D01*
X221150Y-3832D02*
Y2000D01*
X221250Y2100D01*
X215000Y-9982D02*
X221150Y-3832D01*
X215000Y-10250D02*
Y-9982D01*
X190750Y-11000D02*
Y-1700D01*
X191450Y-1000D01*
X187586Y-13352D02*
X189688Y-11250D01*
X178700Y-14500D02*
X179848Y-13352D01*
X187586D01*
X225625Y22125D02*
X226500Y23000D01*
X231000Y-11250D02*
X231250Y-11000D01*
Y2100D01*
X230750Y-11000D02*
Y-4157D01*
X231250Y2100D02*
Y10915D01*
X236315Y15980D01*
X246750Y-11000D02*
X247562D01*
X249914Y-13352D01*
X255852D01*
X257250Y-14750D01*
X246250Y-8250D02*
Y2100D01*
X226750Y-18000D02*
Y-17500D01*
Y-30000D02*
Y-18000D01*
Y-30000D02*
X236100Y-39350D01*
X226750Y-17500D02*
X227000Y-17250D01*
X236100Y-39350D02*
X281500D01*
D76*
X260750Y-21888D02*
Y-19500D01*
X250250Y31750D02*
X257570Y39070D01*
X253550Y28450D02*
X254561D01*
X250250Y31750D02*
X253550Y28450D01*
X168750Y31750D02*
X168900Y31600D01*
X205250D01*
X238250Y31750D02*
X250250D01*
X257570Y39070D02*
Y45250D01*
Y45930D02*
Y55000D01*
Y45930D02*
X257750Y45750D01*
X263436Y-24574D02*
X275424D01*
X281500Y-30650D01*
X260750Y-21888D02*
X263436Y-24574D01*
D77*
X222000Y177250D02*
Y206760D01*
X223850Y135650D02*
X225000Y134500D01*
X222600Y178750D02*
X223850Y177500D01*
Y135650D02*
Y177500D01*
X195595Y230345D02*
X217845D01*
X219460Y209300D02*
Y227850D01*
X217560Y229750D02*
X219460Y227850D01*
Y209300D02*
X222000Y206760D01*
X374950Y147250D02*
X376750D01*
X365000Y147500D02*
X374700D01*
X363750D02*
X364250Y147000D01*
X374700Y147500D02*
X374950Y147250D01*
X364250Y147000D02*
X364500D01*
X365000Y147500D01*
X367000Y149500D02*
Y159070D01*
X364500Y147000D02*
X367000Y149500D01*
X252500Y298500D02*
X253000Y299000D01*
X379750Y165250D02*
Y171000D01*
X378650Y172100D02*
Y217250D01*
X379150Y163400D02*
X379900Y164150D01*
X375800Y163400D02*
X379150D01*
X374650Y162250D02*
X375800Y163400D01*
X379900Y164150D02*
Y167500D01*
X366000Y162250D02*
X374650D01*
X377900Y217500D02*
X378250Y217850D01*
X378650Y172100D02*
X379750Y171000D01*
X358250Y217750D02*
X358500Y217500D01*
X377900D01*
X378250Y217850D02*
Y218000D01*
X280300Y205050D02*
X308750D01*
X279000Y203750D02*
X280300Y205050D01*
X252250Y321750D02*
X253200Y320800D01*
Y298500D02*
Y320800D01*
X227092Y278592D02*
Y298592D01*
X227750Y299250D01*
X227800Y298500D02*
X252500D01*
X219460Y256710D02*
Y270960D01*
X226000Y277500D02*
X227092Y278592D01*
X167000Y254250D02*
X190250Y277500D01*
X226000D01*
X218000Y255250D02*
X219460Y256710D01*
X217500Y230500D02*
X217560Y230560D01*
Y256750D01*
X217845Y230345D02*
X218000Y230500D01*
X195000Y230940D02*
X195595Y230345D01*
X219460Y270960D02*
X226000Y277500D01*
D78*
X267900Y70400D02*
Y134750D01*
Y30900D02*
Y70400D01*
X247000Y20750D02*
X257750D01*
X237000D02*
X246750D01*
Y21500D02*
X247000D01*
X257750Y20750D02*
X267900Y30900D01*
D79*
X433750Y188750D02*
X434750Y187750D01*
X433750Y188750D02*
Y196500D01*
D80*
X274500Y186750D02*
Y217250D01*
X275750Y218500D02*
Y219000D01*
X274500Y217250D02*
X275750Y218500D01*
X276750Y220000D02*
X277250D01*
X275750Y219000D02*
X276750Y220000D01*
D81*
X438000Y381250D02*
D03*
X158000Y380750D02*
D03*
D82*
X326000Y224100D02*
D03*
X341000D02*
D03*
Y209100D02*
D03*
X326000D02*
D03*
Y239100D02*
D03*
X341000D02*
D03*
D83*
Y14250D02*
D03*
D84*
X390000D02*
D03*
D85*
X309758Y-85572D02*
D03*
X419740Y-86080D02*
D03*
D86*
X262050Y-76500D02*
D03*
X175450D02*
D03*
X262050Y-19500D02*
D03*
X175450D02*
D03*
D87*
X178700Y-14500D02*
D03*
X258800D02*
D03*
D88*
X254750Y-4500D02*
D03*
X182750D02*
D03*
D89*
X202400Y298500D02*
D03*
X227800D02*
D03*
Y323900D02*
D03*
X253200Y298500D02*
D03*
Y323900D02*
D03*
X278600Y298500D02*
D03*
Y323900D02*
D03*
X304000Y298500D02*
D03*
Y323900D02*
D03*
X329400Y298500D02*
D03*
Y323900D02*
D03*
X354800Y298500D02*
D03*
Y323900D02*
D03*
X380200Y298500D02*
D03*
Y323900D02*
D03*
D90*
X202400D02*
D03*
D91*
X333750Y112750D02*
D03*
X187750Y63250D02*
D03*
X183250Y115000D02*
D03*
X168250Y124750D02*
D03*
X161550Y166000D02*
D03*
X139500Y77000D02*
D03*
X146250Y90250D02*
D03*
X137000Y201250D02*
D03*
X185000Y132250D02*
D03*
X466000Y366000D02*
D03*
X456000Y346000D02*
D03*
X466000Y326000D02*
D03*
X456000Y306000D02*
D03*
X466000Y286000D02*
D03*
X456000Y266000D02*
D03*
X466000Y246000D02*
D03*
X456000Y226000D02*
D03*
X466000Y206000D02*
D03*
X456000Y186000D02*
D03*
X466000Y166000D02*
D03*
X456000Y146000D02*
D03*
X466000Y126000D02*
D03*
X456000Y106000D02*
D03*
X466000Y86000D02*
D03*
X456000Y66000D02*
D03*
X466000Y46000D02*
D03*
X456000Y26000D02*
D03*
X466000Y6000D02*
D03*
X456000Y-14000D02*
D03*
X466000Y-34000D02*
D03*
X456000Y-54000D02*
D03*
X446000Y406000D02*
D03*
X436000Y346000D02*
D03*
X446000Y326000D02*
D03*
Y286000D02*
D03*
Y166000D02*
D03*
X436000Y146000D02*
D03*
X446000Y126000D02*
D03*
X436000Y106000D02*
D03*
X446000Y86000D02*
D03*
X436000Y66000D02*
D03*
X446000Y46000D02*
D03*
X436000Y26000D02*
D03*
X446000Y6000D02*
D03*
X436000Y-14000D02*
D03*
X446000Y-34000D02*
D03*
X436000Y-54000D02*
D03*
X426000Y406000D02*
D03*
X416000Y386000D02*
D03*
Y306000D02*
D03*
Y266000D02*
D03*
X426000Y246000D02*
D03*
X416000Y226000D02*
D03*
Y186000D02*
D03*
X426000Y166000D02*
D03*
X416000Y146000D02*
D03*
X426000Y126000D02*
D03*
X416000Y106000D02*
D03*
X426000Y86000D02*
D03*
X416000Y66000D02*
D03*
X426000Y46000D02*
D03*
X416000Y26000D02*
D03*
X426000Y6000D02*
D03*
X416000Y-14000D02*
D03*
X426000Y-34000D02*
D03*
X416000Y-54000D02*
D03*
X426000Y-74000D02*
D03*
X406000Y406000D02*
D03*
X396000Y386000D02*
D03*
X406000Y366000D02*
D03*
Y326000D02*
D03*
Y286000D02*
D03*
X396000Y266000D02*
D03*
X406000Y246000D02*
D03*
X396000Y226000D02*
D03*
X406000Y206000D02*
D03*
X396000Y186000D02*
D03*
X406000Y166000D02*
D03*
X396000Y146000D02*
D03*
X406000Y126000D02*
D03*
Y86000D02*
D03*
Y46000D02*
D03*
Y6000D02*
D03*
X396000Y-14000D02*
D03*
X406000Y-34000D02*
D03*
X396000Y-54000D02*
D03*
X406000Y-74000D02*
D03*
X396000Y-94000D02*
D03*
X386000Y406000D02*
D03*
X376000Y386000D02*
D03*
X386000Y366000D02*
D03*
Y286000D02*
D03*
X376000Y266000D02*
D03*
X386000Y246000D02*
D03*
X376000Y26000D02*
D03*
Y-14000D02*
D03*
X386000Y-34000D02*
D03*
X376000Y-54000D02*
D03*
X386000Y-74000D02*
D03*
X376000Y-94000D02*
D03*
X366000Y406000D02*
D03*
X356000Y386000D02*
D03*
X366000Y366000D02*
D03*
Y286000D02*
D03*
X356000Y26000D02*
D03*
X366000Y6000D02*
D03*
X356000Y-14000D02*
D03*
X366000Y-34000D02*
D03*
X356000Y-54000D02*
D03*
X366000Y-74000D02*
D03*
X356000Y-94000D02*
D03*
X346000Y406000D02*
D03*
X336000Y386000D02*
D03*
X346000Y366000D02*
D03*
Y286000D02*
D03*
Y166000D02*
D03*
X336000Y146000D02*
D03*
X346000Y46000D02*
D03*
X336000Y-14000D02*
D03*
X346000Y-34000D02*
D03*
X336000Y-54000D02*
D03*
X346000Y-74000D02*
D03*
X336000Y-94000D02*
D03*
X326000Y406000D02*
D03*
X316000Y386000D02*
D03*
X326000Y366000D02*
D03*
X316000Y306000D02*
D03*
X326000Y286000D02*
D03*
Y166000D02*
D03*
X316000Y26000D02*
D03*
X326000Y6000D02*
D03*
X316000Y-14000D02*
D03*
X326000Y-34000D02*
D03*
X316000Y-54000D02*
D03*
X326000Y-74000D02*
D03*
X306000Y406000D02*
D03*
X296000Y386000D02*
D03*
X306000Y366000D02*
D03*
X296000Y186000D02*
D03*
X306000Y166000D02*
D03*
X296000Y66000D02*
D03*
Y26000D02*
D03*
X306000Y6000D02*
D03*
X296000Y-14000D02*
D03*
X306000Y-34000D02*
D03*
X296000Y-54000D02*
D03*
Y-94000D02*
D03*
X286000Y406000D02*
D03*
X276000Y386000D02*
D03*
X286000Y366000D02*
D03*
X276000Y266000D02*
D03*
X286000Y46000D02*
D03*
X276000Y26000D02*
D03*
X286000Y6000D02*
D03*
X276000Y-14000D02*
D03*
Y-54000D02*
D03*
X286000Y-74000D02*
D03*
X276000Y-94000D02*
D03*
X266000Y406000D02*
D03*
X256000Y386000D02*
D03*
X266000Y366000D02*
D03*
X256000Y346000D02*
D03*
Y266000D02*
D03*
X266000Y246000D02*
D03*
X256000Y226000D02*
D03*
Y186000D02*
D03*
X266000Y6000D02*
D03*
X256000Y-54000D02*
D03*
Y-94000D02*
D03*
X246000Y406000D02*
D03*
X236000Y386000D02*
D03*
X246000Y366000D02*
D03*
X236000Y346000D02*
D03*
X246000Y246000D02*
D03*
X236000Y226000D02*
D03*
X246000Y206000D02*
D03*
Y166000D02*
D03*
X236000Y-54000D02*
D03*
X246000Y-74000D02*
D03*
X236000Y-94000D02*
D03*
X226000Y406000D02*
D03*
X216000Y386000D02*
D03*
X226000Y366000D02*
D03*
X216000Y346000D02*
D03*
Y-54000D02*
D03*
X226000Y-74000D02*
D03*
X216000Y-94000D02*
D03*
X206000Y406000D02*
D03*
X196000Y386000D02*
D03*
X206000Y366000D02*
D03*
X196000Y346000D02*
D03*
Y266000D02*
D03*
X206000Y206000D02*
D03*
X196000Y186000D02*
D03*
X206000Y166000D02*
D03*
X196000Y146000D02*
D03*
Y26000D02*
D03*
X206000Y-34000D02*
D03*
X196000Y-54000D02*
D03*
X206000Y-74000D02*
D03*
X196000Y-94000D02*
D03*
X186000Y406000D02*
D03*
Y366000D02*
D03*
X176000Y346000D02*
D03*
X186000Y246000D02*
D03*
Y206000D02*
D03*
Y166000D02*
D03*
X176000Y26000D02*
D03*
X186000Y6000D02*
D03*
Y-34000D02*
D03*
X176000Y-54000D02*
D03*
X186000Y-74000D02*
D03*
X176000Y-94000D02*
D03*
X166000Y406000D02*
D03*
X156000Y346000D02*
D03*
X166000Y326000D02*
D03*
X156000Y306000D02*
D03*
Y66000D02*
D03*
X166000Y46000D02*
D03*
X156000Y26000D02*
D03*
X166000Y6000D02*
D03*
X156000Y-14000D02*
D03*
X166000Y-34000D02*
D03*
X156000Y-54000D02*
D03*
X166000Y-74000D02*
D03*
X146000Y406000D02*
D03*
X136000Y386000D02*
D03*
Y346000D02*
D03*
X146000Y326000D02*
D03*
X136000Y306000D02*
D03*
Y186000D02*
D03*
Y146000D02*
D03*
Y106000D02*
D03*
Y66000D02*
D03*
X146000Y46000D02*
D03*
X136000Y26000D02*
D03*
X146000Y6000D02*
D03*
X136000Y-14000D02*
D03*
X146000Y-34000D02*
D03*
X136000Y-54000D02*
D03*
X254561Y28450D02*
D03*
X168750Y31750D02*
D03*
X220960Y87500D02*
D03*
X216384Y39634D02*
D03*
X227750Y43950D02*
D03*
X320750Y57500D02*
D03*
X172500Y85250D02*
D03*
X333250Y58000D02*
D03*
X358000Y80750D02*
D03*
X371300Y82450D02*
D03*
X374250Y110750D02*
D03*
X246750Y21500D02*
D03*
X363750Y147500D02*
D03*
X379444Y148009D02*
D03*
X371944Y147509D02*
D03*
X177500Y215000D02*
D03*
X147750Y226750D02*
D03*
X145000Y241250D02*
D03*
X434750Y187750D02*
D03*
X216250Y14000D02*
D03*
M02*
