G04*
G04 #@! TF.GenerationSoftware,Altium Limited,Altium Designer,21.6.1 (37)*
G04*
G04 Layer_Color=8388736*
%FSLAX44Y44*%
%MOMM*%
G71*
G04*
G04 #@! TF.SameCoordinates,5872C4F4-FB42-489D-B6BF-DE351544A3BA*
G04*
G04*
G04 #@! TF.FilePolarity,Negative*
G04*
G01*
G75*
%ADD39R,1.1300X1.0900*%
%ADD40R,0.8000X0.7600*%
%ADD41R,0.7400X0.8000*%
%ADD42R,0.9000X1.1000*%
%ADD43R,1.3500X2.0200*%
%ADD44R,2.1700X0.8000*%
%ADD45R,2.3300X3.2000*%
%ADD46R,2.5000X2.4000*%
%ADD47R,1.5800X2.0200*%
%ADD48R,2.1050X2.9940*%
%ADD49R,2.0200X1.5800*%
%ADD50R,2.5300X1.7600*%
G04:AMPARAMS|DCode=51|XSize=1.21mm|YSize=0.47mm|CornerRadius=0.1675mm|HoleSize=0mm|Usage=FLASHONLY|Rotation=90.000|XOffset=0mm|YOffset=0mm|HoleType=Round|Shape=RoundedRectangle|*
%AMROUNDEDRECTD51*
21,1,1.2100,0.1350,0,0,90.0*
21,1,0.8750,0.4700,0,0,90.0*
1,1,0.3350,0.0675,0.4375*
1,1,0.3350,0.0675,-0.4375*
1,1,0.3350,-0.0675,-0.4375*
1,1,0.3350,-0.0675,0.4375*
%
%ADD51ROUNDEDRECTD51*%
G04:AMPARAMS|DCode=52|XSize=1.21mm|YSize=0.47mm|CornerRadius=0.1675mm|HoleSize=0mm|Usage=FLASHONLY|Rotation=180.000|XOffset=0mm|YOffset=0mm|HoleType=Round|Shape=RoundedRectangle|*
%AMROUNDEDRECTD52*
21,1,1.2100,0.1350,0,0,180.0*
21,1,0.8750,0.4700,0,0,180.0*
1,1,0.3350,-0.4375,0.0675*
1,1,0.3350,0.4375,0.0675*
1,1,0.3350,0.4375,-0.0675*
1,1,0.3350,-0.4375,-0.0675*
%
%ADD52ROUNDEDRECTD52*%
%ADD53R,3.4500X3.4500*%
%ADD54R,0.7600X0.8000*%
%ADD55R,0.8000X0.7400*%
%ADD56R,0.6000X2.2000*%
%ADD57R,0.5200X0.9000*%
G04:AMPARAMS|DCode=58|XSize=1.51mm|YSize=0.82mm|CornerRadius=0.1775mm|HoleSize=0mm|Usage=FLASHONLY|Rotation=90.000|XOffset=0mm|YOffset=0mm|HoleType=Round|Shape=RoundedRectangle|*
%AMROUNDEDRECTD58*
21,1,1.5100,0.4650,0,0,90.0*
21,1,1.1550,0.8200,0,0,90.0*
1,1,0.3550,0.2325,0.5775*
1,1,0.3550,0.2325,-0.5775*
1,1,0.3550,-0.2325,-0.5775*
1,1,0.3550,-0.2325,0.5775*
%
%ADD58ROUNDEDRECTD58*%
%ADD59R,2.9000X1.2000*%
%ADD60R,1.9000X0.8000*%
%ADD61R,1.9000X0.8000*%
%ADD62R,2.9000X1.2000*%
%ADD63C,7.2000*%
%ADD64C,0.6000*%
G04:AMPARAMS|DCode=65|XSize=2.6mm|YSize=2.6mm|CornerRadius=0.7mm|HoleSize=0mm|Usage=FLASHONLY|Rotation=90.000|XOffset=0mm|YOffset=0mm|HoleType=Round|Shape=RoundedRectangle|*
%AMROUNDEDRECTD65*
21,1,2.6000,1.2000,0,0,90.0*
21,1,1.2000,2.6000,0,0,90.0*
1,1,1.4000,0.6000,0.6000*
1,1,1.4000,0.6000,-0.6000*
1,1,1.4000,-0.6000,-0.6000*
1,1,1.4000,-0.6000,0.6000*
%
%ADD65ROUNDEDRECTD65*%
%ADD66C,2.6000*%
%ADD67C,1.8000*%
%ADD68O,1.1000X2.0000*%
%ADD69C,0.8000*%
%ADD70O,1.7000X1.1000*%
%ADD71C,1.0500*%
%ADD72C,1.5700*%
%ADD73R,1.5700X1.5700*%
G36*
X256799Y721D02*
X257341Y635D01*
X257872Y493D01*
X258385Y296D01*
X258875Y47D01*
X259336Y-253D01*
X259763Y-598D01*
X260152Y-987D01*
X260497Y-1414D01*
X260797Y-1875D01*
X261046Y-2365D01*
X261243Y-2878D01*
X261385Y-3408D01*
X261471Y-3951D01*
X261500Y-4500D01*
X261471Y-5049D01*
X261385Y-5591D01*
X261243Y-6122D01*
X261046Y-6635D01*
X260797Y-7125D01*
X260497Y-7586D01*
X260152Y-8013D01*
X259763Y-8401D01*
X259336Y-8747D01*
X258875Y-9047D01*
X258385Y-9296D01*
X257872Y-9493D01*
X257341Y-9635D01*
X256799Y-9721D01*
X256250Y-9750D01*
X253250D01*
X252701Y-9721D01*
X252158Y-9635D01*
X251628Y-9493D01*
X251115Y-9296D01*
X250625Y-9047D01*
X250164Y-8747D01*
X249737Y-8401D01*
X249349Y-8013D01*
X249003Y-7586D01*
X248703Y-7125D01*
X248454Y-6635D01*
X248257Y-6122D01*
X248115Y-5591D01*
X248029Y-5049D01*
X248000Y-4500D01*
X248029Y-3951D01*
X248115Y-3408D01*
X248257Y-2878D01*
X248454Y-2365D01*
X248703Y-1875D01*
X249003Y-1414D01*
X249349Y-987D01*
X249737Y-598D01*
X250164Y-253D01*
X250625Y47D01*
X251115Y296D01*
X251628Y493D01*
X252158Y635D01*
X252701Y721D01*
X253250Y750D01*
X256250D01*
X256799Y721D01*
D02*
G37*
G36*
X344000Y199650D02*
X323000D01*
Y247100D01*
X344000D01*
Y199650D01*
D02*
G37*
D39*
X305250Y274950D02*
D03*
Y259550D02*
D03*
D40*
X321500Y269600D02*
D03*
Y260900D02*
D03*
X333250D02*
D03*
Y269600D02*
D03*
X357500Y260150D02*
D03*
Y268850D02*
D03*
X155000Y142600D02*
D03*
Y133900D02*
D03*
X215500Y31350D02*
D03*
Y22650D02*
D03*
X205250Y31600D02*
D03*
Y22900D02*
D03*
X226250Y31350D02*
D03*
Y22650D02*
D03*
X260500Y70400D02*
D03*
Y79100D02*
D03*
X281500Y-30650D02*
D03*
Y-39350D02*
D03*
D41*
X310180Y185000D02*
D03*
X318820D02*
D03*
X364820Y161250D02*
D03*
X356180D02*
D03*
X257570Y55000D02*
D03*
X248930D02*
D03*
Y45250D02*
D03*
X257570D02*
D03*
X355570Y54750D02*
D03*
X346930D02*
D03*
X308680Y142000D02*
D03*
X317320D02*
D03*
D42*
X364500Y147000D02*
D03*
X349500D02*
D03*
X378500Y147000D02*
D03*
X393500D02*
D03*
X226000Y277500D02*
D03*
X241000D02*
D03*
D43*
X379900Y167500D02*
D03*
X409600D02*
D03*
X379050Y191750D02*
D03*
X408750D02*
D03*
X378650Y217250D02*
D03*
X408350D02*
D03*
D44*
X358250Y205050D02*
D03*
Y217750D02*
D03*
Y230450D02*
D03*
Y243150D02*
D03*
X308750D02*
D03*
Y230450D02*
D03*
Y217750D02*
D03*
Y205050D02*
D03*
D45*
X333500Y224100D02*
D03*
D46*
X277250Y220000D02*
D03*
Y269000D02*
D03*
D47*
X244940Y256750D02*
D03*
X217560D02*
D03*
X244940Y229750D02*
D03*
X217560D02*
D03*
D48*
X222600Y178750D02*
D03*
X273400D02*
D03*
D49*
X195000Y203560D02*
D03*
Y230940D02*
D03*
D50*
X267900Y134750D02*
D03*
X225100D02*
D03*
D51*
X205480Y63420D02*
D03*
X210480D02*
D03*
X215480D02*
D03*
X220480D02*
D03*
X225480D02*
D03*
X230480D02*
D03*
X235480D02*
D03*
Y110620D02*
D03*
X230480D02*
D03*
X225480D02*
D03*
X220480D02*
D03*
X215480D02*
D03*
X210480D02*
D03*
X205480D02*
D03*
D52*
X244080Y72020D02*
D03*
Y77020D02*
D03*
Y82020D02*
D03*
Y87020D02*
D03*
Y92020D02*
D03*
Y97020D02*
D03*
Y102020D02*
D03*
X196880D02*
D03*
Y97020D02*
D03*
Y92020D02*
D03*
Y87020D02*
D03*
Y82020D02*
D03*
Y77020D02*
D03*
Y72020D02*
D03*
D53*
X220480Y87020D02*
D03*
D54*
X163150Y105000D02*
D03*
X171850D02*
D03*
X162400Y85500D02*
D03*
X171100D02*
D03*
X161900Y73000D02*
D03*
X170600D02*
D03*
D55*
X237000Y31820D02*
D03*
Y23180D02*
D03*
D56*
X395000Y43250D02*
D03*
X383000D02*
D03*
X371000D02*
D03*
D57*
X246250Y2100D02*
D03*
X241250D02*
D03*
X236250D02*
D03*
X231250D02*
D03*
X226250D02*
D03*
X221250D02*
D03*
X216250D02*
D03*
X211250D02*
D03*
X206250D02*
D03*
X201250D02*
D03*
X196250D02*
D03*
X191250D02*
D03*
D58*
X320500Y70500D02*
D03*
X345900Y125500D02*
D03*
X307800Y70500D02*
D03*
X333200D02*
D03*
X345900D02*
D03*
X333200Y125500D02*
D03*
X358600D02*
D03*
X371300D02*
D03*
Y70500D02*
D03*
X396700Y125500D02*
D03*
X358600Y70500D02*
D03*
X384000D02*
D03*
Y125500D02*
D03*
X396700Y70500D02*
D03*
X320500Y125500D02*
D03*
X307800D02*
D03*
D59*
X464250Y178250D02*
D03*
Y252750D02*
D03*
D60*
X432250Y209250D02*
D03*
Y196750D02*
D03*
Y221750D02*
D03*
Y234250D02*
D03*
D61*
X163500Y252250D02*
D03*
Y239750D02*
D03*
Y227250D02*
D03*
Y214750D02*
D03*
Y202250D02*
D03*
Y189750D02*
D03*
D62*
X131500Y171250D02*
D03*
Y270750D02*
D03*
D63*
X438000Y381250D02*
D03*
X158000Y380750D02*
D03*
D64*
X326000Y224100D02*
D03*
X341000D02*
D03*
Y209100D02*
D03*
X326000D02*
D03*
Y239100D02*
D03*
X341000D02*
D03*
D65*
Y14250D02*
D03*
D66*
X390000D02*
D03*
D67*
X309758Y-85572D02*
D03*
X419740Y-86080D02*
D03*
D68*
X262050Y-76500D02*
D03*
X175450D02*
D03*
X262050Y-19500D02*
D03*
X175450D02*
D03*
D69*
X242750Y-18000D02*
D03*
X234750D02*
D03*
X226750D02*
D03*
X194750D02*
D03*
X202750D02*
D03*
X210750D02*
D03*
X246750Y-11000D02*
D03*
X230750D02*
D03*
X222750D02*
D03*
X190750D02*
D03*
X206750D02*
D03*
X214750D02*
D03*
D70*
X178700Y-14500D02*
D03*
X258800D02*
D03*
D71*
X254750Y-4500D02*
D03*
X182750D02*
D03*
D72*
X202400Y298500D02*
D03*
X227800D02*
D03*
Y323900D02*
D03*
X253200Y298500D02*
D03*
Y323900D02*
D03*
X278600Y298500D02*
D03*
Y323900D02*
D03*
X304000Y298500D02*
D03*
Y323900D02*
D03*
X329400Y298500D02*
D03*
Y323900D02*
D03*
X354800Y298500D02*
D03*
Y323900D02*
D03*
X380200Y298500D02*
D03*
Y323900D02*
D03*
D73*
X202400D02*
D03*
M02*
