G04*
G04 #@! TF.GenerationSoftware,Altium Limited,Altium Designer,21.6.1 (37)*
G04*
G04 Layer_Color=8421504*
%FSLAX44Y44*%
%MOMM*%
G71*
G04*
G04 #@! TF.SameCoordinates,389F95CB-BFB7-4352-95D8-32FE421A7396*
G04*
G04*
G04 #@! TF.FilePolarity,Positive*
G04*
G01*
G75*
%ADD14R,2.7000X1.0000*%
%ADD15R,1.7000X0.6000*%
%ADD16R,1.8000X3.8000*%
%ADD17R,1.0000X2.7000*%
%ADD18R,2.7940X1.9050*%
%ADD19R,1.7000X0.6000*%
%ADD20R,2.7000X1.0000*%
%ADD21R,0.6000X1.9700*%
%ADD22R,3.0000X2.1300*%
%ADD23R,0.8000X1.0000*%
%ADD24R,1.1500X1.8200*%
%ADD25R,1.8200X1.1500*%
%ADD26R,1.3800X1.8200*%
%ADD27R,0.9300X0.8900*%
%ADD28R,2.3000X2.2000*%
%ADD29R,0.9000X0.7000*%
G36*
X321150Y213550D02*
Y220550D01*
X332550D01*
Y213550D01*
X321150D01*
D02*
G37*
G36*
Y222950D02*
Y229950D01*
X332550D01*
Y222950D01*
X321150D01*
D02*
G37*
G36*
X334950Y213550D02*
Y220550D01*
X346350D01*
Y213550D01*
X334950D01*
D02*
G37*
G36*
Y222950D02*
Y229950D01*
X346350D01*
Y222950D01*
X334950D01*
D02*
G37*
D14*
X427500Y172500D02*
D03*
Y247000D02*
D03*
D15*
X395500Y203500D02*
D03*
Y191000D02*
D03*
Y216000D02*
D03*
Y228500D02*
D03*
D16*
X356250Y106000D02*
D03*
X236250D02*
D03*
D17*
X333750Y153000D02*
D03*
X318750D02*
D03*
X303750D02*
D03*
X288750D02*
D03*
X273750D02*
D03*
X258750D02*
D03*
D18*
X276000Y246900D02*
D03*
Y196100D02*
D03*
D19*
X191250Y252250D02*
D03*
Y239750D02*
D03*
Y227250D02*
D03*
Y214750D02*
D03*
Y202250D02*
D03*
Y189750D02*
D03*
D20*
X159250Y171250D02*
D03*
Y270750D02*
D03*
D21*
X314700Y197000D02*
D03*
X327400D02*
D03*
X340100D02*
D03*
X352800D02*
D03*
Y246500D02*
D03*
X340100D02*
D03*
X327400D02*
D03*
X314700D02*
D03*
D22*
X333750Y221750D02*
D03*
D23*
X298750Y177000D02*
D03*
X315750D02*
D03*
D24*
X245350Y183250D02*
D03*
X215650D02*
D03*
D25*
X213250Y161600D02*
D03*
Y131900D02*
D03*
D26*
X323440Y273250D02*
D03*
X296060D02*
D03*
X249560D02*
D03*
X276940D02*
D03*
D27*
X340250Y278700D02*
D03*
Y263300D02*
D03*
D28*
X220750Y265500D02*
D03*
Y216500D02*
D03*
D29*
X355500Y264000D02*
D03*
Y279000D02*
D03*
X369000Y217000D02*
D03*
Y202000D02*
D03*
X370250Y279250D02*
D03*
Y264250D02*
D03*
M02*
