G04*
G04 #@! TF.GenerationSoftware,Altium Limited,Altium Designer,21.6.1 (37)*
G04*
G04 Layer_Color=32896*
%FSLAX44Y44*%
%MOMM*%
G71*
G04*
G04 #@! TF.SameCoordinates,AB913235-39AF-487D-A657-736D3B4B6386*
G04*
G04*
G04 #@! TF.FilePolarity,Positive*
G04*
G01*
G75*
%ADD14C,0.1700*%
D14*
X466385Y238213D02*
X467551Y239380D01*
X469884D01*
X471050Y238213D01*
Y233548D01*
X469884Y232382D01*
X467551D01*
X466385Y233548D01*
Y235881D01*
X468717D01*
X464052Y232382D02*
Y239380D01*
X459387Y232382D01*
Y239380D01*
X457054D02*
Y232382D01*
X453556D01*
X452389Y233548D01*
Y238213D01*
X453556Y239380D01*
X457054D01*
X471050Y219904D02*
Y226902D01*
X466385Y219904D01*
Y226902D01*
X459387Y225736D02*
X460553Y226902D01*
X462886D01*
X464052Y225736D01*
Y221071D01*
X462886Y219904D01*
X460553D01*
X459387Y221071D01*
X466385Y213259D02*
X467551Y214425D01*
X469884D01*
X471050Y213259D01*
Y212092D01*
X469884Y210926D01*
X467551D01*
X466385Y209760D01*
Y208594D01*
X467551Y207427D01*
X469884D01*
X471050Y208594D01*
X464052Y214425D02*
Y207427D01*
X460553D01*
X459387Y208594D01*
Y209760D01*
X460553Y210926D01*
X464052D01*
X460553D01*
X459387Y212092D01*
Y213259D01*
X460553Y214425D01*
X464052D01*
X457054D02*
Y208594D01*
X455888Y207427D01*
X453556D01*
X452389Y208594D01*
Y214425D01*
X445392Y213259D02*
X446558Y214425D01*
X448890D01*
X450057Y213259D01*
Y212092D01*
X448890Y210926D01*
X446558D01*
X445392Y209760D01*
Y208594D01*
X446558Y207427D01*
X448890D01*
X450057Y208594D01*
X466385Y201948D02*
X471050D01*
Y198449D01*
X468717Y199615D01*
X467551D01*
X466385Y198449D01*
Y196116D01*
X467551Y194950D01*
X469884D01*
X471050Y196116D01*
X464052Y201948D02*
Y197283D01*
X461720Y194950D01*
X459387Y197283D01*
Y201948D01*
X202037Y275885D02*
X200871Y277051D01*
Y279384D01*
X202037Y280550D01*
X206702D01*
X207869Y279384D01*
Y277051D01*
X206702Y275885D01*
X204370D01*
Y278218D01*
X207869Y273552D02*
X200871D01*
X207869Y268887D01*
X200871D01*
Y266555D02*
X207869D01*
Y263056D01*
X206702Y261889D01*
X202037D01*
X200871Y263056D01*
Y266555D01*
X225825Y275885D02*
Y280550D01*
X229324D01*
X228158Y278218D01*
Y277051D01*
X229324Y275885D01*
X231657D01*
X232823Y277051D01*
Y279384D01*
X231657Y280550D01*
X225825Y273552D02*
X230490D01*
X232823Y271220D01*
X230490Y268887D01*
X225825D01*
X250780Y275885D02*
Y280550D01*
X254279D01*
X253112Y278218D01*
Y277051D01*
X254279Y275885D01*
X256611D01*
X257778Y277051D01*
Y279384D01*
X256611Y280550D01*
X250780Y273552D02*
X255445D01*
X257778Y271220D01*
X255445Y268887D01*
X250780D01*
X276901Y275885D02*
X275734Y277051D01*
Y279384D01*
X276901Y280550D01*
X281566D01*
X282732Y279384D01*
Y277051D01*
X281566Y275885D01*
X279233D01*
Y278218D01*
X282732Y273552D02*
X275734D01*
Y270054D01*
X276901Y268887D01*
X279233D01*
X280399Y270054D01*
Y273552D01*
X275734Y266555D02*
Y264222D01*
Y265388D01*
X282732D01*
Y266555D01*
Y264222D01*
X275734Y257224D02*
Y259557D01*
X276901Y260723D01*
X281566D01*
X282732Y259557D01*
Y257224D01*
X281566Y256058D01*
X276901D01*
X275734Y257224D01*
Y249060D02*
Y253725D01*
X279233D01*
X278067Y251393D01*
Y250226D01*
X279233Y249060D01*
X281566D01*
X282732Y250226D01*
Y252559D01*
X281566Y253725D01*
X301855Y275885D02*
X300689Y277051D01*
Y279384D01*
X301855Y280550D01*
X306520D01*
X307687Y279384D01*
Y277051D01*
X306520Y275885D01*
X304188D01*
Y278218D01*
X307687Y273552D02*
X300689D01*
Y270054D01*
X301855Y268887D01*
X304188D01*
X305354Y270054D01*
Y273552D01*
X300689Y266555D02*
Y264222D01*
Y265388D01*
X307687D01*
Y266555D01*
Y264222D01*
X300689Y257224D02*
Y259557D01*
X301855Y260723D01*
X306520D01*
X307687Y259557D01*
Y257224D01*
X306520Y256058D01*
X301855D01*
X300689Y257224D01*
X307687Y250226D02*
X300689D01*
X304188Y253725D01*
Y249060D01*
X326810Y275885D02*
X325643Y277051D01*
Y279384D01*
X326810Y280550D01*
X331475D01*
X332641Y279384D01*
Y277051D01*
X331475Y275885D01*
X329142D01*
Y278218D01*
X332641Y273552D02*
X325643D01*
Y270054D01*
X326810Y268887D01*
X329142D01*
X330308Y270054D01*
Y273552D01*
X325643Y266555D02*
Y264222D01*
Y265388D01*
X332641D01*
Y266555D01*
Y264222D01*
X325643Y257224D02*
Y259557D01*
X326810Y260723D01*
X331475D01*
X332641Y259557D01*
Y257224D01*
X331475Y256058D01*
X326810D01*
X325643Y257224D01*
X326810Y253725D02*
X325643Y252559D01*
Y250226D01*
X326810Y249060D01*
X327976D01*
X329142Y250226D01*
Y251393D01*
Y250226D01*
X330308Y249060D01*
X331475D01*
X332641Y250226D01*
Y252559D01*
X331475Y253725D01*
X351764Y275885D02*
X350598Y277051D01*
Y279384D01*
X351764Y280550D01*
X356429D01*
X357596Y279384D01*
Y277051D01*
X356429Y275885D01*
X354097D01*
Y278218D01*
X357596Y273552D02*
X350598D01*
Y270054D01*
X351764Y268887D01*
X354097D01*
X355263Y270054D01*
Y273552D01*
X350598Y266555D02*
Y264222D01*
Y265388D01*
X357596D01*
Y266555D01*
Y264222D01*
X350598Y257224D02*
Y259557D01*
X351764Y260723D01*
X356429D01*
X357596Y259557D01*
Y257224D01*
X356429Y256058D01*
X351764D01*
X350598Y257224D01*
X357596Y249060D02*
Y253725D01*
X352930Y249060D01*
X351764D01*
X350598Y250226D01*
Y252559D01*
X351764Y253725D01*
X376719Y275885D02*
X375552Y277051D01*
Y279384D01*
X376719Y280550D01*
X381384D01*
X382550Y279384D01*
Y277051D01*
X381384Y275885D01*
X379051D01*
Y278218D01*
X382550Y273552D02*
X375552D01*
X382550Y268887D01*
X375552D01*
Y266555D02*
X382550D01*
Y263056D01*
X381384Y261889D01*
X376719D01*
X375552Y263056D01*
Y266555D01*
X200537Y359945D02*
X199371Y361112D01*
Y363444D01*
X200537Y364611D01*
X205202D01*
X206369Y363444D01*
Y361112D01*
X205202Y359945D01*
X202870D01*
Y362278D01*
X206369Y357613D02*
X199371D01*
X206369Y352948D01*
X199371D01*
Y350615D02*
X206369D01*
Y347116D01*
X205202Y345950D01*
X200537D01*
X199371Y347116D01*
Y350615D01*
X225492Y359945D02*
X224325Y361112D01*
Y363444D01*
X225492Y364611D01*
X230157D01*
X231323Y363444D01*
Y361112D01*
X230157Y359945D01*
X224325Y357613D02*
Y352948D01*
Y355280D01*
X231323D01*
X225492Y345950D02*
X224325Y347116D01*
Y349449D01*
X225492Y350615D01*
X226658D01*
X227824Y349449D01*
Y347116D01*
X228990Y345950D01*
X230157D01*
X231323Y347116D01*
Y349449D01*
X230157Y350615D01*
X249280Y352948D02*
Y357613D01*
X252779D01*
X251612Y355280D01*
Y354114D01*
X252779Y352948D01*
X255111D01*
X256278Y354114D01*
Y356447D01*
X255111Y357613D01*
X249280Y350615D02*
X253945D01*
X256278Y348283D01*
X253945Y345950D01*
X249280D01*
X281232Y362278D02*
X274234D01*
Y358779D01*
X275401Y357613D01*
X277733D01*
X278899Y358779D01*
Y362278D01*
Y359945D02*
X281232Y357613D01*
X274234Y355280D02*
X281232Y350615D01*
X274234D02*
X281232Y355280D01*
X274234Y348283D02*
Y345950D01*
Y347116D01*
X281232D01*
Y348283D01*
Y345950D01*
X299189Y364611D02*
Y359945D01*
Y362278D01*
X306187D01*
X299189Y357613D02*
X306187Y352948D01*
X299189D02*
X306187Y357613D01*
X299189Y347116D02*
Y349449D01*
X300355Y350615D01*
X305020D01*
X306187Y349449D01*
Y347116D01*
X305020Y345950D01*
X300355D01*
X299189Y347116D01*
X331141Y364611D02*
X324143D01*
Y361112D01*
X325310Y359945D01*
X327642D01*
X328808Y361112D01*
Y364611D01*
Y362278D02*
X331141Y359945D01*
X324143Y357613D02*
Y352948D01*
Y355280D01*
X331141D01*
X325310Y345950D02*
X324143Y347116D01*
Y349449D01*
X325310Y350615D01*
X326476D01*
X327642Y349449D01*
Y347116D01*
X328808Y345950D01*
X329975D01*
X331141Y347116D01*
Y349449D01*
X329975Y350615D01*
X350264Y372775D02*
X349098Y373941D01*
Y376274D01*
X350264Y377440D01*
X354929D01*
X356096Y376274D01*
Y373941D01*
X354929Y372775D01*
X352597D01*
Y375107D01*
X356096Y370442D02*
X349098D01*
Y366943D01*
X350264Y365777D01*
X352597D01*
X353763Y366943D01*
Y370442D01*
X349098Y363444D02*
Y361112D01*
Y362278D01*
X356096D01*
Y363444D01*
Y361112D01*
X349098Y354114D02*
Y356447D01*
X350264Y357613D01*
X354929D01*
X356096Y356447D01*
Y354114D01*
X354929Y352948D01*
X350264D01*
X349098Y354114D01*
X350264Y350615D02*
X349098Y349449D01*
Y347116D01*
X350264Y345950D01*
X354929D01*
X356096Y347116D01*
Y349449D01*
X354929Y350615D01*
X350264D01*
X375219Y406597D02*
X374052Y407763D01*
Y410096D01*
X375219Y411262D01*
X379884D01*
X381050Y410096D01*
Y407763D01*
X379884Y406597D01*
X377551D01*
Y408930D01*
X381050Y404265D02*
X374052D01*
Y400766D01*
X375219Y399599D01*
X377551D01*
X378717Y400766D01*
Y404265D01*
X374052Y397267D02*
Y394934D01*
Y396101D01*
X381050D01*
Y397267D01*
Y394934D01*
X374052Y387937D02*
Y390269D01*
X375219Y391435D01*
X379884D01*
X381050Y390269D01*
Y387937D01*
X379884Y386770D01*
X375219D01*
X374052Y387937D01*
X381050Y384438D02*
Y382105D01*
Y383271D01*
X374052D01*
X375219Y384438D01*
X381050Y378606D02*
X376385Y373941D01*
X375219Y366943D02*
X374052Y368110D01*
Y370442D01*
X375219Y371608D01*
X376385D01*
X377551Y370442D01*
Y368110D01*
X378717Y366943D01*
X379884D01*
X381050Y368110D01*
Y370442D01*
X379884Y371608D01*
X374052Y364611D02*
X381050D01*
Y361112D01*
X379884Y359945D01*
X378717D01*
X377551Y361112D01*
Y364611D01*
Y361112D01*
X376385Y359945D01*
X375219D01*
X374052Y361112D01*
Y364611D01*
Y357613D02*
X379884D01*
X381050Y356447D01*
Y354114D01*
X379884Y352948D01*
X374052D01*
X375219Y345950D02*
X374052Y347116D01*
Y349449D01*
X375219Y350615D01*
X376385D01*
X377551Y349449D01*
Y347116D01*
X378717Y345950D01*
X379884D01*
X381050Y347116D01*
Y349449D01*
X379884Y350615D01*
X134448Y260334D02*
X139113D01*
Y256835D01*
X136780Y258001D01*
X135614D01*
X134448Y256835D01*
Y254503D01*
X135614Y253336D01*
X137947D01*
X139113Y254503D01*
X132115Y260334D02*
Y255669D01*
X129782Y253336D01*
X127450Y255669D01*
Y260334D01*
X143778Y240859D02*
Y247857D01*
X140279D01*
X139113Y246690D01*
Y244358D01*
X140279Y243192D01*
X143778D01*
X141446D02*
X139113Y240859D01*
X136780Y247857D02*
X132115Y240859D01*
Y247857D02*
X136780Y240859D01*
X129782Y247857D02*
X127450D01*
X128616D01*
Y240859D01*
X129782D01*
X127450D01*
X146111Y235379D02*
X141446D01*
X143778D01*
Y228382D01*
X139113Y235379D02*
X134448Y228382D01*
Y235379D02*
X139113Y228382D01*
X128616Y235379D02*
X130949D01*
X132115Y234213D01*
Y229548D01*
X130949Y228382D01*
X128616D01*
X127450Y229548D01*
Y234213D01*
X128616Y235379D01*
X146111Y215904D02*
Y222902D01*
X142612D01*
X141446Y221736D01*
Y219403D01*
X142612Y218237D01*
X146111D01*
X143778D02*
X141446Y215904D01*
X139113Y222902D02*
X134448D01*
X136780D01*
Y215904D01*
X127450Y221736D02*
X128616Y222902D01*
X130949D01*
X132115Y221736D01*
Y220570D01*
X130949Y219403D01*
X128616D01*
X127450Y218237D01*
Y217071D01*
X128616Y215904D01*
X130949D01*
X132115Y217071D01*
X141446Y209259D02*
X142612Y210425D01*
X144944D01*
X146111Y209259D01*
Y204594D01*
X144944Y203427D01*
X142612D01*
X141446Y204594D01*
X139113Y210425D02*
X134448D01*
X136780D01*
Y203427D01*
X127450Y209259D02*
X128616Y210425D01*
X130949D01*
X132115Y209259D01*
Y208092D01*
X130949Y206926D01*
X128616D01*
X127450Y205760D01*
Y204594D01*
X128616Y203427D01*
X130949D01*
X132115Y204594D01*
X141446Y196781D02*
X142612Y197948D01*
X144944D01*
X146111Y196781D01*
Y192116D01*
X144944Y190950D01*
X142612D01*
X141446Y192116D01*
Y194449D01*
X143778D01*
X139113Y190950D02*
Y197948D01*
X134448Y190950D01*
Y197948D01*
X132115D02*
Y190950D01*
X128616D01*
X127450Y192116D01*
Y196781D01*
X128616Y197948D01*
X132115D01*
M02*
