G04*
G04 #@! TF.GenerationSoftware,Altium Limited,Altium Designer,21.6.1 (37)*
G04*
G04 Layer_Physical_Order=2*
G04 Layer_Color=16711680*
%FSLAX44Y44*%
%MOMM*%
G71*
G04*
G04 #@! TF.SameCoordinates,389F95CB-BFB7-4352-95D8-32FE421A7396*
G04*
G04*
G04 #@! TF.FilePolarity,Positive*
G04*
G01*
G75*
%ADD50C,0.6000*%
%ADD51C,0.3000*%
%ADD52C,0.5000*%
%ADD54C,1.3700*%
%ADD55R,1.3700X1.3700*%
%ADD56C,0.4000*%
%ADD57C,4.0000*%
%ADD58C,0.7000*%
G36*
X439451Y406944D02*
X439451Y120056D01*
X393945Y74549D01*
X190056Y74549D01*
X144549Y120056D01*
X144549Y411945D01*
X153056Y420451D01*
X425944D01*
X439451Y406944D01*
D02*
G37*
%LPC*%
G36*
X381628Y334750D02*
X378772D01*
X376012Y334011D01*
X373538Y332582D01*
X371518Y330562D01*
X370089Y328088D01*
X369350Y325328D01*
Y322472D01*
X370089Y319712D01*
X371518Y317238D01*
X373538Y315218D01*
X376012Y313789D01*
X378772Y313050D01*
X381628D01*
X384388Y313789D01*
X386862Y315218D01*
X388882Y317238D01*
X390311Y319712D01*
X391050Y322472D01*
Y325328D01*
X390311Y328088D01*
X388882Y330562D01*
X386862Y332582D01*
X384388Y334011D01*
X381628Y334750D01*
D02*
G37*
G36*
X356228D02*
X353372D01*
X350612Y334011D01*
X348138Y332582D01*
X346118Y330562D01*
X344689Y328088D01*
X343950Y325328D01*
Y322472D01*
X344689Y319712D01*
X346118Y317238D01*
X348138Y315218D01*
X350612Y313789D01*
X353372Y313050D01*
X356228D01*
X358988Y313789D01*
X361462Y315218D01*
X363482Y317238D01*
X364911Y319712D01*
X365650Y322472D01*
Y325328D01*
X364911Y328088D01*
X363482Y330562D01*
X361462Y332582D01*
X358988Y334011D01*
X356228Y334750D01*
D02*
G37*
G36*
X330828D02*
X327972D01*
X325212Y334011D01*
X322738Y332582D01*
X320718Y330562D01*
X319289Y328088D01*
X318550Y325328D01*
Y322472D01*
X318865Y321296D01*
X313958Y316389D01*
X312743Y314569D01*
X312316Y312423D01*
Y307188D01*
X311142Y306702D01*
X310662Y307182D01*
X308188Y308611D01*
X305428Y309350D01*
X302572D01*
X299812Y308611D01*
X299231Y308275D01*
X298131Y308910D01*
Y310101D01*
X301396Y313365D01*
X302572Y313050D01*
X305428D01*
X308188Y313789D01*
X310662Y315218D01*
X312682Y317238D01*
X314111Y319712D01*
X314850Y322472D01*
Y325328D01*
X314111Y328088D01*
X312682Y330562D01*
X310662Y332582D01*
X308188Y334011D01*
X305428Y334750D01*
X302572D01*
X299812Y334011D01*
X297338Y332582D01*
X295318Y330562D01*
X293889Y328088D01*
X293150Y325328D01*
Y322472D01*
X293465Y321296D01*
X288558Y316389D01*
X287343Y314569D01*
X286916Y312423D01*
Y307188D01*
X285742Y306702D01*
X285262Y307182D01*
X282788Y308611D01*
X280028Y309350D01*
X277172D01*
X274412Y308611D01*
X273831Y308275D01*
X272731Y308910D01*
Y310101D01*
X275996Y313365D01*
X277172Y313050D01*
X280028D01*
X282788Y313789D01*
X285262Y315218D01*
X287282Y317238D01*
X288711Y319712D01*
X289450Y322472D01*
Y325328D01*
X288711Y328088D01*
X287282Y330562D01*
X285262Y332582D01*
X282788Y334011D01*
X280028Y334750D01*
X277172D01*
X274412Y334011D01*
X271938Y332582D01*
X269918Y330562D01*
X268489Y328088D01*
X267750Y325328D01*
Y322472D01*
X268065Y321296D01*
X263158Y316389D01*
X261943Y314569D01*
X261516Y312423D01*
Y307188D01*
X260342Y306702D01*
X259862Y307182D01*
X257388Y308611D01*
X254628Y309350D01*
X251772D01*
X249012Y308611D01*
X246538Y307182D01*
X244518Y305162D01*
X243089Y302688D01*
X242350Y299928D01*
Y297072D01*
X243089Y294312D01*
X244518Y291838D01*
X246538Y289818D01*
X248819Y288501D01*
X249284Y287170D01*
X209760Y247646D01*
X209062Y248049D01*
X207155Y248560D01*
X205180D01*
X203272Y248049D01*
X201562Y247062D01*
X200166Y245665D01*
X199178Y243955D01*
X198667Y242047D01*
Y240073D01*
X199178Y238165D01*
X200166Y236455D01*
X201562Y235059D01*
X203272Y234071D01*
X205180Y233560D01*
X207155D01*
X209062Y234071D01*
X209797Y234495D01*
X210970Y234009D01*
X211011Y233855D01*
X211999Y232145D01*
X213106Y231037D01*
X199206Y217137D01*
X197871Y217598D01*
X197001Y219105D01*
X196608Y219499D01*
Y249018D01*
X217215Y269626D01*
X218431Y271445D01*
X218858Y273591D01*
Y290302D01*
X220128Y290828D01*
X221138Y289818D01*
X223612Y288389D01*
X226372Y287650D01*
X229228D01*
X231988Y288389D01*
X234462Y289818D01*
X236482Y291838D01*
X237911Y294312D01*
X238650Y297072D01*
Y299928D01*
X237911Y302688D01*
X236482Y305162D01*
X234462Y307182D01*
X231988Y308611D01*
X229228Y309350D01*
X226372D01*
X223612Y308611D01*
X221138Y307182D01*
X221030Y307074D01*
X219652Y307492D01*
X219597Y307766D01*
X225196Y313365D01*
X226372Y313050D01*
X229228D01*
X231988Y313789D01*
X234462Y315218D01*
X236482Y317238D01*
X237911Y319712D01*
X238650Y322472D01*
Y325328D01*
X237911Y328088D01*
X236482Y330562D01*
X234462Y332582D01*
X231988Y334011D01*
X229228Y334750D01*
X226372D01*
X223612Y334011D01*
X221138Y332582D01*
X219118Y330562D01*
X217689Y328088D01*
X216950Y325328D01*
Y322472D01*
X217265Y321296D01*
X209285Y313315D01*
X208069Y311496D01*
X207642Y309350D01*
Y275914D01*
X187035Y255306D01*
X185819Y253487D01*
X185392Y251341D01*
Y219499D01*
X184998Y219105D01*
X184011Y217395D01*
X183500Y215487D01*
Y213513D01*
X184011Y211605D01*
X184998Y209895D01*
X186395Y208498D01*
X186441Y208472D01*
X186606Y207213D01*
X185998Y206605D01*
X185011Y204895D01*
X184500Y202987D01*
Y201013D01*
X185011Y199105D01*
X185998Y197395D01*
X187395Y195998D01*
X189105Y195011D01*
X191013Y194500D01*
X192987D01*
X194895Y195011D01*
X196605Y195998D01*
X198001Y197395D01*
X198989Y199105D01*
X199500Y201013D01*
Y201569D01*
X221688Y223758D01*
X223253Y224069D01*
X225072Y225285D01*
X275429Y275642D01*
X289056D01*
X289750Y274737D01*
Y272763D01*
X290261Y270855D01*
X291248Y269145D01*
X292645Y267749D01*
X294355Y266761D01*
X296263Y266250D01*
X298237D01*
X300145Y266761D01*
X300895Y267194D01*
X348944D01*
Y261000D01*
X349167Y259303D01*
X349822Y257722D01*
X350864Y256364D01*
X358287Y248941D01*
X358511Y248105D01*
X359498Y246395D01*
X360895Y244998D01*
X362605Y244011D01*
X364513Y243500D01*
X366487D01*
X368395Y244011D01*
X370105Y244998D01*
X371502Y246395D01*
X372489Y248105D01*
X373000Y250013D01*
Y251987D01*
X372489Y253895D01*
X371502Y255605D01*
X370105Y257001D01*
X368395Y257989D01*
X367559Y258213D01*
X362056Y263716D01*
Y274855D01*
X362489Y275605D01*
X363000Y277513D01*
Y279487D01*
X362489Y281395D01*
X361502Y283105D01*
X360105Y284501D01*
X358395Y285489D01*
X356487Y286000D01*
X354513D01*
X353102Y285622D01*
X352803Y285583D01*
X351222Y284928D01*
X349864Y283886D01*
X346284Y280306D01*
X310740D01*
X310254Y281479D01*
X320625Y291850D01*
X320718Y291838D01*
X322738Y289818D01*
X325212Y288389D01*
X327972Y287650D01*
X330828D01*
X333588Y288389D01*
X336062Y289818D01*
X338082Y291838D01*
X339511Y294312D01*
X340250Y297072D01*
Y299928D01*
X339511Y302688D01*
X338082Y305162D01*
X336062Y307182D01*
X333588Y308611D01*
X330828Y309350D01*
X327972D01*
X325212Y308611D01*
X324631Y308275D01*
X323531Y308910D01*
Y310101D01*
X326796Y313365D01*
X327972Y313050D01*
X330828D01*
X333588Y313789D01*
X336062Y315218D01*
X338082Y317238D01*
X339511Y319712D01*
X340250Y322472D01*
Y325328D01*
X339511Y328088D01*
X338082Y330562D01*
X336062Y332582D01*
X333588Y334011D01*
X330828Y334750D01*
D02*
G37*
G36*
X254628D02*
X251772D01*
X249012Y334011D01*
X246538Y332582D01*
X244518Y330562D01*
X243089Y328088D01*
X242350Y325328D01*
Y322472D01*
X243089Y319712D01*
X244518Y317238D01*
X246538Y315218D01*
X249012Y313789D01*
X251772Y313050D01*
X254628D01*
X257388Y313789D01*
X259862Y315218D01*
X261882Y317238D01*
X263311Y319712D01*
X264050Y322472D01*
Y325328D01*
X263311Y328088D01*
X261882Y330562D01*
X259862Y332582D01*
X257388Y334011D01*
X254628Y334750D01*
D02*
G37*
G36*
X356228Y309350D02*
X353372D01*
X350612Y308611D01*
X348138Y307182D01*
X346118Y305162D01*
X344689Y302688D01*
X343950Y299928D01*
Y297072D01*
X344689Y294312D01*
X346118Y291838D01*
X348138Y289818D01*
X350612Y288389D01*
X353372Y287650D01*
X356228D01*
X358988Y288389D01*
X361462Y289818D01*
X363482Y291838D01*
X364911Y294312D01*
X365650Y297072D01*
Y299928D01*
X364911Y302688D01*
X363482Y305162D01*
X361462Y307182D01*
X358988Y308611D01*
X356228Y309350D01*
D02*
G37*
G36*
X327987Y203750D02*
X326013D01*
X324105Y203239D01*
X322395Y202251D01*
X320998Y200855D01*
X320011Y199145D01*
X319591Y197575D01*
X312325Y190310D01*
X248378D01*
X246737Y190750D01*
X244763D01*
X242855Y190239D01*
X241145Y189251D01*
X239748Y187855D01*
X238761Y186145D01*
X238250Y184237D01*
Y182263D01*
X238761Y180355D01*
X239748Y178645D01*
X241145Y177248D01*
X242855Y176261D01*
X244763Y175750D01*
X246737D01*
X248378Y176190D01*
X315250D01*
X317077Y176430D01*
X318780Y177136D01*
X320242Y178258D01*
X331992Y190008D01*
X333115Y191470D01*
X333658Y192782D01*
X333989Y193355D01*
X334500Y195263D01*
Y197237D01*
X333989Y199145D01*
X333002Y200855D01*
X331605Y202251D01*
X329895Y203239D01*
X327987Y203750D01*
D02*
G37*
%LPD*%
D50*
X350000Y228000D02*
X394000D01*
X348750Y229250D02*
X350000Y228000D01*
X327000Y195000D02*
Y196250D01*
X315250Y183250D02*
X327000Y195000D01*
X245750Y183250D02*
X315250D01*
D51*
X206167Y241060D02*
X206933Y241825D01*
X211870D01*
X267123Y297079D01*
Y312423D01*
X277950Y323250D01*
X278500D01*
X273107Y281250D02*
X302094D01*
X268000Y286750D02*
X282194D01*
X218000Y236750D02*
X268000Y286750D01*
X282194D02*
X292523Y297079D01*
X221107Y229250D02*
X273107Y281250D01*
X292523Y297079D02*
Y312423D01*
X219250Y229250D02*
X221107D01*
X302600Y322500D02*
X304000D01*
X292523Y312423D02*
X302600Y322500D01*
X191000Y251341D02*
X213250Y273591D01*
X192000Y202000D02*
X219250Y229250D01*
X191000Y214500D02*
Y251341D01*
X213250Y273591D02*
Y309350D01*
X226400Y322500D02*
X229000D01*
X213250Y309350D02*
X226400Y322500D01*
X302094Y281250D02*
X317923Y297079D01*
Y312423D01*
X328750Y323250D01*
X329000D01*
D52*
X349000Y273750D02*
X354500Y279250D01*
X297250Y273750D02*
X349000D01*
X355500Y261000D02*
Y278500D01*
Y261000D02*
X365500Y251000D01*
D54*
X202400Y298500D02*
D03*
X227800D02*
D03*
Y323900D02*
D03*
X253200Y298500D02*
D03*
Y323900D02*
D03*
X278600Y298500D02*
D03*
Y323900D02*
D03*
X304000Y298500D02*
D03*
Y323900D02*
D03*
X329400Y298500D02*
D03*
Y323900D02*
D03*
X354800Y298500D02*
D03*
Y323900D02*
D03*
X380200Y298500D02*
D03*
Y323900D02*
D03*
D55*
X202400D02*
D03*
D56*
X333750Y229250D02*
D03*
Y214250D02*
D03*
X318750D02*
D03*
Y229250D02*
D03*
X348750D02*
D03*
Y214250D02*
D03*
D57*
X418000Y397000D02*
D03*
X410000Y127000D02*
D03*
X176000Y125000D02*
D03*
X168000Y396000D02*
D03*
D58*
X431000Y396000D02*
D03*
Y346000D02*
D03*
Y296000D02*
D03*
Y246000D02*
D03*
Y196000D02*
D03*
Y146000D02*
D03*
X406000Y396000D02*
D03*
X418500Y371000D02*
D03*
X406000Y346000D02*
D03*
X418500Y321000D02*
D03*
X406000Y296000D02*
D03*
X418500Y271000D02*
D03*
Y221000D02*
D03*
Y171000D02*
D03*
X406000Y146000D02*
D03*
X418500Y121000D02*
D03*
X406000Y96000D02*
D03*
X381000Y396000D02*
D03*
X393500Y371000D02*
D03*
X381000Y346000D02*
D03*
Y296000D02*
D03*
X393500Y171000D02*
D03*
X381000Y146000D02*
D03*
X393500Y121000D02*
D03*
X381000Y96000D02*
D03*
X356000Y396000D02*
D03*
X368500Y371000D02*
D03*
X356000Y346000D02*
D03*
X368500Y171000D02*
D03*
X356000Y146000D02*
D03*
X368500Y121000D02*
D03*
X356000Y96000D02*
D03*
X331000Y396000D02*
D03*
X343500Y371000D02*
D03*
X331000Y346000D02*
D03*
X343500Y221000D02*
D03*
Y171000D02*
D03*
X331000Y146000D02*
D03*
X343500Y121000D02*
D03*
X331000Y96000D02*
D03*
X306000Y396000D02*
D03*
X318500Y371000D02*
D03*
X306000Y346000D02*
D03*
X318500Y221000D02*
D03*
Y121000D02*
D03*
X306000Y96000D02*
D03*
X281000Y396000D02*
D03*
X293500Y371000D02*
D03*
X281000Y346000D02*
D03*
X293500Y121000D02*
D03*
X281000Y96000D02*
D03*
X256000Y396000D02*
D03*
X268500Y371000D02*
D03*
X256000Y346000D02*
D03*
X268500Y121000D02*
D03*
X256000Y96000D02*
D03*
X231000Y396000D02*
D03*
X243500Y371000D02*
D03*
X231000Y346000D02*
D03*
Y196000D02*
D03*
Y146000D02*
D03*
X243500Y121000D02*
D03*
X231000Y96000D02*
D03*
X206000Y396000D02*
D03*
X218500Y371000D02*
D03*
X206000Y346000D02*
D03*
Y146000D02*
D03*
X218500Y121000D02*
D03*
X206000Y96000D02*
D03*
X181000Y396000D02*
D03*
X193500Y371000D02*
D03*
X181000Y346000D02*
D03*
X193500Y321000D02*
D03*
X181000Y296000D02*
D03*
X193500Y271000D02*
D03*
Y171000D02*
D03*
X181000Y146000D02*
D03*
X193500Y121000D02*
D03*
X181000Y96000D02*
D03*
X394000Y228250D02*
D03*
X206167Y241060D02*
D03*
X218000Y236750D02*
D03*
X191000Y214500D02*
D03*
X192000Y202000D02*
D03*
X297250Y273750D02*
D03*
X355500Y278500D02*
D03*
X365500Y251000D02*
D03*
X327000Y196250D02*
D03*
X245750Y183250D02*
D03*
M02*
