G04*
G04 #@! TF.GenerationSoftware,Altium Limited,Altium Designer,21.6.1 (37)*
G04*
G04 Layer_Physical_Order=2*
G04 Layer_Color=16711680*
%FSLAX44Y44*%
%MOMM*%
G71*
G04*
G04 #@! TF.SameCoordinates,1B4F0172-D593-43EF-8BA9-2CE0EC5DC862*
G04*
G04*
G04 #@! TF.FilePolarity,Positive*
G04*
G01*
G75*
%ADD16R,0.6000X1.7000*%
%ADD17R,1.0000X2.7000*%
%ADD43C,1.4000*%
%ADD44C,0.3000*%
%ADD46C,0.5000*%
%ADD50C,1.3700*%
%ADD51R,1.3700X1.3700*%
%ADD52C,0.4000*%
%ADD53C,4.0000*%
%ADD54C,0.7000*%
G36*
X405409Y417451D02*
X402701Y415642D01*
X399358Y412299D01*
X396732Y408368D01*
X394922Y404001D01*
X394000Y399364D01*
Y394636D01*
X394922Y389999D01*
X396732Y385632D01*
X399358Y381701D01*
X402701Y378358D01*
X406632Y375732D01*
X411000Y373922D01*
X415636Y373000D01*
X420364D01*
X425001Y373922D01*
X429368Y375732D01*
X433299Y378358D01*
X436451Y381510D01*
X437262Y381437D01*
X439451Y380505D01*
X439451Y120056D01*
X434154Y114759D01*
X431611Y116458D01*
X433078Y120000D01*
X434000Y124636D01*
Y129364D01*
X433078Y134001D01*
X431269Y138368D01*
X428642Y142299D01*
X425299Y145642D01*
X421368Y148268D01*
X417001Y150078D01*
X412364Y151000D01*
X407636D01*
X403000Y150078D01*
X398632Y148268D01*
X394701Y145642D01*
X391358Y142299D01*
X388732Y138368D01*
X386922Y134001D01*
X386000Y129364D01*
Y124636D01*
X386922Y120000D01*
X388732Y115632D01*
X391358Y111701D01*
X394701Y108358D01*
X398632Y105731D01*
X403000Y103922D01*
X407636Y103000D01*
X412364D01*
X417001Y103922D01*
X420542Y105389D01*
X422242Y102846D01*
X393945Y74549D01*
X190056Y74549D01*
X163759Y100846D01*
X165458Y103389D01*
X169000Y101922D01*
X173636Y101000D01*
X178364D01*
X183001Y101922D01*
X187368Y103731D01*
X191299Y106358D01*
X194642Y109701D01*
X197269Y113632D01*
X199078Y117999D01*
X200000Y122636D01*
Y127364D01*
X199078Y132001D01*
X197269Y136368D01*
X194642Y140299D01*
X191299Y143642D01*
X187368Y146269D01*
X183001Y148078D01*
X178364Y149000D01*
X173636D01*
X169000Y148078D01*
X164632Y146269D01*
X160701Y143642D01*
X157358Y140299D01*
X154732Y136368D01*
X152922Y132001D01*
X152000Y127364D01*
Y122636D01*
X152922Y117999D01*
X154389Y114458D01*
X151846Y112758D01*
X144549Y120056D01*
X144549Y205480D01*
X146443Y206383D01*
X147549Y206521D01*
X251500Y102569D01*
Y102013D01*
X252011Y100105D01*
X252999Y98395D01*
X254395Y96999D01*
X256105Y96011D01*
X258013Y95500D01*
X259987D01*
X261895Y96011D01*
X263605Y96999D01*
X265002Y98395D01*
X266645Y97248D01*
X268355Y96261D01*
X270263Y95750D01*
X272237D01*
X274145Y96261D01*
X275855Y97248D01*
X277251Y98645D01*
X278239Y100355D01*
X278750Y102262D01*
Y104237D01*
X278239Y106145D01*
X277251Y107855D01*
X275855Y109251D01*
X274145Y110239D01*
X272237Y110750D01*
X271681D01*
X259560Y122871D01*
X260708Y125642D01*
X289028D01*
X289748Y124395D01*
X291145Y122999D01*
X292855Y122011D01*
X294763Y121500D01*
X296737D01*
X298645Y122011D01*
X299194Y122328D01*
X302081Y120898D01*
X302194Y120760D01*
Y105895D01*
X301761Y105145D01*
X301250Y103237D01*
Y101263D01*
X301761Y99355D01*
X302749Y97645D01*
X304145Y96249D01*
X305855Y95261D01*
X307763Y94750D01*
X309737D01*
X311645Y95261D01*
X313355Y96249D01*
X314751Y97645D01*
X315739Y99355D01*
X316250Y101263D01*
Y103237D01*
X315739Y105145D01*
X315306Y105895D01*
Y130000D01*
X315083Y131697D01*
X314428Y133278D01*
X313386Y134636D01*
X289886Y158136D01*
X288528Y159178D01*
X286947Y159833D01*
X285250Y160056D01*
X255466D01*
X233806Y181716D01*
Y193106D01*
X234239Y193855D01*
X234750Y195763D01*
Y197737D01*
X234239Y199645D01*
X233251Y201355D01*
X231855Y202752D01*
X230145Y203739D01*
X228237Y204250D01*
X226263D01*
X224355Y203739D01*
X222645Y202752D01*
X221248Y201355D01*
X220261Y199645D01*
X219750Y197737D01*
Y195763D01*
X220261Y193855D01*
X220694Y193106D01*
Y184406D01*
X217922Y183258D01*
X178108Y223073D01*
Y322134D01*
X190366Y334392D01*
X218605D01*
X219848Y331392D01*
X219118Y330662D01*
X217689Y328188D01*
X216950Y325428D01*
Y322571D01*
X217689Y319812D01*
X219118Y317338D01*
X221138Y315318D01*
X223612Y313889D01*
X226371Y313150D01*
X229228D01*
X231988Y313889D01*
X234462Y315318D01*
X236482Y317338D01*
X237910Y319812D01*
X238650Y322571D01*
Y325428D01*
X237910Y328188D01*
X236482Y330662D01*
X235752Y331392D01*
X236994Y334392D01*
X243281D01*
X243813Y333740D01*
X244615Y331392D01*
X243391Y329798D01*
X242283Y327122D01*
X241905Y324250D01*
Y309695D01*
X227800D01*
X224928Y309317D01*
X222252Y308208D01*
X219955Y306445D01*
X218191Y304147D01*
X217083Y301471D01*
X216705Y298600D01*
X217083Y295728D01*
X218191Y293052D01*
X219955Y290755D01*
X222252Y288991D01*
X224928Y287883D01*
X227800Y287505D01*
X253100D01*
X255971Y287883D01*
X258534Y288944D01*
X309728Y237750D01*
X308486Y234750D01*
X274000D01*
Y209750D01*
X299819D01*
X299953Y208732D01*
X300608Y207151D01*
X301649Y205793D01*
X304578Y202864D01*
X305864Y201878D01*
X305941Y201809D01*
X306664Y199601D01*
X306624Y198396D01*
X306614Y198386D01*
X305572Y197028D01*
X304917Y195447D01*
X304694Y193750D01*
Y167894D01*
X304261Y167145D01*
X303750Y165237D01*
Y163263D01*
X304261Y161355D01*
X305249Y159645D01*
X306645Y158249D01*
X308355Y157261D01*
X310263Y156750D01*
X312237D01*
X314145Y157261D01*
X315855Y158249D01*
X317251Y159645D01*
X318239Y161355D01*
X318750Y163263D01*
Y165237D01*
X318239Y167145D01*
X317806Y167894D01*
Y191034D01*
X329636Y202864D01*
X329636Y202864D01*
X372386Y245614D01*
X373428Y246972D01*
X374083Y248553D01*
X374306Y250250D01*
Y308834D01*
X378653Y313181D01*
X378772Y313150D01*
X381628D01*
X384388Y313889D01*
X386862Y315318D01*
X388882Y317338D01*
X390311Y319812D01*
X391050Y322571D01*
Y325428D01*
X390311Y328188D01*
X388882Y330662D01*
X386862Y332682D01*
X384388Y334110D01*
X381628Y334850D01*
X378772D01*
X376012Y334110D01*
X373538Y332682D01*
X371518Y330662D01*
X370089Y328188D01*
X369350Y325428D01*
Y324431D01*
X368650Y323869D01*
X365650Y325306D01*
Y325428D01*
X364911Y328188D01*
X363482Y330662D01*
X361462Y332682D01*
X358988Y334110D01*
X356228Y334850D01*
X353372D01*
X350612Y334110D01*
X348138Y332682D01*
X346118Y330662D01*
X344689Y328188D01*
X343950Y325428D01*
Y322571D01*
X344689Y319812D01*
X346118Y317338D01*
X348138Y315318D01*
X350612Y313889D01*
X353372Y313150D01*
X356228D01*
X356884Y313326D01*
X357897Y312930D01*
X359552Y311215D01*
X356488Y309380D01*
X356228Y309450D01*
X353372D01*
X350612Y308710D01*
X348138Y307282D01*
X346118Y305262D01*
X344689Y302788D01*
X343950Y300028D01*
Y297171D01*
X344689Y294412D01*
X346118Y291938D01*
X348138Y289918D01*
X350612Y288489D01*
X353372Y287750D01*
X356228D01*
X358194Y288277D01*
X361194Y286688D01*
Y252966D01*
X328272Y220044D01*
X325500Y221192D01*
Y234750D01*
X325056D01*
Y238250D01*
X324833Y239947D01*
X324178Y241528D01*
X323136Y242885D01*
X281092Y284929D01*
X281989Y288275D01*
X282788Y288489D01*
X285262Y289918D01*
X287282Y291938D01*
X288710Y294412D01*
X289450Y297171D01*
Y300028D01*
X288710Y302788D01*
X287282Y305262D01*
X285262Y307282D01*
X282788Y308710D01*
X280028Y309450D01*
X277171D01*
X274412Y308710D01*
X271938Y307282D01*
X269918Y305262D01*
X268967Y303615D01*
X266360Y302834D01*
X265401Y302855D01*
X264095Y303946D01*
Y324250D01*
X264050Y324592D01*
Y325026D01*
X265045Y325799D01*
X266874Y326480D01*
X267797Y325603D01*
X267750Y325428D01*
Y322571D01*
X268489Y319812D01*
X269918Y317338D01*
X271938Y315318D01*
X274412Y313889D01*
X277171Y313150D01*
X280028D01*
X282788Y313889D01*
X285262Y315318D01*
X287282Y317338D01*
X288710Y319812D01*
X289450Y322571D01*
Y324935D01*
X290670Y325861D01*
X292286Y326435D01*
X293203Y325627D01*
X293150Y325428D01*
Y322571D01*
X293889Y319812D01*
X295318Y317338D01*
X297338Y315318D01*
X299812Y313889D01*
X302572Y313150D01*
X305428D01*
X308188Y313889D01*
X310662Y315318D01*
X312682Y317338D01*
X314111Y319812D01*
X314850Y322571D01*
Y325428D01*
X314111Y328188D01*
X314072Y328255D01*
X316472Y330097D01*
X319097Y327472D01*
X318550Y325428D01*
Y322571D01*
X319289Y319812D01*
X320718Y317338D01*
X322738Y315318D01*
X325212Y313889D01*
X327971Y313150D01*
X330828D01*
X333588Y313889D01*
X336062Y315318D01*
X338082Y317338D01*
X339510Y319812D01*
X340250Y322571D01*
Y325428D01*
X339510Y328188D01*
X338082Y330662D01*
X336062Y332682D01*
X333588Y334110D01*
X330828Y334850D01*
X327971D01*
X327663Y334767D01*
X305965Y356465D01*
X304146Y357681D01*
X302000Y358108D01*
X183500D01*
X181354Y357681D01*
X179535Y356465D01*
X147549Y324479D01*
X146442Y324617D01*
X144549Y325521D01*
X144549Y382499D01*
X147549Y383409D01*
X149358Y380701D01*
X152701Y377358D01*
X156632Y374732D01*
X161000Y372923D01*
X165636Y372000D01*
X170364D01*
X175001Y372923D01*
X179368Y374732D01*
X183299Y377358D01*
X186642Y380701D01*
X189269Y384632D01*
X191078Y389000D01*
X192000Y393636D01*
Y398364D01*
X191078Y403001D01*
X189269Y407369D01*
X186642Y411299D01*
X183299Y414642D01*
X179368Y417269D01*
X178928Y417451D01*
X179525Y420451D01*
X404499D01*
X405409Y417451D01*
D02*
G37*
%LPC*%
G36*
X330828Y309450D02*
X327971D01*
X325212Y308710D01*
X322738Y307282D01*
X320718Y305262D01*
X319289Y302788D01*
X318550Y300028D01*
Y297171D01*
X319289Y294412D01*
X320718Y291938D01*
X322738Y289918D01*
X325212Y288489D01*
X327971Y287750D01*
X330828D01*
X333588Y288489D01*
X336062Y289918D01*
X338082Y291938D01*
X339510Y294412D01*
X340250Y297171D01*
Y300028D01*
X339510Y302788D01*
X338082Y305262D01*
X336062Y307282D01*
X333588Y308710D01*
X330828Y309450D01*
D02*
G37*
G36*
X305428D02*
X302572D01*
X299812Y308710D01*
X297338Y307282D01*
X295318Y305262D01*
X293889Y302788D01*
X293150Y300028D01*
Y297171D01*
X293889Y294412D01*
X295318Y291938D01*
X297338Y289918D01*
X299812Y288489D01*
X302572Y287750D01*
X305428D01*
X308188Y288489D01*
X310662Y289918D01*
X312682Y291938D01*
X314111Y294412D01*
X314850Y297171D01*
Y300028D01*
X314111Y302788D01*
X312682Y305262D01*
X310662Y307282D01*
X308188Y308710D01*
X305428Y309450D01*
D02*
G37*
%LPD*%
D16*
X318500Y222250D02*
D03*
X306000D02*
D03*
X293500D02*
D03*
X281000D02*
D03*
X268500D02*
D03*
D17*
X250000Y190250D02*
D03*
X337000D02*
D03*
D43*
X253000Y299250D02*
Y324250D01*
X227800Y298600D02*
X253100D01*
D44*
X159550Y214950D02*
Y307950D01*
X159000Y308500D02*
X159550Y307950D01*
X166500Y215778D02*
X251028Y131250D01*
X166500Y215778D02*
Y327250D01*
X185500Y346250D01*
X151250Y320250D02*
X183500Y352500D01*
X151250Y210750D02*
X259000Y103000D01*
X151250Y210750D02*
Y320250D01*
X159550Y214950D02*
X271250Y103250D01*
X251028Y131250D02*
X292418D01*
X249750Y143500D02*
X281250D01*
X172500Y220750D02*
X249750Y143500D01*
X292418Y131250D02*
X294668Y129000D01*
X295750D01*
X281750Y346250D02*
X304000Y324000D01*
X185500Y346250D02*
X281750D01*
X302000Y352500D02*
X328500Y326000D01*
X183500Y352500D02*
X302000D01*
X172500Y324456D02*
X188043Y340000D01*
X172500Y220750D02*
Y324456D01*
X188043Y340000D02*
X262600D01*
X277850Y324750D01*
D46*
X311250Y164250D02*
Y193750D01*
X285250Y153500D02*
X308750Y130000D01*
Y102250D02*
Y130000D01*
X252750Y153500D02*
X285250D01*
X227250Y179000D02*
X252750Y153500D01*
X311250Y193750D02*
X325000Y207500D01*
X207250Y295000D02*
X268197Y234053D01*
X367750Y311550D02*
X380200Y324000D01*
X367750Y250250D02*
Y311550D01*
X325000Y207500D02*
X367750Y250250D01*
X258250Y298500D02*
Y299250D01*
X268197Y222553D02*
Y234053D01*
Y222553D02*
X268500Y222250D01*
X227250Y179000D02*
Y196500D01*
X306285Y210429D02*
X309214Y207500D01*
X306285Y210429D02*
Y221965D01*
X306000Y222250D02*
X306285Y221965D01*
X309214Y207500D02*
X325000D01*
X318500Y222250D02*
Y238250D01*
X258250Y298500D02*
X318500Y238250D01*
D50*
X380200Y298600D02*
D03*
Y324000D02*
D03*
X354800Y298600D02*
D03*
Y324000D02*
D03*
X329400Y298600D02*
D03*
Y324000D02*
D03*
X304000Y298600D02*
D03*
Y324000D02*
D03*
X278600Y298600D02*
D03*
Y324000D02*
D03*
X253200Y298600D02*
D03*
Y324000D02*
D03*
X227800Y298600D02*
D03*
Y324000D02*
D03*
X202400Y298600D02*
D03*
D51*
Y324000D02*
D03*
D52*
X399000Y243500D02*
D03*
Y228500D02*
D03*
X384000D02*
D03*
Y243500D02*
D03*
X414000D02*
D03*
Y228500D02*
D03*
D53*
X418000Y397000D02*
D03*
X410000Y127000D02*
D03*
X176000Y125000D02*
D03*
X168000Y396000D02*
D03*
D54*
X159000Y308500D02*
D03*
X259000Y103000D02*
D03*
X432000Y362000D02*
D03*
Y334000D02*
D03*
Y194000D02*
D03*
Y166000D02*
D03*
X418000Y362000D02*
D03*
X425000Y348000D02*
D03*
Y180000D02*
D03*
X418000Y166000D02*
D03*
X425000Y152000D02*
D03*
X404000Y362000D02*
D03*
X411000Y180000D02*
D03*
X404000Y166000D02*
D03*
X390000Y390000D02*
D03*
X397000Y376000D02*
D03*
X390000Y362000D02*
D03*
X397000Y152000D02*
D03*
Y96000D02*
D03*
X390000Y82000D02*
D03*
X383000Y404000D02*
D03*
X376000Y390000D02*
D03*
X383000Y376000D02*
D03*
X376000Y362000D02*
D03*
Y138000D02*
D03*
Y110000D02*
D03*
X383000Y96000D02*
D03*
X376000Y82000D02*
D03*
X369000Y404000D02*
D03*
X362000Y390000D02*
D03*
X369000Y376000D02*
D03*
X362000Y362000D02*
D03*
Y138000D02*
D03*
X369000Y124000D02*
D03*
Y96000D02*
D03*
X362000Y82000D02*
D03*
X355000Y404000D02*
D03*
X348000Y390000D02*
D03*
X355000Y376000D02*
D03*
X348000Y362000D02*
D03*
Y166000D02*
D03*
Y138000D02*
D03*
X341000Y404000D02*
D03*
X334000Y390000D02*
D03*
X341000Y376000D02*
D03*
X334000Y362000D02*
D03*
X341000Y152000D02*
D03*
X334000Y110000D02*
D03*
X327000Y404000D02*
D03*
X320000Y390000D02*
D03*
X327000Y376000D02*
D03*
X320000Y362000D02*
D03*
X327000Y96000D02*
D03*
X320000Y82000D02*
D03*
X313000Y404000D02*
D03*
X306000Y390000D02*
D03*
X313000Y376000D02*
D03*
X306000Y362000D02*
D03*
Y82000D02*
D03*
X299000Y404000D02*
D03*
X292000Y390000D02*
D03*
X299000Y376000D02*
D03*
X292000Y362000D02*
D03*
X299000Y96000D02*
D03*
X292000Y82000D02*
D03*
X285000Y404000D02*
D03*
X278000Y390000D02*
D03*
X285000Y376000D02*
D03*
X278000Y362000D02*
D03*
X285000Y96000D02*
D03*
X278000Y82000D02*
D03*
X271000Y404000D02*
D03*
X264000Y390000D02*
D03*
X271000Y376000D02*
D03*
X264000Y362000D02*
D03*
Y82000D02*
D03*
X257000Y404000D02*
D03*
X250000Y390000D02*
D03*
X257000Y376000D02*
D03*
X250000Y362000D02*
D03*
X243000Y404000D02*
D03*
X236000Y390000D02*
D03*
X243000Y376000D02*
D03*
X236000Y362000D02*
D03*
X229000Y404000D02*
D03*
X222000Y390000D02*
D03*
X229000Y376000D02*
D03*
X222000Y362000D02*
D03*
Y82000D02*
D03*
X215000Y404000D02*
D03*
X208000Y390000D02*
D03*
X215000Y376000D02*
D03*
X208000Y362000D02*
D03*
Y138000D02*
D03*
X215000Y124000D02*
D03*
X208000Y110000D02*
D03*
X215000Y96000D02*
D03*
X208000Y82000D02*
D03*
X201000Y404000D02*
D03*
Y376000D02*
D03*
X194000Y362000D02*
D03*
X201000Y96000D02*
D03*
X194000Y82000D02*
D03*
X187000Y376000D02*
D03*
X180000Y362000D02*
D03*
X187000Y320000D02*
D03*
Y292000D02*
D03*
Y264000D02*
D03*
Y236000D02*
D03*
X180000Y166000D02*
D03*
X187000Y152000D02*
D03*
Y96000D02*
D03*
X166000Y362000D02*
D03*
Y166000D02*
D03*
X152000Y362000D02*
D03*
X159000Y348000D02*
D03*
X152000Y334000D02*
D03*
Y194000D02*
D03*
X159000Y180000D02*
D03*
X152000Y166000D02*
D03*
X159000Y152000D02*
D03*
X311250Y164250D02*
D03*
X281250Y143500D02*
D03*
X295750Y129000D02*
D03*
X227250Y196750D02*
D03*
X308750Y102250D02*
D03*
X271250Y103250D02*
D03*
M02*
