G04*
G04 #@! TF.GenerationSoftware,Altium Limited,Altium Designer,21.6.1 (37)*
G04*
G04 Layer_Color=8388736*
%FSLAX44Y44*%
%MOMM*%
G71*
G04*
G04 #@! TF.SameCoordinates,4ABF761C-D1B2-43E9-9F85-C7646A4A9D86*
G04*
G04*
G04 #@! TF.FilePolarity,Negative*
G04*
G01*
G75*
%ADD26R,0.8000X1.9000*%
%ADD27R,1.2000X2.9000*%
%ADD28R,2.0000X4.0000*%
%ADD29R,0.8000X2.1700*%
%ADD30R,3.2000X2.3300*%
%ADD31R,2.9940X2.1050*%
%ADD32R,1.2000X1.0000*%
%ADD33R,2.0200X1.3500*%
%ADD34R,1.5800X2.0200*%
%ADD35R,1.1300X1.0900*%
%ADD36R,2.4000X2.5000*%
%ADD37R,1.1000X0.9000*%
%ADD38C,1.5700*%
%ADD39R,1.5700X1.5700*%
%ADD40C,0.6000*%
%ADD41C,4.2000*%
G36*
X374550Y225500D02*
Y246500D01*
X422000D01*
Y225500D01*
X374550D01*
D02*
G37*
D26*
X258750Y117750D02*
D03*
X271250D02*
D03*
X283750D02*
D03*
X296250D02*
D03*
X308750D02*
D03*
X321250D02*
D03*
D27*
X339750Y85750D02*
D03*
X240250D02*
D03*
X251500Y154000D02*
D03*
X266500D02*
D03*
X281500D02*
D03*
X296500D02*
D03*
X311500D02*
D03*
X326500D02*
D03*
D28*
X229000Y107000D02*
D03*
X349000D02*
D03*
D29*
X379950Y211250D02*
D03*
X392650D02*
D03*
X405350D02*
D03*
X418050D02*
D03*
Y260750D02*
D03*
X405350D02*
D03*
X392650D02*
D03*
X379950D02*
D03*
D30*
X399000Y236000D02*
D03*
D31*
X307500Y266150D02*
D03*
Y215350D02*
D03*
D32*
X365000Y227500D02*
D03*
Y210500D02*
D03*
D33*
X383000Y185850D02*
D03*
Y156150D02*
D03*
X360000Y185850D02*
D03*
Y156150D02*
D03*
D34*
X199620Y211000D02*
D03*
X227000D02*
D03*
X199810Y240000D02*
D03*
X227190D02*
D03*
D35*
X403750Y305700D02*
D03*
Y290300D02*
D03*
D36*
X204250Y268000D02*
D03*
X253250D02*
D03*
D37*
X430500Y292500D02*
D03*
Y307500D02*
D03*
X433500Y227000D02*
D03*
Y212000D02*
D03*
X417750Y307750D02*
D03*
Y292750D02*
D03*
D38*
X380200Y298600D02*
D03*
Y324000D02*
D03*
X354800Y298600D02*
D03*
Y324000D02*
D03*
X329400Y298600D02*
D03*
Y324000D02*
D03*
X304000Y298600D02*
D03*
Y324000D02*
D03*
X278600Y298600D02*
D03*
Y324000D02*
D03*
X253200Y298600D02*
D03*
Y324000D02*
D03*
X227800Y298600D02*
D03*
Y324000D02*
D03*
X202400Y298600D02*
D03*
D39*
Y324000D02*
D03*
D40*
X399000Y243500D02*
D03*
Y228500D02*
D03*
X384000D02*
D03*
Y243500D02*
D03*
X414000D02*
D03*
Y228500D02*
D03*
D41*
X418000Y397000D02*
D03*
X410000Y127000D02*
D03*
X176000Y125000D02*
D03*
X168000Y396000D02*
D03*
M02*
