G04*
G04 #@! TF.GenerationSoftware,Altium Limited,Altium Designer,21.6.1 (37)*
G04*
G04 Layer_Color=32896*
%FSLAX44Y44*%
%MOMM*%
G71*
G04*
G04 #@! TF.SameCoordinates,4ABF761C-D1B2-43E9-9F85-C7646A4A9D86*
G04*
G04*
G04 #@! TF.FilePolarity,Positive*
G04*
G01*
G75*
%ADD10C,0.2000*%
%ADD11C,0.1270*%
%ADD13C,0.1800*%
D10*
X184200Y324000D02*
G03*
X184200Y324000I-1000J0D01*
G01*
X348575Y222250D02*
G03*
X348575Y222250I-1000J0D01*
G01*
X189700Y336700D02*
X392900D01*
X189700Y285900D02*
X392900D01*
Y336700D01*
X189700Y285900D02*
Y336700D01*
D11*
X257750Y179250D02*
X328500D01*
X341000Y207250D02*
Y219750D01*
X244750Y207250D02*
Y219750D01*
X325000D02*
X341000D01*
X244750D02*
X260750D01*
D13*
X235501Y224243D02*
X234501Y225243D01*
Y227242D01*
X235501Y228242D01*
X236500D01*
X237500Y227242D01*
Y225243D01*
X238500Y224243D01*
X239499D01*
X240499Y225243D01*
Y227242D01*
X239499Y228242D01*
X234501Y222244D02*
X240499D01*
Y219245D01*
X239499Y218245D01*
X238500D01*
X237500Y219245D01*
Y222244D01*
Y219245D01*
X236500Y218245D01*
X235501D01*
X234501Y219245D01*
Y222244D01*
Y216246D02*
X239499D01*
X240499Y215246D01*
Y213247D01*
X239499Y212247D01*
X234501D01*
X235501Y206249D02*
X234501Y207249D01*
Y209248D01*
X235501Y210248D01*
X236500D01*
X237500Y209248D01*
Y207249D01*
X238500Y206249D01*
X239499D01*
X240499Y207249D01*
Y209248D01*
X239499Y210248D01*
X241499Y204250D02*
Y200251D01*
X234501Y195253D02*
Y197252D01*
X235501Y198252D01*
X239499D01*
X240499Y197252D01*
Y195253D01*
X239499Y194253D01*
X235501D01*
X234501Y195253D01*
Y192253D02*
X239499D01*
X240499Y191254D01*
Y189254D01*
X239499Y188255D01*
X234501D01*
Y186255D02*
Y182257D01*
Y184256D01*
X240499D01*
Y180257D02*
Y178258D01*
Y179258D01*
X234501D01*
X235501Y180257D01*
M02*
