G04*
G04 #@! TF.GenerationSoftware,Altium Limited,Altium Designer,21.6.1 (37)*
G04*
G04 Layer_Color=8421504*
%FSLAX44Y44*%
%MOMM*%
G71*
G04*
G04 #@! TF.SameCoordinates,1B4F0172-D593-43EF-8BA9-2CE0EC5DC862*
G04*
G04*
G04 #@! TF.FilePolarity,Positive*
G04*
G01*
G75*
%ADD15R,2.7940X1.9050*%
%ADD16R,0.6000X1.7000*%
%ADD17R,1.0000X2.7000*%
%ADD18R,1.8000X3.8000*%
%ADD19R,0.6000X1.9700*%
%ADD20R,3.0000X2.1300*%
%ADD21R,1.0000X0.8000*%
%ADD22R,1.8200X1.1500*%
%ADD23R,1.3800X1.8200*%
%ADD24R,0.9300X0.8900*%
%ADD25R,2.2000X2.3000*%
%ADD26R,0.9000X0.7000*%
G36*
X386400Y227800D02*
Y234800D01*
X397800D01*
Y227800D01*
X386400D01*
D02*
G37*
G36*
Y237200D02*
Y244200D01*
X397800D01*
Y237200D01*
X386400D01*
D02*
G37*
G36*
X400200Y227800D02*
Y234800D01*
X411600D01*
Y227800D01*
X400200D01*
D02*
G37*
G36*
Y237200D02*
Y244200D01*
X411600D01*
Y237200D01*
X400200D01*
D02*
G37*
D15*
X307500Y215350D02*
D03*
Y266150D02*
D03*
D16*
X258750Y117750D02*
D03*
X271250D02*
D03*
X283750D02*
D03*
X296250D02*
D03*
X308750D02*
D03*
X321250D02*
D03*
D17*
X339750Y85750D02*
D03*
X240250D02*
D03*
X251500Y154000D02*
D03*
X266500D02*
D03*
X281500D02*
D03*
X296500D02*
D03*
X311500D02*
D03*
X326500D02*
D03*
D18*
X229000Y107000D02*
D03*
X349000D02*
D03*
D19*
X379950Y211250D02*
D03*
X392650D02*
D03*
X405350D02*
D03*
X418050D02*
D03*
Y260750D02*
D03*
X405350D02*
D03*
X392650D02*
D03*
X379950D02*
D03*
D20*
X399000Y236000D02*
D03*
D21*
X365000Y227500D02*
D03*
Y210500D02*
D03*
D22*
X383000Y185850D02*
D03*
Y156150D02*
D03*
X360000Y185850D02*
D03*
Y156150D02*
D03*
D23*
X199620Y211000D02*
D03*
X227000D02*
D03*
X199810Y240000D02*
D03*
X227190D02*
D03*
D24*
X403750Y305700D02*
D03*
Y290300D02*
D03*
D25*
X204250Y268000D02*
D03*
X253250D02*
D03*
D26*
X430500Y292500D02*
D03*
Y307500D02*
D03*
X433500Y227000D02*
D03*
Y212000D02*
D03*
X417750Y307750D02*
D03*
Y292750D02*
D03*
M02*
