G04*
G04 #@! TF.GenerationSoftware,Altium Limited,Altium Designer,21.6.1 (37)*
G04*
G04 Layer_Color=65535*
%FSLAX44Y44*%
%MOMM*%
G71*
G04*
G04 #@! TF.SameCoordinates,1B4F0172-D593-43EF-8BA9-2CE0EC5DC862*
G04*
G04*
G04 #@! TF.FilePolarity,Positive*
G04*
G01*
G75*
%ADD10C,0.2000*%
%ADD11C,0.1270*%
%ADD12C,0.1500*%
%ADD13C,0.1800*%
%ADD14C,0.1700*%
D10*
X230675Y117750D02*
G03*
X230675Y117750I-1000J0D01*
G01*
X240000Y171000D02*
G03*
X240000Y171000I-1000J0D01*
G01*
X374950Y192800D02*
G03*
X374950Y192800I-1000J0D01*
G01*
X427000Y298000D02*
Y302000D01*
X434000Y298000D02*
Y302000D01*
X437000Y217500D02*
Y221500D01*
X430000Y217500D02*
Y221500D01*
X421250Y298250D02*
Y302250D01*
X414250Y298250D02*
Y302250D01*
D11*
X248750Y74750D02*
X331250D01*
X236250Y102750D02*
Y115250D01*
X343750Y102750D02*
Y115250D01*
X236250D02*
X252250D01*
X327750D02*
X343750D01*
X220000Y73000D02*
X358500D01*
X359000Y73500D02*
Y82500D01*
X358500Y73000D02*
X359000Y73500D01*
X220000Y73000D02*
Y82500D01*
X220500Y162500D02*
X243000D01*
X220500Y141500D02*
Y162500D01*
X335500Y162000D02*
X358000D01*
Y141000D02*
Y162000D01*
X373750Y216000D02*
Y256000D01*
X424250Y216000D02*
Y256000D01*
X369500Y217500D02*
Y220500D01*
X360500Y217500D02*
Y220500D01*
X209710Y202000D02*
X216910D01*
X209710Y220000D02*
X216910D01*
X209900Y231000D02*
X217100D01*
X209900Y249000D02*
X217100D01*
D12*
X201750Y281500D02*
Y285500D01*
X255750Y281500D02*
Y285500D01*
Y250500D02*
Y254500D01*
X201750Y250500D02*
Y254500D01*
X237750Y285500D02*
X239250D01*
X236250Y250500D02*
X237750D01*
X236250D02*
Y285500D01*
X201750Y250500D02*
X236250D01*
X237750D02*
X239250D01*
X255750D01*
X239250Y285500D02*
X255750D01*
X236250D02*
X237750D01*
X201750D02*
X236250D01*
D13*
X337251Y259499D02*
Y253501D01*
X341250D01*
X343249D02*
X345249D01*
X344249D01*
Y259499D01*
X343249Y258499D01*
X350500Y222249D02*
X349501Y223249D01*
X347501D01*
X346502Y222249D01*
Y218251D01*
X347501Y217251D01*
X349501D01*
X350500Y218251D01*
X352500Y222249D02*
X353499Y223249D01*
X355499D01*
X356498Y222249D01*
Y221250D01*
X355499Y220250D01*
X354499D01*
X355499D01*
X356498Y219250D01*
Y218251D01*
X355499Y217251D01*
X353499D01*
X352500Y218251D01*
X400000Y171999D02*
X399001Y172999D01*
X397001D01*
X396002Y171999D01*
Y168001D01*
X397001Y167001D01*
X399001D01*
X400000Y168001D01*
X404999Y167001D02*
Y172999D01*
X402000Y170000D01*
X405998D01*
X339750Y185249D02*
X338751Y186249D01*
X336751D01*
X335752Y185249D01*
Y181251D01*
X336751Y180251D01*
X338751D01*
X339750Y181251D01*
X345748Y186249D02*
X341750D01*
Y183250D01*
X343749Y184250D01*
X344749D01*
X345748Y183250D01*
Y181251D01*
X344749Y180251D01*
X342749D01*
X341750Y181251D01*
X182250Y212749D02*
X181251Y213749D01*
X179251D01*
X178252Y212749D01*
Y208751D01*
X179251Y207751D01*
X181251D01*
X182250Y208751D01*
X188248Y213749D02*
X186249Y212749D01*
X184250Y210750D01*
Y208751D01*
X185249Y207751D01*
X187249D01*
X188248Y208751D01*
Y209750D01*
X187249Y210750D01*
X184250D01*
X182500Y240749D02*
X181501Y241749D01*
X179501D01*
X178502Y240749D01*
Y236751D01*
X179501Y235751D01*
X181501D01*
X182500Y236751D01*
X184500Y241749D02*
X188498D01*
Y240749D01*
X184500Y236751D01*
Y235751D01*
X398000Y319249D02*
X397001Y320249D01*
X395001D01*
X394002Y319249D01*
Y315251D01*
X395001Y314251D01*
X397001D01*
X398000Y315251D01*
X400000Y319249D02*
X400999Y320249D01*
X402999D01*
X403998Y319249D01*
Y318250D01*
X402999Y317250D01*
X403998Y316250D01*
Y315251D01*
X402999Y314251D01*
X400999D01*
X400000Y315251D01*
Y316250D01*
X400999Y317250D01*
X400000Y318250D01*
Y319249D01*
X400999Y317250D02*
X402999D01*
X179501Y272249D02*
Y266251D01*
X182500D01*
X183500Y267251D01*
Y271249D01*
X182500Y272249D01*
X179501D01*
X185499Y266251D02*
X187499D01*
X186499D01*
Y272249D01*
X185499Y271249D01*
X430002Y315001D02*
Y320999D01*
X433001D01*
X434000Y319999D01*
Y318000D01*
X433001Y317000D01*
X430002D01*
X432001D02*
X434000Y315001D01*
X436000Y320999D02*
X439998D01*
Y319999D01*
X436000Y316001D01*
Y315001D01*
X428502Y195251D02*
Y201249D01*
X431501D01*
X432500Y200249D01*
Y198250D01*
X431501Y197250D01*
X428502D01*
X430501D02*
X432500Y195251D01*
X434500Y200249D02*
X435499Y201249D01*
X437499D01*
X438498Y200249D01*
Y199250D01*
X437499Y198250D01*
X438498Y197250D01*
Y196251D01*
X437499Y195251D01*
X435499D01*
X434500Y196251D01*
Y197250D01*
X435499Y198250D01*
X434500Y199250D01*
Y200249D01*
X435499Y198250D02*
X437499D01*
X411252Y315001D02*
Y320999D01*
X414251D01*
X415250Y319999D01*
Y318000D01*
X414251Y317000D01*
X411252D01*
X413251D02*
X415250Y315001D01*
X417250Y316001D02*
X418249Y315001D01*
X420249D01*
X421248Y316001D01*
Y319999D01*
X420249Y320999D01*
X418249D01*
X417250Y319999D01*
Y319000D01*
X418249Y318000D01*
X421248D01*
X360502Y267249D02*
Y262251D01*
X361501Y261251D01*
X363501D01*
X364500Y262251D01*
Y267249D01*
X370498D02*
X366500D01*
Y264250D01*
X368499Y265250D01*
X369499D01*
X370498Y264250D01*
Y262251D01*
X369499Y261251D01*
X367499D01*
X366500Y262251D01*
D14*
X294052Y171450D02*
Y176115D01*
Y173783D01*
X301050D01*
X294052Y178448D02*
X301050Y183113D01*
X294052D02*
X301050Y178448D01*
X294052Y188944D02*
Y186612D01*
X295219Y185445D01*
X299884D01*
X301050Y186612D01*
Y188944D01*
X299884Y190111D01*
X295219D01*
X294052Y188944D01*
X286550Y171450D02*
X279552D01*
Y174949D01*
X280719Y176115D01*
X283051D01*
X284217Y174949D01*
Y171450D01*
Y173783D02*
X286550Y176115D01*
X279552Y178448D02*
X286550Y183113D01*
X279552D02*
X286550Y178448D01*
X279552Y185445D02*
Y187778D01*
Y186612D01*
X286550D01*
Y185445D01*
Y187778D01*
M02*
