G04*
G04 #@! TF.GenerationSoftware,Altium Limited,Altium Designer,21.6.1 (37)*
G04*
G04 Layer_Color=32896*
%FSLAX44Y44*%
%MOMM*%
G71*
G04*
G04 #@! TF.SameCoordinates,1B4F0172-D593-43EF-8BA9-2CE0EC5DC862*
G04*
G04*
G04 #@! TF.FilePolarity,Positive*
G04*
G01*
G75*
%ADD10C,0.2000*%
%ADD11C,0.1270*%
%ADD13C,0.1800*%
%ADD14C,0.1700*%
%ADD55C,0.0100*%
G36*
X300358Y156348D02*
X300358Y156348D01*
X300358Y156361D01*
X300357Y156386D01*
X300357Y156412D01*
X300357Y156437D01*
Y156450D01*
X300358Y156348D01*
D02*
G37*
G36*
X306744Y161532D02*
X308636Y160632D01*
X310024Y159062D01*
X310684Y157073D01*
X310598Y156029D01*
X310598Y156029D01*
X310597Y156017D01*
X310585Y155996D01*
X310565Y155982D01*
X310541Y155978D01*
X310530Y155982D01*
X309336Y149544D01*
X309336D01*
X309334Y149532D01*
X309320Y149513D01*
X309300Y149501D01*
X309277Y149499D01*
X309266Y149503D01*
X300433Y152466D01*
X300425Y152469D01*
X300412Y152479D01*
X300402Y152492D01*
X300397Y152508D01*
X300397Y152516D01*
X300358Y156348D01*
X300357Y156451D01*
Y157498D01*
X301179Y159426D01*
X302691Y160877D01*
X304650Y161619D01*
X306744Y161532D01*
D02*
G37*
G36*
X294082Y153194D02*
X294082Y153194D01*
X294082D01*
Y153194D01*
D02*
G37*
G36*
X279162Y123761D02*
X271501Y129348D01*
X272538Y129671D01*
X274557Y130470D01*
X276485Y131470D01*
X278301Y132659D01*
X279162Y133321D01*
Y123761D01*
D02*
G37*
G36*
X291749Y153975D02*
X294082Y153194D01*
X291898Y153014D01*
X287576Y152294D01*
X283359Y151104D01*
X279299Y149457D01*
X275445Y147373D01*
X271843Y144878D01*
X268538Y142002D01*
X265569Y138779D01*
X262973Y135250D01*
X260781Y131456D01*
X259020Y127444D01*
X257710Y123263D01*
X257230Y121125D01*
X256778Y123543D01*
X256722Y128463D01*
X257514Y133320D01*
X259132Y137967D01*
X261526Y142266D01*
X264625Y146087D01*
X268337Y149317D01*
X272551Y151859D01*
X277139Y153637D01*
X281965Y154597D01*
X286884Y154711D01*
X291749Y153975D01*
D02*
G37*
G36*
X271016Y115485D02*
X272215Y114641D01*
X273447Y113847D01*
X274711Y113103D01*
X275354Y112751D01*
Y112751D01*
Y112751D01*
D01*
X274850Y111172D01*
X274064Y107953D01*
X273579Y104676D01*
X273399Y101367D01*
X273525Y98056D01*
X273957Y94771D01*
X274690Y91540D01*
X275719Y88391D01*
X276341Y86855D01*
X275282Y87276D01*
X273211Y88230D01*
X271193Y89292D01*
X269235Y90459D01*
X268288Y91094D01*
X267657Y94194D01*
X267294Y100512D01*
X267837Y106816D01*
X269277Y112978D01*
X270429Y115925D01*
X270429Y115925D01*
X271016Y115485D01*
D02*
G37*
G36*
X286444Y144685D02*
X288336Y144314D01*
X291993Y143090D01*
X295462Y141404D01*
X298683Y139283D01*
X301603Y136764D01*
X304173Y133888D01*
X306349Y130705D01*
X308096Y127266D01*
X309383Y123631D01*
X310190Y119860D01*
X310502Y116016D01*
X310315Y112163D01*
X309973Y110266D01*
Y110266D01*
X309973D01*
X309973Y110266D01*
X309848Y112028D01*
X309251Y115507D01*
X308199Y118877D01*
X306711Y122078D01*
X304813Y125055D01*
X302537Y127754D01*
X299925Y130129D01*
X297022Y132138D01*
X293879Y133746D01*
X290551Y134923D01*
X287096Y135651D01*
X283575Y135915D01*
X281810Y135872D01*
X282608Y136841D01*
X284028Y138912D01*
X285197Y141134D01*
X286098Y143478D01*
X286444Y144685D01*
Y144685D01*
D02*
G37*
G36*
X261039Y118961D02*
X264494Y118000D01*
X266127Y117260D01*
X266127Y117260D01*
X264930Y115428D01*
X262958Y111523D01*
X261588Y107368D01*
X260847Y103057D01*
X260719Y100872D01*
X260719D01*
X259860Y102170D01*
X257896Y104582D01*
X255632Y106716D01*
X253109Y108535D01*
X250369Y110008D01*
X247460Y111109D01*
X244431Y111820D01*
X241336Y112128D01*
X239780Y112128D01*
X241016Y113427D01*
X243858Y115614D01*
X247002Y117338D01*
X250375Y118557D01*
X253894Y119242D01*
X257478Y119378D01*
X261039Y118961D01*
D02*
G37*
G36*
X314701Y147028D02*
X319042Y143563D01*
X322771Y139447D01*
X325792Y134787D01*
X328026Y129702D01*
X329416Y124325D01*
X329925Y118795D01*
X329542Y113254D01*
X328274Y107847D01*
X326157Y102713D01*
X323243Y97985D01*
X319608Y93785D01*
X317478Y92003D01*
X316474Y91276D01*
X314387Y89938D01*
X312225Y88722D01*
X309997Y87633D01*
X308854Y87154D01*
X311193Y88931D01*
X315440Y92987D01*
X319030Y97634D01*
X321883Y102766D01*
X323935Y108268D01*
X325138Y114016D01*
X325466Y119879D01*
X324912Y125725D01*
X323487Y131421D01*
X321225Y136840D01*
X318175Y141858D01*
X314408Y146363D01*
X312281Y148390D01*
X314701Y147028D01*
D02*
G37*
G36*
X298809Y107579D02*
X298400Y104487D01*
X298340Y101368D01*
X298629Y98262D01*
X299263Y95208D01*
X300234Y92244D01*
X301531Y89407D01*
X303137Y86733D01*
X304050Y85467D01*
Y85467D01*
X303325Y85260D01*
X301861Y84897D01*
X300386Y84585D01*
X298900Y84325D01*
X298153Y84221D01*
Y84221D01*
X297116Y85459D01*
X295358Y88169D01*
X293941Y91072D01*
X292887Y94125D01*
X292210Y97284D01*
X291922Y100501D01*
X292026Y103730D01*
X292521Y106922D01*
X292961Y108476D01*
X292961D01*
X293738Y108496D01*
X295291Y108586D01*
X296838Y108743D01*
X298377Y108967D01*
X299142Y109103D01*
X299142Y109103D01*
X298809Y107579D01*
D02*
G37*
G36*
X281070Y110298D02*
X282566Y109839D01*
X284081Y109446D01*
X285611Y109118D01*
X286381Y108979D01*
X286096Y107342D01*
X285786Y104035D01*
X285827Y100713D01*
X286217Y97414D01*
X286952Y94174D01*
X288024Y91030D01*
X289421Y88015D01*
X291127Y85165D01*
X292091Y83812D01*
X291303Y83814D01*
X289729Y83877D01*
X288158Y83997D01*
X286593Y84175D01*
X285815Y84293D01*
X284803Y85694D01*
X283084Y88693D01*
X281688Y91856D01*
X280631Y95147D01*
X279924Y98530D01*
X279576Y101969D01*
X279589Y105426D01*
X279963Y108863D01*
X280329Y110552D01*
Y110552D01*
X281070Y110298D01*
D02*
G37*
D10*
X184200Y324000D02*
G03*
X184200Y324000I-1000J0D01*
G01*
X348575Y222250D02*
G03*
X348575Y222250I-1000J0D01*
G01*
X189700Y336700D02*
X392900D01*
X189700Y285900D02*
X392900D01*
Y336700D01*
X189700Y285900D02*
Y336700D01*
D11*
X280329Y110552D02*
G03*
X286381Y108979I12086J34077D01*
G01*
X280329Y110552D02*
G03*
X285815Y84293I32193J-6978D01*
G01*
X271501Y129348D02*
G03*
X279162Y133321I-5843J20641D01*
G01*
X309973Y110266D02*
G03*
X281810Y135872I-26628J-996D01*
G01*
X309973Y110266D02*
G03*
X286444Y144685I-29236J5266D01*
G01*
X294082Y153194D02*
G03*
X257230Y121125I-9002J-26864D01*
G01*
X294082Y153194D02*
G03*
X257230Y121125I2173J-39705D01*
G01*
X286381Y108979D02*
G03*
X292091Y83812I30896J-6222D01*
G01*
X292961Y108476D02*
G03*
X299142Y109103I-545J36153D01*
G01*
X281810Y135872D02*
G03*
X286444Y144685I-16152J14118D01*
G01*
X266127Y117260D02*
G03*
X239780Y112128I-9565J-21095D01*
G01*
X270429Y115925D02*
G03*
X275354Y112751I21987J28704D01*
G01*
X275354D02*
G03*
X276341Y86855I33861J-11675D01*
G01*
X268288Y91094D02*
G03*
X276341Y86855I23943J35717D01*
G01*
X317478Y92004D02*
G03*
X312281Y148390I-22073J26398D01*
G01*
X266127Y117260D02*
G03*
X260719Y100872I24027J-17015D01*
G01*
X270429Y115925D02*
G03*
X268288Y91094I41018J-16045D01*
G01*
X260719Y100872D02*
G03*
X239780Y112128I-20175J-12426D01*
G01*
X299142Y109103D02*
G03*
X304050Y85467I27036J-6714D01*
G01*
X308854Y87154D02*
G03*
X317478Y92004I-16623J39656D01*
G01*
X292961Y108476D02*
G03*
X298153Y84221I25535J-7217D01*
G01*
X308854Y87154D02*
G03*
X312281Y148390I-22438J31970D01*
G01*
X279162Y123761D02*
Y133321D01*
X271501Y129348D02*
X279162Y123761D01*
X257750Y179250D02*
X328500D01*
X341000Y207250D02*
Y219750D01*
X244750Y207250D02*
Y219750D01*
X325000D02*
X341000D01*
X244750D02*
X260750D01*
D13*
X235501Y224243D02*
X234501Y225243D01*
Y227242D01*
X235501Y228242D01*
X236500D01*
X237500Y227242D01*
Y225243D01*
X238500Y224243D01*
X239499D01*
X240499Y225243D01*
Y227242D01*
X239499Y228242D01*
X234501Y222244D02*
X240499D01*
Y219245D01*
X239499Y218245D01*
X238500D01*
X237500Y219245D01*
Y222244D01*
Y219245D01*
X236500Y218245D01*
X235501D01*
X234501Y219245D01*
Y222244D01*
Y216246D02*
X239499D01*
X240499Y215246D01*
Y213247D01*
X239499Y212247D01*
X234501D01*
X235501Y206249D02*
X234501Y207249D01*
Y209248D01*
X235501Y210248D01*
X236500D01*
X237500Y209248D01*
Y207249D01*
X238500Y206249D01*
X239499D01*
X240499Y207249D01*
Y209248D01*
X239499Y210248D01*
X241499Y204250D02*
Y200251D01*
X234501Y195253D02*
Y197252D01*
X235501Y198252D01*
X239499D01*
X240499Y197252D01*
Y195253D01*
X239499Y194253D01*
X235501D01*
X234501Y195253D01*
Y192253D02*
X239499D01*
X240499Y191254D01*
Y189254D01*
X239499Y188255D01*
X234501D01*
Y186255D02*
Y182257D01*
Y184256D01*
X240499D01*
Y180257D02*
Y178258D01*
Y179258D01*
X234501D01*
X235501Y180257D01*
D14*
X303969Y241615D02*
X302802Y240449D01*
Y238116D01*
X303969Y236950D01*
X305135D01*
X306301Y238116D01*
Y240449D01*
X307467Y241615D01*
X308634D01*
X309800Y240449D01*
Y238116D01*
X308634Y236950D01*
X302802Y243948D02*
X309800D01*
Y247447D01*
X308634Y248613D01*
X307467D01*
X306301Y247447D01*
Y243948D01*
Y247447D01*
X305135Y248613D01*
X303969D01*
X302802Y247447D01*
Y243948D01*
Y250945D02*
X308634D01*
X309800Y252112D01*
Y254444D01*
X308634Y255611D01*
X302802D01*
X303969Y262608D02*
X302802Y261442D01*
Y259109D01*
X303969Y257943D01*
X305135D01*
X306301Y259109D01*
Y261442D01*
X307467Y262608D01*
X308634D01*
X309800Y261442D01*
Y259109D01*
X308634Y257943D01*
X315052Y243365D02*
Y238700D01*
X318551D01*
X317385Y241033D01*
Y242199D01*
X318551Y243365D01*
X320884D01*
X322050Y242199D01*
Y239866D01*
X320884Y238700D01*
X315052Y245698D02*
X319717D01*
X322050Y248030D01*
X319717Y250363D01*
X315052D01*
X266218Y243615D02*
X265052Y242449D01*
Y240116D01*
X266218Y238950D01*
X270884D01*
X272050Y240116D01*
Y242449D01*
X270884Y243615D01*
X268551D01*
Y241283D01*
X272050Y245948D02*
X265052D01*
X272050Y250613D01*
X265052D01*
Y252945D02*
X272050D01*
Y256444D01*
X270884Y257611D01*
X266218D01*
X265052Y256444D01*
Y252945D01*
D55*
X310545Y156033D02*
G03*
X300436Y155948I-5058J417D01*
G01*
X300450Y152517D02*
X309283Y149554D01*
X300411Y156451D02*
X300450Y152517D01*
X309283Y149554D02*
X310562Y156451D01*
M02*
