G04*
G04 #@! TF.GenerationSoftware,Altium Limited,Altium Designer,21.6.1 (37)*
G04*
G04 Layer_Color=65535*
%FSLAX44Y44*%
%MOMM*%
G71*
G04*
G04 #@! TF.SameCoordinates,391FF5D9-400B-44A5-85C8-FE87487BF073*
G04*
G04*
G04 #@! TF.FilePolarity,Positive*
G04*
G01*
G75*
%ADD10C,0.1524*%
%ADD11C,0.2000*%
%ADD12C,0.1500*%
%ADD13C,0.1270*%
%ADD14C,0.2032*%
D10*
X304250Y292827D02*
G03*
X304250Y291303I0J-762D01*
G01*
D02*
G03*
X304250Y292827I0J762D01*
G01*
X269198Y205451D02*
Y280635D01*
Y205451D02*
X283676D01*
X339302D02*
Y280635D01*
X324824D02*
X339302D01*
X269198D02*
X283676D01*
X324824Y205451D02*
X339302D01*
D11*
X396250Y179000D02*
Y183000D01*
X403250Y179000D02*
Y183000D01*
X387250Y196250D02*
Y205250D01*
X331000Y190750D02*
X335000D01*
X331000Y197750D02*
X335000D01*
X354500Y208750D02*
X358500D01*
X354500Y215750D02*
X358500D01*
X354250Y229500D02*
X358250D01*
X354250Y222500D02*
X358250D01*
X348750Y185750D02*
Y189750D01*
X355750Y185750D02*
Y189750D01*
X331250Y178000D02*
X335250D01*
X331250Y185000D02*
X335250D01*
X386250Y179250D02*
Y183250D01*
X379250Y179250D02*
Y183250D01*
X346250Y131000D02*
Y135000D01*
X353250Y131000D02*
Y135000D01*
X340500Y115750D02*
X344500D01*
X340500Y108750D02*
X344500D01*
X313000Y93250D02*
X317000D01*
X313000Y100250D02*
X317000D01*
X340500Y100500D02*
X344500D01*
X340500Y93500D02*
X344500D01*
D12*
X253500Y203500D02*
X288000D01*
X289500D01*
X291000D02*
X307500D01*
X291000Y168500D02*
X307500D01*
X289500D02*
X291000D01*
X253500D02*
X288000D01*
Y203500D01*
Y168500D02*
X289500D01*
Y203500D02*
X291000D01*
X253500Y168500D02*
Y172500D01*
X307500Y168500D02*
Y172500D01*
Y199500D02*
Y203500D01*
X253500Y199500D02*
Y203500D01*
X346585Y159249D02*
Y153417D01*
X347751Y152251D01*
X350084D01*
X351250Y153417D01*
Y159249D01*
X353583Y152251D02*
X355915D01*
X354749D01*
Y159249D01*
X353583Y158083D01*
X413500Y202833D02*
X412334Y203999D01*
X410001D01*
X408835Y202833D01*
Y201666D01*
X410001Y200500D01*
X412334D01*
X413500Y199334D01*
Y198167D01*
X412334Y197001D01*
X410001D01*
X408835Y198167D01*
X415833Y197001D02*
X418165D01*
X416999D01*
Y203999D01*
X415833Y202833D01*
X371001Y218581D02*
X377999D01*
Y215082D01*
X376833Y213916D01*
X374500D01*
X373334Y215082D01*
Y218581D01*
Y216249D02*
X371001Y213916D01*
X377999Y206919D02*
X376833Y209251D01*
X374500Y211584D01*
X372167D01*
X371001Y210417D01*
Y208085D01*
X372167Y206919D01*
X373334D01*
X374500Y208085D01*
Y211584D01*
X358669Y129751D02*
Y136749D01*
X362167D01*
X363334Y135583D01*
Y133250D01*
X362167Y132084D01*
X358669D01*
X361001D02*
X363334Y129751D01*
X370331Y136749D02*
X365666D01*
Y133250D01*
X367999Y134416D01*
X369165D01*
X370331Y133250D01*
Y130917D01*
X369165Y129751D01*
X366833D01*
X365666Y130917D01*
X351669Y235501D02*
Y242499D01*
X355167D01*
X356334Y241333D01*
Y239000D01*
X355167Y237834D01*
X351669D01*
X354001D02*
X356334Y235501D01*
X362165D02*
Y242499D01*
X358666Y239000D01*
X363331D01*
X361751Y192331D02*
X368749D01*
Y188833D01*
X367583Y187666D01*
X365250D01*
X364084Y188833D01*
Y192331D01*
Y189999D02*
X361751Y187666D01*
X367583Y185334D02*
X368749Y184167D01*
Y181835D01*
X367583Y180669D01*
X366416D01*
X365250Y181835D01*
Y183001D01*
Y181835D01*
X364084Y180669D01*
X362917D01*
X361751Y181835D01*
Y184167D01*
X362917Y185334D01*
X337919Y80251D02*
Y87249D01*
X341417D01*
X342584Y86083D01*
Y83750D01*
X341417Y82584D01*
X337919D01*
X340251D02*
X342584Y80251D01*
X349581D02*
X344916D01*
X349581Y84916D01*
Y86083D01*
X348415Y87249D01*
X346083D01*
X344916Y86083D01*
X309835Y80251D02*
Y87249D01*
X313334D01*
X314500Y86083D01*
Y83750D01*
X313334Y82584D01*
X309835D01*
X312167D02*
X314500Y80251D01*
X316833D02*
X319165D01*
X317999D01*
Y87249D01*
X316833Y86083D01*
X262584Y157833D02*
X261417Y158999D01*
X259085D01*
X257918Y157833D01*
Y153167D01*
X259085Y152001D01*
X261417D01*
X262584Y153167D01*
X269581Y152001D02*
X264916D01*
X269581Y156666D01*
Y157833D01*
X268415Y158999D01*
X266083D01*
X264916Y157833D01*
X232757Y153913D02*
X231591Y155080D01*
X229258D01*
X228092Y153913D01*
Y149248D01*
X229258Y148082D01*
X231591D01*
X232757Y149248D01*
X235090Y148082D02*
X237422D01*
X236256D01*
Y155080D01*
X235090Y153913D01*
X285334Y156833D02*
X284167Y157999D01*
X281835D01*
X280669Y156833D01*
Y152168D01*
X281835Y151001D01*
X284167D01*
X285334Y152168D01*
X287666Y156833D02*
X288832Y157999D01*
X291165D01*
X292331Y156833D01*
Y155666D01*
X291165Y154500D01*
X289999D01*
X291165D01*
X292331Y153334D01*
Y152168D01*
X291165Y151001D01*
X288832D01*
X287666Y152168D01*
X232084Y226083D02*
X230917Y227249D01*
X228585D01*
X227418Y226083D01*
Y221418D01*
X228585Y220251D01*
X230917D01*
X232084Y221418D01*
X237915Y220251D02*
Y227249D01*
X234416Y223750D01*
X239081D01*
X255334Y225083D02*
X254167Y226249D01*
X251835D01*
X250669Y225083D01*
Y220417D01*
X251835Y219251D01*
X254167D01*
X255334Y220417D01*
X262331Y226249D02*
X257666D01*
Y222750D01*
X259999Y223916D01*
X261165D01*
X262331Y222750D01*
Y220417D01*
X261165Y219251D01*
X258833D01*
X257666Y220417D01*
X363834Y114083D02*
X362667Y115249D01*
X360335D01*
X359169Y114083D01*
Y109417D01*
X360335Y108251D01*
X362667D01*
X363834Y109417D01*
X370831Y115249D02*
X368499Y114083D01*
X366166Y111750D01*
Y109417D01*
X367333Y108251D01*
X369665D01*
X370831Y109417D01*
Y110584D01*
X369665Y111750D01*
X366166D01*
X364084Y174333D02*
X362917Y175499D01*
X360585D01*
X359418Y174333D01*
Y169667D01*
X360585Y168501D01*
X362917D01*
X364084Y169667D01*
X366416Y175499D02*
X371082D01*
Y174333D01*
X366416Y169667D01*
Y168501D01*
X364584Y202583D02*
X363417Y203749D01*
X361085D01*
X359919Y202583D01*
Y197917D01*
X361085Y196751D01*
X363417D01*
X364584Y197917D01*
X366916Y202583D02*
X368083Y203749D01*
X370415D01*
X371581Y202583D01*
Y201416D01*
X370415Y200250D01*
X371581Y199084D01*
Y197917D01*
X370415Y196751D01*
X368083D01*
X366916Y197917D01*
Y199084D01*
X368083Y200250D01*
X366916Y201416D01*
Y202583D01*
X368083Y200250D02*
X370415D01*
X231835Y190999D02*
Y184001D01*
X235334D01*
X236500Y185167D01*
Y189833D01*
X235334Y190999D01*
X231835D01*
X238832Y184001D02*
X241165D01*
X239999D01*
Y190999D01*
X238832Y189833D01*
X376169Y160001D02*
Y166999D01*
X379668D01*
X380834Y165833D01*
Y163500D01*
X379668Y162334D01*
X376169D01*
X378501D02*
X380834Y160001D01*
X383166Y166999D02*
X387832D01*
Y165833D01*
X383166Y161168D01*
Y160001D01*
X394418Y160001D02*
Y166999D01*
X397917D01*
X399084Y165833D01*
Y163500D01*
X397917Y162334D01*
X394418D01*
X396751D02*
X399084Y160001D01*
X401416Y165833D02*
X402583Y166999D01*
X404915D01*
X406082Y165833D01*
Y164666D01*
X404915Y163500D01*
X406082Y162334D01*
Y161167D01*
X404915Y160001D01*
X402583D01*
X401416Y161167D01*
Y162334D01*
X402583Y163500D01*
X401416Y164666D01*
Y165833D01*
X402583Y163500D02*
X404915D01*
X343085Y260499D02*
Y253501D01*
X347750D01*
X350083D02*
X352415D01*
X351249D01*
Y260499D01*
X350083Y259333D01*
D13*
X248250Y247650D02*
Y254850D01*
X266250Y247650D02*
Y254850D01*
X224750Y247650D02*
Y254850D01*
X242750Y247650D02*
Y254850D01*
X237000Y126500D02*
Y129500D01*
X228000Y126500D02*
Y129500D01*
D14*
X343848Y122152D02*
Y125200D01*
X341816Y122152D02*
X343848D01*
Y163300D02*
Y166348D01*
X341816D02*
X343848D01*
X299652Y122152D02*
Y131296D01*
Y122152D02*
X301684D01*
X299652Y166348D02*
X301684D01*
X299652Y163300D02*
Y166348D01*
M02*
