G04*
G04 #@! TF.GenerationSoftware,Altium Limited,Altium Designer,21.6.1 (37)*
G04*
G04 Layer_Physical_Order=1*
G04 Layer_Color=255*
%FSLAX44Y44*%
%MOMM*%
G71*
G04*
G04 #@! TF.SameCoordinates,4ABF761C-D1B2-43E9-9F85-C7646A4A9D86*
G04*
G04*
G04 #@! TF.FilePolarity,Positive*
G04*
G01*
G75*
%ADD10C,0.2000*%
%ADD14R,0.6000X1.7000*%
%ADD15R,1.0000X2.7000*%
%ADD16R,1.8000X3.8000*%
%ADD17R,0.6000X1.9700*%
%ADD18R,3.0000X2.1300*%
%ADD19R,2.7940X1.9050*%
%ADD20R,1.0000X0.8000*%
%ADD21R,1.8200X1.1500*%
%ADD22R,1.3800X1.8200*%
%ADD23R,0.9300X0.8900*%
%ADD24R,2.2000X2.3000*%
%ADD25R,0.9000X0.7000*%
%ADD42C,0.5000*%
%ADD43C,0.6000*%
%ADD44C,1.0000*%
%ADD45C,0.8000*%
%ADD46C,1.4000*%
%ADD47C,0.3000*%
%ADD48C,1.3700*%
%ADD49R,1.3700X1.3700*%
%ADD50C,0.4000*%
%ADD51C,4.0000*%
%ADD52C,0.7000*%
G36*
X410669Y417451D02*
X407721Y416230D01*
X404167Y413856D01*
X401145Y410833D01*
X398770Y407279D01*
X397134Y403330D01*
X396300Y399137D01*
Y394863D01*
X397134Y390670D01*
X398770Y386721D01*
X401145Y383167D01*
X404167Y380145D01*
X407721Y377770D01*
X411670Y376134D01*
X415863Y375300D01*
X420137D01*
X424330Y376134D01*
X428279Y377770D01*
X431833Y380145D01*
X434856Y383167D01*
X436451Y385555D01*
X439451Y384645D01*
Y315569D01*
X436451Y313967D01*
X434907Y315002D01*
Y318875D01*
X434581Y320514D01*
X433653Y321903D01*
X414278Y341278D01*
X412889Y342206D01*
X411250Y342532D01*
X267450D01*
X265811Y342206D01*
X264422Y341278D01*
X255405Y332261D01*
X254326Y332550D01*
X252074D01*
X249900Y331967D01*
X247950Y330842D01*
X246358Y329250D01*
X245233Y327300D01*
X244650Y325126D01*
Y322874D01*
X245233Y320700D01*
X246358Y318750D01*
X247950Y317158D01*
X249900Y316033D01*
X252074Y315450D01*
X254326D01*
X256500Y316033D01*
X258450Y317158D01*
X260042Y318750D01*
X261167Y320700D01*
X261750Y322874D01*
Y325126D01*
X261461Y326205D01*
X269224Y333968D01*
X272765D01*
X273569Y330968D01*
X273350Y330842D01*
X271758Y329250D01*
X270633Y327300D01*
X270050Y325126D01*
Y322874D01*
X270633Y320700D01*
X271758Y318750D01*
X273350Y317158D01*
X275300Y316033D01*
X277474Y315450D01*
X279725D01*
X281900Y316033D01*
X283850Y317158D01*
X285442Y318750D01*
X286567Y320700D01*
X287150Y322874D01*
Y325126D01*
X286567Y327300D01*
X285442Y329250D01*
X283850Y330842D01*
X283631Y330968D01*
X284435Y333968D01*
X298165D01*
X298969Y330968D01*
X298750Y330842D01*
X297158Y329250D01*
X296033Y327300D01*
X295450Y325126D01*
Y322874D01*
X296033Y320700D01*
X297158Y318750D01*
X298750Y317158D01*
X300700Y316033D01*
X302874Y315450D01*
X305126D01*
X307300Y316033D01*
X309250Y317158D01*
X310842Y318750D01*
X311967Y320700D01*
X312550Y322874D01*
Y325126D01*
X311967Y327300D01*
X310842Y329250D01*
X309250Y330842D01*
X309031Y330968D01*
X309835Y333968D01*
X323565D01*
X324369Y330968D01*
X324150Y330842D01*
X322558Y329250D01*
X321433Y327300D01*
X320850Y325126D01*
Y322874D01*
X321433Y320700D01*
X322558Y318750D01*
X324150Y317158D01*
X326100Y316033D01*
X328274Y315450D01*
X330526D01*
X332700Y316033D01*
X334650Y317158D01*
X336242Y318750D01*
X337367Y320700D01*
X337950Y322874D01*
Y325126D01*
X337367Y327300D01*
X336242Y329250D01*
X334650Y330842D01*
X334431Y330968D01*
X335235Y333968D01*
X348965D01*
X349769Y330968D01*
X349550Y330842D01*
X347958Y329250D01*
X346833Y327300D01*
X346250Y325126D01*
Y322874D01*
X346833Y320700D01*
X347958Y318750D01*
X349550Y317158D01*
X351500Y316033D01*
X353674Y315450D01*
X355925D01*
X358100Y316033D01*
X360050Y317158D01*
X361642Y318750D01*
X362767Y320700D01*
X363350Y322874D01*
Y325126D01*
X362767Y327300D01*
X361642Y329250D01*
X360050Y330842D01*
X359831Y330968D01*
X360635Y333968D01*
X374365D01*
X375169Y330968D01*
X374950Y330842D01*
X373358Y329250D01*
X372233Y327300D01*
X371650Y325126D01*
Y322874D01*
X372233Y320700D01*
X373358Y318750D01*
X374950Y317158D01*
X376900Y316033D01*
X379074Y315450D01*
X381325D01*
X383500Y316033D01*
X385450Y317158D01*
X387042Y318750D01*
X388167Y320700D01*
X388750Y322874D01*
Y325126D01*
X388167Y327300D01*
X387042Y329250D01*
X385450Y330842D01*
X385231Y330968D01*
X386035Y333968D01*
X409476D01*
X426343Y317101D01*
Y312700D01*
X424300D01*
Y302300D01*
X436451D01*
X436700Y302300D01*
X439451Y301699D01*
Y298301D01*
X436451Y297700D01*
X424300D01*
X423950Y297950D01*
Y297950D01*
X411550Y297950D01*
X409171Y296450D01*
X408550Y296450D01*
X397400D01*
Y284150D01*
X401068D01*
Y272300D01*
X400650D01*
Y249200D01*
X410050D01*
Y272300D01*
X409632D01*
Y283259D01*
X410845Y284453D01*
X413023Y285337D01*
X413618Y285171D01*
Y272300D01*
X413350D01*
Y249200D01*
X422750D01*
Y272300D01*
X422182D01*
Y285177D01*
X424300Y287300D01*
X436451D01*
X436700Y287300D01*
X439451Y286699D01*
X439451Y217200D01*
X427300D01*
Y216792D01*
X422750D01*
Y222800D01*
X413350D01*
Y199700D01*
X422750D01*
Y207208D01*
X427300D01*
Y206800D01*
X439451D01*
Y120056D01*
X393945Y74549D01*
X190056Y74549D01*
X144549Y120056D01*
X144549Y388072D01*
X147549Y388669D01*
X148770Y385721D01*
X151145Y382167D01*
X154167Y379145D01*
X157721Y376770D01*
X161670Y375134D01*
X165863Y374300D01*
X170137D01*
X174330Y375134D01*
X178279Y376770D01*
X181833Y379145D01*
X184856Y382167D01*
X187230Y385721D01*
X188866Y389671D01*
X189700Y393863D01*
Y398138D01*
X188866Y402330D01*
X187230Y406279D01*
X184856Y409833D01*
X181833Y412856D01*
X178279Y415230D01*
X174330Y416866D01*
X171390Y417451D01*
X171685Y420451D01*
X410072D01*
X410669Y417451D01*
D02*
G37*
%LPC*%
G36*
X212550Y342513D02*
X189000D01*
X187751Y342264D01*
X186693Y341557D01*
X158836Y313700D01*
X158066D01*
X156154Y312908D01*
X154692Y311446D01*
X153900Y309534D01*
Y307466D01*
X154692Y305554D01*
X156154Y304092D01*
X158066Y303300D01*
X160134D01*
X162045Y304092D01*
X163508Y305554D01*
X164300Y307466D01*
Y309534D01*
X164182Y309818D01*
X190351Y335987D01*
X211198D01*
X219852Y327334D01*
X219833Y327300D01*
X219250Y325126D01*
Y322874D01*
X219833Y320700D01*
X220958Y318750D01*
X222550Y317158D01*
X224500Y316033D01*
X226674Y315450D01*
X228925D01*
X231100Y316033D01*
X233050Y317158D01*
X234642Y318750D01*
X235767Y320700D01*
X236350Y322874D01*
Y325126D01*
X235767Y327300D01*
X234642Y329250D01*
X233050Y330842D01*
X231100Y331967D01*
X228925Y332550D01*
X226674D01*
X224500Y331967D01*
X224466Y331948D01*
X214857Y341557D01*
X213798Y342264D01*
X212550Y342513D01*
D02*
G37*
G36*
X230850Y307375D02*
X229325Y307174D01*
X227800Y307375D01*
X225529Y307076D01*
X223412Y306199D01*
X221595Y304805D01*
X220201Y302987D01*
X219324Y300871D01*
X219025Y298600D01*
Y252476D01*
X216524Y249976D01*
X216149Y249413D01*
X216017Y248750D01*
Y192750D01*
X216149Y192087D01*
X216524Y191524D01*
X217087Y191149D01*
X217750Y191017D01*
X234250D01*
X234913Y191149D01*
X235476Y191524D01*
X246218Y202267D01*
X323250D01*
X323913Y202399D01*
X324476Y202774D01*
X324851Y203337D01*
X324983Y204000D01*
Y226750D01*
X324923Y227053D01*
X324873Y227358D01*
X324668Y227906D01*
X324505Y228169D01*
X324351Y228437D01*
X324327Y228456D01*
X324311Y228481D01*
X324060Y228662D01*
X323816Y228851D01*
X323787Y228859D01*
X323762Y228876D01*
X323461Y228947D01*
X323163Y229028D01*
X251767Y233935D01*
X236575Y249126D01*
Y289825D01*
X253200D01*
X255471Y290124D01*
X257587Y291000D01*
X259405Y292395D01*
X260799Y294212D01*
X261676Y296329D01*
X261975Y298600D01*
X261676Y300871D01*
X260799Y302987D01*
X259405Y304805D01*
X257587Y306199D01*
X255471Y307076D01*
X253200Y307375D01*
X230850D01*
X230850Y307375D01*
D02*
G37*
G36*
X355925Y307150D02*
X353674D01*
X351500Y306567D01*
X349550Y305442D01*
X347958Y303850D01*
X346833Y301900D01*
X346250Y299725D01*
Y297474D01*
X346833Y295300D01*
X347958Y293350D01*
X349550Y291758D01*
X351500Y290632D01*
X353674Y290050D01*
X355925D01*
X358100Y290632D01*
X360050Y291758D01*
X361642Y293350D01*
X362767Y295300D01*
X363350Y297474D01*
Y299725D01*
X362767Y301900D01*
X361642Y303850D01*
X360050Y305442D01*
X358100Y306567D01*
X355925Y307150D01*
D02*
G37*
G36*
X330526D02*
X328274D01*
X326100Y306567D01*
X324150Y305442D01*
X322558Y303850D01*
X321433Y301900D01*
X320850Y299725D01*
Y297474D01*
X321433Y295300D01*
X322558Y293350D01*
X324150Y291758D01*
X326100Y290632D01*
X328274Y290050D01*
X330526D01*
X332700Y290632D01*
X334650Y291758D01*
X336242Y293350D01*
X337367Y295300D01*
X337950Y297474D01*
Y299725D01*
X337367Y301900D01*
X336242Y303850D01*
X334650Y305442D01*
X332700Y306567D01*
X330526Y307150D01*
D02*
G37*
G36*
X305126D02*
X302874D01*
X300700Y306567D01*
X298750Y305442D01*
X297158Y303850D01*
X296033Y301900D01*
X295450Y299725D01*
Y297474D01*
X296033Y295300D01*
X297158Y293350D01*
X298750Y291758D01*
X300700Y290632D01*
X302874Y290050D01*
X305126D01*
X307300Y290632D01*
X309250Y291758D01*
X310842Y293350D01*
X311967Y295300D01*
X312550Y297474D01*
Y299725D01*
X311967Y301900D01*
X310842Y303850D01*
X309250Y305442D01*
X307300Y306567D01*
X305126Y307150D01*
D02*
G37*
G36*
X279725D02*
X277474D01*
X275300Y306567D01*
X273350Y305442D01*
X271758Y303850D01*
X270633Y301900D01*
X270050Y299725D01*
Y297474D01*
X270633Y295300D01*
X271758Y293350D01*
X273350Y291758D01*
X275300Y290632D01*
X277474Y290050D01*
X279725D01*
X281900Y290632D01*
X283850Y291758D01*
X285442Y293350D01*
X286567Y295300D01*
X287150Y297474D01*
Y299725D01*
X286567Y301900D01*
X285442Y303850D01*
X283850Y305442D01*
X281900Y306567D01*
X279725Y307150D01*
D02*
G37*
G36*
X293250Y281483D02*
X242250D01*
X241923Y281418D01*
X241596Y281355D01*
X241592Y281352D01*
X241587Y281351D01*
X241360Y281200D01*
X240550D01*
Y279921D01*
X240517Y279760D01*
X240356Y253295D01*
X240357Y253295D01*
X240356Y253294D01*
X240420Y252964D01*
X240484Y252631D01*
X240485Y252631D01*
X240485Y252630D01*
X240667Y252355D01*
X240857Y252066D01*
X240857Y252066D01*
X240857Y252066D01*
X242967Y249933D01*
X242968Y249933D01*
X242968Y249932D01*
X243260Y249735D01*
X243528Y249554D01*
X243528Y249554D01*
X243529Y249554D01*
X243867Y249485D01*
X244190Y249419D01*
X244191Y249419D01*
X244191Y249419D01*
X366367Y248847D01*
X367508Y246073D01*
X362693Y241257D01*
X361986Y240199D01*
X361738Y238950D01*
Y233200D01*
X358300D01*
Y221800D01*
X371700D01*
Y233200D01*
X368263D01*
Y237599D01*
X379450Y248786D01*
X381366Y248777D01*
X381368Y248777D01*
X381370Y248777D01*
X381696Y248841D01*
X382029Y248906D01*
X382031Y248907D01*
X382033Y248907D01*
X382309Y249090D01*
X382475Y249200D01*
X384650D01*
Y251325D01*
X384723Y251398D01*
X384724Y251399D01*
X384726Y251401D01*
X384913Y251681D01*
X385100Y251959D01*
X385100Y251961D01*
X385101Y251963D01*
X385167Y252295D01*
X385233Y252622D01*
X385233Y252624D01*
X385233Y252626D01*
Y271500D01*
X385181Y271765D01*
X385149Y272032D01*
X385115Y272094D01*
X385101Y272163D01*
X384952Y272388D01*
X384820Y272623D01*
X384765Y272667D01*
X384726Y272726D01*
X384501Y272875D01*
X384290Y273043D01*
X384222Y273062D01*
X384163Y273101D01*
X383899Y273154D01*
X383639Y273228D01*
X321669Y278225D01*
X293448Y281472D01*
X293348Y281464D01*
X293250Y281483D01*
D02*
G37*
G36*
X384650Y222800D02*
X375250D01*
Y213762D01*
X371700D01*
Y216200D01*
X358300D01*
Y204800D01*
X371700D01*
Y207237D01*
X375250D01*
Y199700D01*
X384650D01*
Y222800D01*
D02*
G37*
G36*
X410050D02*
X400650D01*
Y199700D01*
X410050D01*
Y222800D01*
D02*
G37*
G36*
X397350D02*
X387950D01*
Y211713D01*
X387858Y211250D01*
Y194463D01*
X263493Y193983D01*
X263284Y193941D01*
X263070Y193929D01*
X262955Y193874D01*
X262831Y193849D01*
X262653Y193729D01*
X262460Y193637D01*
X245460Y180887D01*
X245377Y180794D01*
X245274Y180726D01*
X245154Y180545D01*
X245009Y180383D01*
X244967Y180266D01*
X244899Y180163D01*
X244856Y179950D01*
X244784Y179745D01*
X244791Y179622D01*
X244767Y179500D01*
Y140500D01*
X244800Y140334D01*
Y138800D01*
X246332D01*
X246500Y138767D01*
X271500D01*
X271668Y138800D01*
X274000Y138800D01*
X276200Y138800D01*
X279800D01*
X280397Y135800D01*
X280054Y135658D01*
X278592Y134196D01*
X277800Y132284D01*
X277800Y130468D01*
X277728Y130092D01*
X275491Y127950D01*
X273332Y127950D01*
X266550D01*
Y109653D01*
X264349Y108884D01*
X263450Y109814D01*
Y127950D01*
X254050D01*
Y107550D01*
X254050Y107550D01*
X254019Y104563D01*
X253800Y104034D01*
Y101966D01*
X254592Y100054D01*
X256054Y98592D01*
X257966Y97800D01*
X260034D01*
X261946Y98592D01*
X263408Y100054D01*
X263553Y100404D01*
X266800D01*
X266842Y100304D01*
X268304Y98842D01*
X270216Y98050D01*
X272284D01*
X274195Y98842D01*
X275658Y100304D01*
X276450Y102216D01*
Y104284D01*
X276283Y104688D01*
X275950Y107550D01*
X275950Y107550D01*
X275950Y107550D01*
Y123740D01*
X276857Y124482D01*
X278950Y125075D01*
X279050Y124921D01*
Y107550D01*
X288450D01*
Y122470D01*
X291450Y123889D01*
X291550Y123807D01*
Y107550D01*
X300950D01*
Y127812D01*
X301200Y128416D01*
Y130484D01*
X300408Y132396D01*
X298946Y133858D01*
X297034Y134650D01*
X295095D01*
X294690Y135073D01*
X293302Y137208D01*
X294581Y138800D01*
X303200D01*
Y169200D01*
X291200D01*
X289800Y169200D01*
Y169200D01*
X288200D01*
Y169200D01*
X276349D01*
X273497Y171660D01*
X273785Y176267D01*
X394250D01*
X394913Y176399D01*
X395476Y176774D01*
X395851Y177337D01*
X395983Y178000D01*
Y188456D01*
X396038Y188511D01*
X396039Y188512D01*
X397077Y190066D01*
X397442Y191900D01*
Y211250D01*
X397350Y211713D01*
Y222800D01*
D02*
G37*
G36*
X412137Y148700D02*
X407863D01*
X403671Y147866D01*
X399721Y146230D01*
X396167Y143855D01*
X393145Y140833D01*
X390770Y137279D01*
X389134Y133330D01*
X388300Y129137D01*
Y124863D01*
X389134Y120670D01*
X390770Y116721D01*
X393145Y113167D01*
X396167Y110145D01*
X399721Y107770D01*
X403671Y106134D01*
X407863Y105300D01*
X412137D01*
X416330Y106134D01*
X420279Y107770D01*
X423833Y110145D01*
X426856Y113167D01*
X429230Y116721D01*
X430866Y120670D01*
X431700Y124863D01*
Y129137D01*
X430866Y133330D01*
X429230Y137279D01*
X426856Y140833D01*
X423833Y143855D01*
X420279Y146230D01*
X416330Y147866D01*
X412137Y148700D01*
D02*
G37*
G36*
X178137Y146700D02*
X173863D01*
X169671Y145866D01*
X165721Y144230D01*
X162167Y141855D01*
X159145Y138833D01*
X156770Y135279D01*
X155134Y131330D01*
X154300Y127137D01*
Y122863D01*
X155134Y118670D01*
X156770Y114721D01*
X159145Y111167D01*
X162167Y108145D01*
X165721Y105770D01*
X169671Y104134D01*
X173863Y103300D01*
X178137D01*
X182330Y104134D01*
X186279Y105770D01*
X189833Y108145D01*
X192856Y111167D01*
X195230Y114721D01*
X196866Y118670D01*
X197700Y122863D01*
Y127137D01*
X196866Y131330D01*
X195230Y135279D01*
X192856Y138833D01*
X189833Y141855D01*
X186279Y144230D01*
X182330Y145866D01*
X178137Y146700D01*
D02*
G37*
G36*
X313450Y127950D02*
X304050D01*
Y107550D01*
X304050Y107550D01*
X304074Y104550D01*
X303550Y103284D01*
Y101216D01*
X304342Y99305D01*
X305804Y97842D01*
X307716Y97050D01*
X309784D01*
X311695Y97842D01*
X313158Y99305D01*
X313950Y101216D01*
Y103284D01*
X313426Y104550D01*
X313450Y107550D01*
X313450D01*
Y127950D01*
D02*
G37*
%LPD*%
G36*
X234750Y248500D02*
X251000Y232250D01*
X323045Y227299D01*
X323250Y226750D01*
Y204000D01*
X245500D01*
X234250Y192750D01*
X217750D01*
Y248750D01*
X221250Y252250D01*
X234750D01*
Y248500D01*
D02*
G37*
G36*
X321500Y276500D02*
X383500Y271500D01*
Y252626D01*
X381374Y250510D01*
X244200Y251152D01*
X242090Y253285D01*
X242250Y279750D01*
X293250D01*
X321500Y276500D01*
D02*
G37*
G36*
X394250Y190164D02*
Y178000D01*
X272156D01*
X271500Y167500D01*
Y140500D01*
X246500D01*
Y179500D01*
X263500Y192250D01*
X391250Y192742D01*
X394250Y190164D01*
D02*
G37*
D10*
X419750Y292250D02*
X420000Y292500D01*
D14*
X258750Y117750D02*
D03*
X271250D02*
D03*
X283750D02*
D03*
X296250D02*
D03*
X308750D02*
D03*
X321250D02*
D03*
D15*
X339750Y85750D02*
D03*
X240250D02*
D03*
X251500Y154000D02*
D03*
X266500D02*
D03*
X281500D02*
D03*
X296500D02*
D03*
X311500D02*
D03*
X326500D02*
D03*
D16*
X229000Y107000D02*
D03*
X349000D02*
D03*
D17*
X379950Y211250D02*
D03*
X392650D02*
D03*
X405350D02*
D03*
X418050D02*
D03*
Y260750D02*
D03*
X405350D02*
D03*
X392650D02*
D03*
X379950D02*
D03*
D18*
X399000Y236000D02*
D03*
D19*
X307500Y266150D02*
D03*
Y215350D02*
D03*
D20*
X365000Y227500D02*
D03*
Y210500D02*
D03*
D21*
X383000Y185850D02*
D03*
Y156150D02*
D03*
X360000Y185850D02*
D03*
Y156150D02*
D03*
D22*
X199620Y211000D02*
D03*
X227000D02*
D03*
X199810Y240000D02*
D03*
X227190D02*
D03*
D23*
X403750Y305700D02*
D03*
Y290300D02*
D03*
D24*
X204250Y268000D02*
D03*
X253250D02*
D03*
D25*
X430500Y292500D02*
D03*
Y307500D02*
D03*
X433500Y227000D02*
D03*
Y212000D02*
D03*
X417750Y307750D02*
D03*
Y292750D02*
D03*
D42*
X267450Y338250D02*
X411250D01*
X253200Y324000D02*
X267450Y338250D01*
X411250D02*
X430625Y318875D01*
X417900Y291900D02*
X418500Y292500D01*
X417875Y292625D02*
X430875D01*
X417750Y292750D02*
X417875Y292625D01*
X430875D02*
X431000Y292750D01*
X417900Y260900D02*
Y291900D01*
Y260900D02*
X418050Y260750D01*
X430625Y307625D02*
X431250Y307000D01*
X430625Y307625D02*
Y318875D01*
X227000Y211000D02*
X227125Y210875D01*
Y196875D02*
Y210875D01*
Y196875D02*
X227250Y196750D01*
X405350Y260750D02*
Y289150D01*
X308750Y102250D02*
Y117750D01*
D43*
X392650Y260750D02*
Y283100D01*
X380750Y295000D02*
X392650Y283100D01*
Y238350D02*
Y260750D01*
Y238350D02*
X393250Y237750D01*
X419500Y212000D02*
X433500D01*
X418750Y211250D02*
X419500Y212000D01*
X390250Y189500D02*
X392650Y191900D01*
Y211250D01*
X382650Y187350D02*
X383000Y187000D01*
X321250Y116250D02*
Y117750D01*
Y116250D02*
X339000Y98500D01*
X321250Y117750D02*
Y140250D01*
D44*
X317150Y156150D02*
X383000D01*
X243500Y85750D02*
X339750D01*
X240250D02*
X243500D01*
X240250Y89000D02*
Y93000D01*
Y85750D02*
Y89000D01*
X236250Y93000D02*
X240250D01*
X233000D02*
X236250D01*
X227000Y99000D02*
Y109000D01*
X349000Y107000D02*
Y117000D01*
X384000Y152000D01*
Y154000D01*
X227000Y99000D02*
X233000Y93000D01*
X339000Y92000D02*
Y98500D01*
X321250Y140250D02*
X323000Y142000D01*
X316000Y155000D02*
X317150Y156150D01*
D45*
X372500Y140250D02*
X395250Y163000D01*
X337250Y78500D02*
X372500Y113750D01*
X243500Y85750D02*
X250750Y78500D01*
X240250Y89000D02*
X243500Y85750D01*
X236250Y93000D02*
X240250Y89000D01*
X229000Y100250D02*
X236250Y93000D01*
X229000Y100250D02*
Y132500D01*
X202400Y159100D02*
Y298600D01*
X372500Y113750D02*
Y140250D01*
X250750Y78500D02*
X337250D01*
X202400Y159100D02*
X229000Y132500D01*
X366242Y311300D02*
X378942Y298600D01*
X222389Y311150D02*
X222539Y311300D01*
X366242D01*
X216492Y311150D02*
X222389D01*
X387450Y305700D02*
X403750D01*
X382250Y300500D02*
X387450Y305700D01*
X406250Y307250D02*
X417250D01*
X417750Y307750D01*
X404250Y305250D02*
X406250Y307250D01*
X423500Y237000D02*
X433500Y227000D01*
X412750Y237000D02*
X423500D01*
X358850Y185850D02*
X383000D01*
X204000Y322400D02*
X215250Y311150D01*
X203842Y298500D02*
X216492Y311150D01*
X203250Y298500D02*
X203842D01*
X215250Y311150D02*
X216492D01*
X268850Y185850D02*
X358850D01*
X360000D01*
X259000Y176000D02*
X268850Y185850D01*
X358850D02*
X358850Y185850D01*
X259000Y149000D02*
Y176000D01*
D46*
X228500Y296250D02*
X230850Y298600D01*
X227800Y232450D02*
Y298600D01*
X245000Y215250D02*
X308000D01*
X227800Y232450D02*
X245000Y215250D01*
X230850Y298600D02*
X253200D01*
X308000Y215250D02*
X309250Y214000D01*
D47*
X258750Y117750D02*
X258875Y117625D01*
Y103125D02*
Y117625D01*
Y103125D02*
X259000Y103000D01*
X159100Y309350D02*
X189000Y339250D01*
X159100Y308500D02*
Y309350D01*
X189000Y339250D02*
X212550D01*
X227800Y324000D01*
X379250Y210500D02*
X380000Y211250D01*
X365000Y210500D02*
X379250D01*
X405250Y289250D02*
X405350Y289150D01*
X303750Y268000D02*
X304750Y267000D01*
X253250Y268000D02*
X303750D01*
X314250Y266470D02*
X319970Y260750D01*
X314250Y266470D02*
Y267250D01*
X319970Y260750D02*
X379950D01*
X365000Y238950D02*
X378750Y252700D01*
X365000Y227500D02*
Y238950D01*
X378750Y252700D02*
Y256000D01*
X296000Y118000D02*
Y129450D01*
Y118000D02*
X296250Y117750D01*
X271250Y103250D02*
Y117750D01*
Y102250D02*
Y103250D01*
X283000Y124750D02*
Y131250D01*
Y124750D02*
X283750Y117750D01*
X283600Y132600D02*
X296500Y145500D01*
Y154000D01*
D48*
X380200Y298600D02*
D03*
Y324000D02*
D03*
X354800Y298600D02*
D03*
Y324000D02*
D03*
X329400Y298600D02*
D03*
Y324000D02*
D03*
X304000Y298600D02*
D03*
Y324000D02*
D03*
X278600Y298600D02*
D03*
Y324000D02*
D03*
X253200Y298600D02*
D03*
Y324000D02*
D03*
X227800Y298600D02*
D03*
Y324000D02*
D03*
X202400Y298600D02*
D03*
D49*
Y324000D02*
D03*
D50*
X399000Y243500D02*
D03*
Y228500D02*
D03*
X384000D02*
D03*
Y243500D02*
D03*
X414000D02*
D03*
Y228500D02*
D03*
D51*
X418000Y397000D02*
D03*
X410000Y127000D02*
D03*
X176000Y125000D02*
D03*
X168000Y396000D02*
D03*
D52*
X432000Y362000D02*
D03*
Y334000D02*
D03*
Y278000D02*
D03*
Y250000D02*
D03*
Y194000D02*
D03*
Y166000D02*
D03*
X418000Y362000D02*
D03*
X425000Y348000D02*
D03*
Y236000D02*
D03*
X418000Y194000D02*
D03*
X425000Y180000D02*
D03*
X418000Y166000D02*
D03*
X425000Y152000D02*
D03*
X404000Y362000D02*
D03*
X411000Y348000D02*
D03*
Y320000D02*
D03*
X404000Y194000D02*
D03*
X411000Y180000D02*
D03*
X404000Y166000D02*
D03*
X390000Y390000D02*
D03*
X397000Y376000D02*
D03*
X390000Y362000D02*
D03*
X397000Y348000D02*
D03*
Y320000D02*
D03*
X390000Y306000D02*
D03*
Y278000D02*
D03*
X397000Y152000D02*
D03*
X390000Y110000D02*
D03*
X397000Y96000D02*
D03*
X390000Y82000D02*
D03*
X383000Y404000D02*
D03*
X376000Y390000D02*
D03*
X383000Y376000D02*
D03*
X376000Y362000D02*
D03*
X383000Y348000D02*
D03*
X376000Y278000D02*
D03*
Y138000D02*
D03*
X383000Y124000D02*
D03*
X376000Y110000D02*
D03*
X383000Y96000D02*
D03*
X376000Y82000D02*
D03*
X369000Y404000D02*
D03*
X362000Y390000D02*
D03*
X369000Y376000D02*
D03*
X362000Y362000D02*
D03*
X369000Y348000D02*
D03*
X362000Y138000D02*
D03*
X369000Y124000D02*
D03*
Y96000D02*
D03*
X362000Y82000D02*
D03*
X355000Y404000D02*
D03*
X348000Y390000D02*
D03*
X355000Y376000D02*
D03*
X348000Y362000D02*
D03*
X355000Y348000D02*
D03*
X348000Y166000D02*
D03*
Y138000D02*
D03*
X341000Y404000D02*
D03*
X334000Y390000D02*
D03*
X341000Y376000D02*
D03*
X334000Y362000D02*
D03*
X341000Y348000D02*
D03*
Y320000D02*
D03*
Y292000D02*
D03*
Y236000D02*
D03*
Y152000D02*
D03*
X334000Y110000D02*
D03*
X327000Y404000D02*
D03*
X320000Y390000D02*
D03*
X327000Y376000D02*
D03*
X320000Y362000D02*
D03*
X327000Y348000D02*
D03*
Y236000D02*
D03*
Y96000D02*
D03*
X320000Y82000D02*
D03*
X313000Y404000D02*
D03*
X306000Y390000D02*
D03*
X313000Y376000D02*
D03*
X306000Y362000D02*
D03*
Y82000D02*
D03*
X299000Y404000D02*
D03*
X292000Y390000D02*
D03*
X299000Y376000D02*
D03*
X292000Y362000D02*
D03*
Y306000D02*
D03*
X299000Y236000D02*
D03*
Y96000D02*
D03*
X292000Y82000D02*
D03*
X285000Y404000D02*
D03*
X278000Y390000D02*
D03*
X285000Y376000D02*
D03*
X278000Y362000D02*
D03*
X285000Y96000D02*
D03*
X278000Y82000D02*
D03*
X271000Y404000D02*
D03*
X264000Y390000D02*
D03*
X271000Y376000D02*
D03*
X264000Y362000D02*
D03*
Y82000D02*
D03*
X257000Y404000D02*
D03*
X250000Y390000D02*
D03*
X257000Y376000D02*
D03*
X250000Y362000D02*
D03*
X243000Y404000D02*
D03*
X236000Y390000D02*
D03*
X243000Y376000D02*
D03*
X236000Y362000D02*
D03*
X229000Y404000D02*
D03*
X222000Y390000D02*
D03*
X229000Y376000D02*
D03*
X222000Y362000D02*
D03*
Y82000D02*
D03*
X215000Y404000D02*
D03*
X208000Y390000D02*
D03*
X215000Y376000D02*
D03*
X208000Y362000D02*
D03*
X215000Y320000D02*
D03*
Y292000D02*
D03*
X208000Y138000D02*
D03*
X215000Y124000D02*
D03*
X208000Y110000D02*
D03*
X215000Y96000D02*
D03*
X208000Y82000D02*
D03*
X201000Y404000D02*
D03*
X194000Y390000D02*
D03*
X201000Y376000D02*
D03*
X194000Y362000D02*
D03*
X201000Y96000D02*
D03*
X194000Y82000D02*
D03*
X187000Y376000D02*
D03*
X180000Y362000D02*
D03*
X187000Y320000D02*
D03*
X180000Y306000D02*
D03*
X187000Y292000D02*
D03*
X180000Y278000D02*
D03*
X187000Y264000D02*
D03*
X180000Y250000D02*
D03*
X187000Y236000D02*
D03*
X180000Y166000D02*
D03*
X187000Y152000D02*
D03*
Y96000D02*
D03*
X166000Y362000D02*
D03*
Y166000D02*
D03*
X173000Y152000D02*
D03*
X152000Y362000D02*
D03*
X159000Y348000D02*
D03*
X152000Y334000D02*
D03*
Y194000D02*
D03*
X159000Y180000D02*
D03*
X152000Y166000D02*
D03*
X159000Y152000D02*
D03*
X152000Y138000D02*
D03*
X227250Y196750D02*
D03*
X259000Y103000D02*
D03*
X159100Y308500D02*
D03*
X296000Y129450D02*
D03*
X282000Y147000D02*
D03*
X283000Y131250D02*
D03*
X308750Y102250D02*
D03*
X271250Y103250D02*
D03*
M02*
