G04*
G04 #@! TF.GenerationSoftware,Altium Limited,Altium Designer,21.6.1 (37)*
G04*
G04 Layer_Color=16711935*
%FSLAX44Y44*%
%MOMM*%
G71*
G04*
G04 #@! TF.SameCoordinates,8F68B78F-6856-49D9-AD19-5A0884BD1E45*
G04*
G04*
G04 #@! TF.FilePolarity,Negative*
G04*
G01*
G75*
%ADD35C,2.6000*%
G04:AMPARAMS|DCode=36|XSize=2.6mm|YSize=2.6mm|CornerRadius=0.46mm|HoleSize=0mm|Usage=FLASHONLY|Rotation=270.000|XOffset=0mm|YOffset=0mm|HoleType=Round|Shape=RoundedRectangle|*
%AMROUNDEDRECTD36*
21,1,2.6000,1.6800,0,0,270.0*
21,1,1.6800,2.6000,0,0,270.0*
1,1,0.9200,-0.8400,-0.8400*
1,1,0.9200,-0.8400,0.8400*
1,1,0.9200,0.8400,0.8400*
1,1,0.9200,0.8400,-0.8400*
%
%ADD36ROUNDEDRECTD36*%
%ADD37C,1.8000*%
%ADD38R,1.5700X1.5700*%
%ADD39C,1.5700*%
%ADD40C,4.2000*%
%ADD58R,1.2000X2.9000*%
%ADD59R,2.0000X4.0000*%
%ADD60R,1.9000X0.8000*%
%ADD61R,2.9000X1.2000*%
D35*
X267250Y353000D02*
D03*
D36*
X316250D02*
D03*
D37*
X236770Y403038D02*
D03*
X346498Y402530D02*
D03*
D38*
X202400Y324000D02*
D03*
D39*
Y298600D02*
D03*
X227800Y324000D02*
D03*
Y298600D02*
D03*
X253200Y324000D02*
D03*
Y298600D02*
D03*
X278600Y324000D02*
D03*
Y298600D02*
D03*
X304000Y324000D02*
D03*
Y298600D02*
D03*
X329400Y324000D02*
D03*
Y298600D02*
D03*
X354800Y324000D02*
D03*
Y298600D02*
D03*
X380200Y324000D02*
D03*
Y298600D02*
D03*
D40*
X418000Y397000D02*
D03*
X410000Y127000D02*
D03*
X176000Y125000D02*
D03*
X168000Y396000D02*
D03*
D58*
X330500Y154500D02*
D03*
X315500D02*
D03*
X300500D02*
D03*
X285500D02*
D03*
X270500D02*
D03*
X255500D02*
D03*
D59*
X353000Y107500D02*
D03*
X233000D02*
D03*
D60*
X190000Y193000D02*
D03*
Y205500D02*
D03*
Y218000D02*
D03*
Y230500D02*
D03*
Y243000D02*
D03*
Y255500D02*
D03*
X392250Y255250D02*
D03*
Y242750D02*
D03*
Y230250D02*
D03*
Y217750D02*
D03*
Y205250D02*
D03*
D61*
X158000Y274000D02*
D03*
Y174500D02*
D03*
X424250Y186750D02*
D03*
Y273750D02*
D03*
M02*
