G04*
G04 #@! TF.GenerationSoftware,Altium Limited,Altium Designer,21.6.1 (37)*
G04*
G04 Layer_Physical_Order=2*
G04 Layer_Color=16711680*
%FSLAX44Y44*%
%MOMM*%
G71*
G04*
G04 #@! TF.SameCoordinates,5872C4F4-FB42-489D-B6BF-DE351544A3BA*
G04*
G04*
G04 #@! TF.FilePolarity,Positive*
G04*
G01*
G75*
%ADD10C,0.2000*%
%ADD30R,0.5600X0.6000*%
%ADD64C,0.6000*%
%ADD75C,0.3000*%
%ADD76C,0.6000*%
%ADD77C,1.0000*%
%ADD78C,0.5000*%
%ADD79C,0.4000*%
%ADD81C,7.0000*%
%ADD82C,0.4000*%
G04:AMPARAMS|DCode=83|XSize=2.4mm|YSize=2.4mm|CornerRadius=0.6mm|HoleSize=0mm|Usage=FLASHONLY|Rotation=90.000|XOffset=0mm|YOffset=0mm|HoleType=Round|Shape=RoundedRectangle|*
%AMROUNDEDRECTD83*
21,1,2.4000,1.2000,0,0,90.0*
21,1,1.2000,2.4000,0,0,90.0*
1,1,1.2000,0.6000,0.6000*
1,1,1.2000,0.6000,-0.6000*
1,1,1.2000,-0.6000,-0.6000*
1,1,1.2000,-0.6000,0.6000*
%
%ADD83ROUNDEDRECTD83*%
%ADD84C,2.4000*%
%ADD85C,1.6000*%
%ADD86O,0.9000X1.8000*%
%ADD87O,1.5000X0.9000*%
%ADD88C,0.8500*%
%ADD89C,1.3700*%
%ADD90R,1.3700X1.3700*%
%ADD91C,0.7000*%
G36*
X445194Y420451D02*
X475701Y389944D01*
X475701Y-45944D01*
X423694Y-97951D01*
X170805Y-97951D01*
X119798Y-46944D01*
X119799Y395944D01*
X144306Y420451D01*
X445194Y420451D01*
D02*
G37*
%LPC*%
G36*
X395250Y360023D02*
X395250Y360023D01*
X285550D01*
X285550Y360023D01*
X284106Y359735D01*
X282882Y358918D01*
X282882Y358918D01*
X255973Y332009D01*
X254326Y332450D01*
X252074D01*
X249900Y331867D01*
X247950Y330742D01*
X246358Y329150D01*
X245233Y327200D01*
X244650Y325026D01*
Y322774D01*
X245233Y320600D01*
X246358Y318650D01*
X246722Y318286D01*
X246236Y317113D01*
X234764D01*
X234278Y318286D01*
X234642Y318650D01*
X235767Y320600D01*
X236350Y322774D01*
Y325026D01*
X235767Y327200D01*
X234642Y329150D01*
X233050Y330742D01*
X231100Y331867D01*
X228926Y332450D01*
X226674D01*
X224500Y331867D01*
X224466Y331848D01*
X214257Y342057D01*
X213199Y342764D01*
X211950Y343013D01*
X200025D01*
X198776Y342764D01*
X197717Y342057D01*
X134043Y278382D01*
X133336Y277324D01*
X133087Y276075D01*
Y217610D01*
X133336Y216361D01*
X133737Y215760D01*
Y205341D01*
X132592Y204196D01*
X131800Y202284D01*
Y200216D01*
X132592Y198304D01*
X134054Y196842D01*
X135966Y196050D01*
X138034D01*
X139167Y196519D01*
X140437Y195674D01*
Y105576D01*
X137243Y102382D01*
X136536Y101323D01*
X136287Y100075D01*
Y86654D01*
X136441Y85881D01*
Y81295D01*
X135092Y79946D01*
X134300Y78034D01*
Y75966D01*
X135092Y74054D01*
X136554Y72592D01*
X138466Y71800D01*
X140534D01*
X142446Y72592D01*
X143908Y74054D01*
X144700Y75966D01*
Y78034D01*
X143908Y79946D01*
X142966Y80887D01*
Y84607D01*
X144236Y85456D01*
X145216Y85050D01*
X147284D01*
X149196Y85842D01*
X150658Y87304D01*
X151450Y89216D01*
Y91284D01*
X151194Y91903D01*
X151414Y92234D01*
X151663Y93482D01*
Y223309D01*
X152158Y223804D01*
X152950Y225716D01*
Y227336D01*
X171632Y246018D01*
X172339Y247076D01*
X172588Y248325D01*
Y285474D01*
X193001Y305887D01*
X221300D01*
X221826Y304617D01*
X220958Y303750D01*
X219833Y301800D01*
X219250Y299626D01*
Y297374D01*
X219833Y295200D01*
X220958Y293250D01*
X222550Y291658D01*
X224500Y290533D01*
X226674Y289950D01*
X228926D01*
X231100Y290533D01*
X233050Y291658D01*
X234642Y293250D01*
X235767Y295200D01*
X236350Y297374D01*
Y299626D01*
X235767Y301800D01*
X234642Y303750D01*
X233774Y304617D01*
X234300Y305887D01*
X246700D01*
X247226Y304617D01*
X246358Y303750D01*
X245233Y301800D01*
X244650Y299626D01*
Y297374D01*
X245233Y295200D01*
X246358Y293250D01*
X247950Y291658D01*
X249900Y290533D01*
X252074Y289950D01*
X252589D01*
X253075Y288777D01*
X182561Y218263D01*
X181591D01*
X180446Y219408D01*
X178534Y220200D01*
X176466D01*
X174554Y219408D01*
X173092Y217946D01*
X172300Y216034D01*
Y214414D01*
X165943Y208057D01*
X165236Y206999D01*
X164987Y205750D01*
Y128841D01*
X163842Y127696D01*
X163050Y125784D01*
Y123716D01*
X163842Y121804D01*
X165304Y120342D01*
X167216Y119550D01*
X169284D01*
X171196Y120342D01*
X172658Y121804D01*
X173450Y123716D01*
Y125784D01*
X172658Y127696D01*
X171513Y128841D01*
Y204399D01*
X176914Y209800D01*
X178534D01*
X180446Y210592D01*
X181591Y211737D01*
X183913D01*
X185161Y211986D01*
X186220Y212693D01*
X267357Y293830D01*
X268064Y294889D01*
X268313Y296137D01*
Y297280D01*
X268780Y297634D01*
X269287Y297530D01*
X270133Y297066D01*
X270633Y295200D01*
X271758Y293250D01*
X273350Y291658D01*
X275300Y290533D01*
X277474Y289950D01*
X279726D01*
X281900Y290533D01*
X283850Y291658D01*
X285442Y293250D01*
X286567Y295200D01*
X287150Y297374D01*
Y299626D01*
X286567Y301800D01*
X285442Y303750D01*
X285078Y304114D01*
X285564Y305287D01*
X297036D01*
X297522Y304114D01*
X297158Y303750D01*
X296033Y301800D01*
X295450Y299626D01*
Y297374D01*
X296033Y295200D01*
X297158Y293250D01*
X298750Y291658D01*
X300700Y290533D01*
X302874Y289950D01*
X305126D01*
X307300Y290533D01*
X309250Y291658D01*
X310842Y293250D01*
X311967Y295200D01*
X312550Y297374D01*
Y299626D01*
X311967Y301800D01*
X310842Y303750D01*
X309250Y305342D01*
X307300Y306467D01*
X307024Y306541D01*
X306695Y307768D01*
X319401Y320475D01*
X321505D01*
X322558Y318650D01*
X324150Y317058D01*
X326100Y315933D01*
X328274Y315350D01*
X330526D01*
X332700Y315933D01*
X334650Y317058D01*
X336242Y318650D01*
X337367Y320600D01*
X337950Y322774D01*
Y325026D01*
X337367Y327200D01*
X336242Y329150D01*
X334650Y330742D01*
X332700Y331867D01*
X330526Y332450D01*
X328274D01*
X326100Y331867D01*
X324150Y330742D01*
X322558Y329150D01*
X321433Y327200D01*
X321379Y327000D01*
X318050D01*
X316801Y326752D01*
X315743Y326044D01*
X313723Y324025D01*
X312550Y324511D01*
Y325026D01*
X311967Y327200D01*
X310842Y329150D01*
X309250Y330742D01*
X307300Y331867D01*
X305913Y332239D01*
Y335250D01*
X305664Y336499D01*
X304957Y337557D01*
X299100Y343414D01*
Y348200D01*
X284494D01*
X284008Y349373D01*
X287113Y352477D01*
X393687D01*
X430978Y315187D01*
Y191331D01*
X430342Y190696D01*
X429550Y188784D01*
Y186716D01*
X430342Y184804D01*
X431804Y183342D01*
X433716Y182550D01*
X435784D01*
X437696Y183342D01*
X439158Y184804D01*
X439950Y186716D01*
Y188784D01*
X439158Y190696D01*
X438522Y191331D01*
Y316750D01*
X438522Y316750D01*
X438235Y318194D01*
X437418Y319418D01*
X397918Y358918D01*
X396694Y359735D01*
X395250Y360023D01*
D02*
G37*
G36*
X381326Y332450D02*
X379074D01*
X376900Y331867D01*
X374950Y330742D01*
X373358Y329150D01*
X372233Y327200D01*
X371650Y325026D01*
Y322774D01*
X372233Y320600D01*
X373358Y318650D01*
X374950Y317058D01*
X376900Y315933D01*
X379074Y315350D01*
X381326D01*
X383500Y315933D01*
X385450Y317058D01*
X387042Y318650D01*
X388167Y320600D01*
X388750Y322774D01*
Y325026D01*
X388167Y327200D01*
X387042Y329150D01*
X385450Y330742D01*
X383500Y331867D01*
X381326Y332450D01*
D02*
G37*
G36*
X355926D02*
X353674D01*
X351500Y331867D01*
X349550Y330742D01*
X347958Y329150D01*
X346833Y327200D01*
X346250Y325026D01*
Y322774D01*
X346833Y320600D01*
X347958Y318650D01*
X349550Y317058D01*
X351500Y315933D01*
X353674Y315350D01*
X355926D01*
X358100Y315933D01*
X360050Y317058D01*
X361642Y318650D01*
X362767Y320600D01*
X363350Y322774D01*
Y325026D01*
X362767Y327200D01*
X361642Y329150D01*
X360050Y330742D01*
X358100Y331867D01*
X355926Y332450D01*
D02*
G37*
G36*
Y307050D02*
X353674D01*
X351500Y306467D01*
X349550Y305342D01*
X347958Y303750D01*
X346833Y301800D01*
X346250Y299626D01*
Y297374D01*
X346833Y295200D01*
X347958Y293250D01*
X349550Y291658D01*
X351500Y290533D01*
X353674Y289950D01*
X355926D01*
X358100Y290533D01*
X360050Y291658D01*
X361642Y293250D01*
X362767Y295200D01*
X363350Y297374D01*
Y299626D01*
X362767Y301800D01*
X361642Y303750D01*
X360050Y305342D01*
X358100Y306467D01*
X355926Y307050D01*
D02*
G37*
G36*
X330526D02*
X328274D01*
X326100Y306467D01*
X324150Y305342D01*
X322558Y303750D01*
X321433Y301800D01*
X320850Y299626D01*
Y297374D01*
X321433Y295200D01*
X322558Y293250D01*
X324150Y291658D01*
X326100Y290533D01*
X328274Y289950D01*
X330526D01*
X332700Y290533D01*
X334650Y291658D01*
X336242Y293250D01*
X337367Y295200D01*
X337950Y297374D01*
Y299626D01*
X337367Y301800D01*
X336242Y303750D01*
X334650Y305342D01*
X332700Y306467D01*
X330526Y307050D01*
D02*
G37*
G36*
X186034Y137450D02*
X183966D01*
X182054Y136658D01*
X180592Y135196D01*
X179800Y133284D01*
Y131216D01*
X180592Y129304D01*
X182054Y127842D01*
X183966Y127050D01*
X186034D01*
X187946Y127842D01*
X189091Y128987D01*
X312899D01*
X328550Y113336D01*
Y111716D01*
X329342Y109804D01*
X330804Y108342D01*
X332716Y107550D01*
X334784D01*
X336696Y108342D01*
X338158Y109804D01*
X338950Y111716D01*
Y113784D01*
X338158Y115696D01*
X336696Y117158D01*
X334784Y117950D01*
X333164D01*
X316557Y134557D01*
X315499Y135264D01*
X314250Y135513D01*
X189091D01*
X187946Y136658D01*
X186034Y137450D01*
D02*
G37*
G36*
X184284Y120200D02*
X182216D01*
X180304Y119408D01*
X178842Y117946D01*
X178050Y116034D01*
Y113966D01*
X178842Y112054D01*
X180304Y110592D01*
X182216Y109800D01*
X184284D01*
X186196Y110592D01*
X187341Y111737D01*
X293649D01*
X306943Y98443D01*
X308001Y97736D01*
X309250Y97487D01*
X344421D01*
X345670Y97736D01*
X346728Y98443D01*
X355773Y107487D01*
X370159D01*
X371304Y106342D01*
X373216Y105550D01*
X375284D01*
X377196Y106342D01*
X378658Y107804D01*
X379450Y109716D01*
Y111784D01*
X378658Y113696D01*
X377196Y115158D01*
X375284Y115950D01*
X373216D01*
X371304Y115158D01*
X370159Y114013D01*
X354421D01*
X353173Y113764D01*
X352114Y113057D01*
X343070Y104013D01*
X310601D01*
X297307Y117307D01*
X296249Y118014D01*
X295000Y118263D01*
X187341D01*
X186196Y119408D01*
X184284Y120200D01*
D02*
G37*
G36*
X365218Y90713D02*
X274950D01*
X273701Y90464D01*
X272643Y89757D01*
X234966Y52080D01*
X233700D01*
X232451Y51832D01*
X231393Y51125D01*
X229233Y48964D01*
X228784Y49150D01*
X226716D01*
X224804Y48358D01*
X223342Y46896D01*
X222550Y44984D01*
Y43428D01*
X221516Y42346D01*
X220878Y42373D01*
X220792Y42580D01*
X219330Y44042D01*
X217418Y44834D01*
X215350D01*
X213438Y44042D01*
X211976Y42580D01*
X211502Y41437D01*
X210011Y41132D01*
X191499Y59645D01*
X192158Y60304D01*
X192950Y62216D01*
Y64284D01*
X192158Y66196D01*
X190696Y67658D01*
X188784Y68450D01*
X186716D01*
X185333Y67877D01*
X184063Y68576D01*
Y76200D01*
X183814Y77449D01*
X183107Y78507D01*
X177612Y84003D01*
X177700Y84216D01*
Y86284D01*
X176908Y88196D01*
X175445Y89658D01*
X173534Y90450D01*
X171466D01*
X169554Y89658D01*
X168092Y88196D01*
X167300Y86284D01*
Y84216D01*
X168092Y82304D01*
X169554Y80842D01*
X171466Y80050D01*
X172336D01*
X177537Y74849D01*
Y57200D01*
X177786Y55951D01*
X178493Y54893D01*
X206069Y27317D01*
X206610Y26258D01*
X206066Y25593D01*
X203722Y23249D01*
X202794Y21860D01*
X202468Y20221D01*
Y-9057D01*
X202050Y-10065D01*
Y-11935D01*
X202129Y-12127D01*
X201514Y-13425D01*
X200088Y-14016D01*
X199580Y-14524D01*
X198750Y-15323D01*
X197920Y-14524D01*
X197412Y-14016D01*
X195685Y-13300D01*
X193815D01*
X192088Y-14016D01*
X190765Y-15338D01*
X190050Y-17065D01*
Y-18935D01*
X190765Y-20662D01*
X192088Y-21985D01*
X193815Y-22700D01*
X195685D01*
X197412Y-21985D01*
X197920Y-21477D01*
X198750Y-20677D01*
X199580Y-21477D01*
X200088Y-21985D01*
X201815Y-22700D01*
X203685D01*
X205412Y-21985D01*
X205920Y-21477D01*
X206750Y-20677D01*
X207580Y-21477D01*
X208088Y-21985D01*
X209815Y-22700D01*
X211685D01*
X213412Y-21985D01*
X214734Y-20662D01*
X215450Y-18935D01*
Y-17065D01*
X215191Y-16439D01*
X215685Y-15700D01*
X217412Y-14985D01*
X217920Y-14476D01*
X218750Y-13677D01*
X219580Y-14476D01*
X220088Y-14985D01*
X221815Y-15700D01*
X222309Y-16439D01*
X222050Y-17065D01*
Y-18935D01*
X222766Y-20662D01*
X224088Y-21985D01*
X225815Y-22700D01*
X227685D01*
X229412Y-21985D01*
X229920Y-21477D01*
X230750Y-20677D01*
X231580Y-21477D01*
X232088Y-21985D01*
X233815Y-22700D01*
X235685D01*
X237412Y-21985D01*
X237920Y-21477D01*
X238750Y-20677D01*
X239580Y-21477D01*
X240088Y-21985D01*
X241815Y-22700D01*
X243685D01*
X245412Y-21985D01*
X246734Y-20662D01*
X247450Y-18935D01*
Y-17065D01*
X246734Y-15338D01*
X245412Y-14016D01*
X243685Y-13300D01*
X241815D01*
X240088Y-14016D01*
X239580Y-14524D01*
X238750Y-15323D01*
X237920Y-14524D01*
X237412Y-14016D01*
X235685Y-13300D01*
X235191Y-12561D01*
X235450Y-11935D01*
Y-10065D01*
X234734Y-8338D01*
X233412Y-7016D01*
X231685Y-6300D01*
X229815D01*
X228088Y-7016D01*
X227580Y-7524D01*
X226750Y-8323D01*
X225920Y-7524D01*
X225503Y-7106D01*
Y7500D01*
X225293Y8554D01*
X224697Y9447D01*
X224697Y9447D01*
X221370Y12773D01*
X221450Y12966D01*
Y15034D01*
X220658Y16946D01*
X220006Y17598D01*
X220532Y18868D01*
X225345D01*
X225741Y18472D01*
X227130Y17544D01*
X228769Y17218D01*
X243678D01*
X243804Y17092D01*
X245716Y16300D01*
X247784D01*
X249696Y17092D01*
X251158Y18554D01*
X251950Y20466D01*
Y22534D01*
X251158Y24446D01*
X249696Y25908D01*
X248957Y26214D01*
X248709Y27460D01*
X253137Y31887D01*
X310400D01*
X311649Y32136D01*
X312707Y32843D01*
X332664Y52800D01*
X334284D01*
X336196Y53592D01*
X337658Y55054D01*
X338450Y56966D01*
Y59034D01*
X337658Y60946D01*
X336196Y62408D01*
X334284Y63200D01*
X332216D01*
X330304Y62408D01*
X328842Y60946D01*
X328050Y59034D01*
Y57414D01*
X327220Y56584D01*
X325950Y57110D01*
Y58534D01*
X325158Y60446D01*
X323696Y61908D01*
X321784Y62700D01*
X319716D01*
X317804Y61908D01*
X316342Y60446D01*
X315550Y58534D01*
Y56466D01*
X315630Y56273D01*
X301460Y42103D01*
X250763D01*
X250237Y43373D01*
X284352Y77487D01*
X353909D01*
X355054Y76342D01*
X356966Y75550D01*
X359034D01*
X360946Y76342D01*
X362408Y77804D01*
X363200Y79716D01*
Y81784D01*
X363102Y82020D01*
X363915Y83377D01*
X364608Y83446D01*
X366100Y81953D01*
Y81416D01*
X366892Y79504D01*
X368354Y78042D01*
X370266Y77250D01*
X372334D01*
X374246Y78042D01*
X375708Y79504D01*
X376500Y81416D01*
Y83484D01*
X375708Y85396D01*
X374246Y86858D01*
X372334Y87650D01*
X370266D01*
X369817Y87464D01*
X367525Y89757D01*
X366466Y90464D01*
X365218Y90713D01*
D02*
G37*
G36*
X379250Y154758D02*
X371944D01*
X370195Y154528D01*
X369544Y154258D01*
X363750D01*
X362001Y154028D01*
X360371Y153352D01*
X358971Y152278D01*
X357898Y150879D01*
X357223Y149249D01*
X356992Y147500D01*
X357223Y145751D01*
X357898Y144121D01*
X358971Y142722D01*
X360371Y141648D01*
X362001Y140972D01*
X363750Y140742D01*
X371444D01*
X373193Y140972D01*
X373844Y141242D01*
X376451D01*
X383242Y134451D01*
Y26168D01*
X381588Y25213D01*
X379037Y22662D01*
X377234Y19538D01*
X376300Y16054D01*
Y12446D01*
X377234Y8962D01*
X379037Y5838D01*
X381588Y3287D01*
X384712Y1484D01*
X388196Y550D01*
X391804D01*
X395288Y1484D01*
X398412Y3287D01*
X400963Y5838D01*
X402766Y8962D01*
X403700Y12446D01*
Y16054D01*
X402766Y19538D01*
X400963Y22662D01*
X398412Y25213D01*
X396758Y26168D01*
Y137250D01*
X396528Y138999D01*
X395852Y140629D01*
X394779Y142029D01*
X384029Y152779D01*
X382629Y153852D01*
X380999Y154528D01*
X379250Y154758D01*
D02*
G37*
G36*
X255933Y1450D02*
X253566D01*
X251380Y544D01*
X249706Y-1130D01*
X248800Y-3316D01*
Y-5684D01*
X249706Y-7870D01*
X251380Y-9544D01*
X253566Y-10450D01*
X255933D01*
X258120Y-9544D01*
X259794Y-7870D01*
X260700Y-5684D01*
Y-3316D01*
X259794Y-1130D01*
X258120Y544D01*
X255933Y1450D01*
D02*
G37*
G36*
X183934D02*
X181566D01*
X179380Y544D01*
X177706Y-1130D01*
X176800Y-3316D01*
Y-5684D01*
X177706Y-7870D01*
X179380Y-9544D01*
X181566Y-10450D01*
X183934D01*
X186120Y-9544D01*
X187794Y-7870D01*
X188700Y-5684D01*
Y-3316D01*
X187794Y-1130D01*
X186120Y544D01*
X183934Y1450D01*
D02*
G37*
G36*
X311035Y-75872D02*
X308481D01*
X306014Y-76533D01*
X303802Y-77810D01*
X301996Y-79616D01*
X300719Y-81828D01*
X300058Y-84295D01*
Y-86849D01*
X300719Y-89316D01*
X301996Y-91528D01*
X303802Y-93334D01*
X306014Y-94611D01*
X308481Y-95272D01*
X311035D01*
X313502Y-94611D01*
X315714Y-93334D01*
X317520Y-91528D01*
X318797Y-89316D01*
X319458Y-86849D01*
Y-84295D01*
X318797Y-81828D01*
X317520Y-79616D01*
X315714Y-77810D01*
X313502Y-76533D01*
X311035Y-75872D01*
D02*
G37*
G36*
X421017Y-76380D02*
X418463D01*
X415996Y-77041D01*
X413784Y-78318D01*
X411978Y-80124D01*
X410701Y-82336D01*
X410040Y-84803D01*
Y-87357D01*
X410701Y-89824D01*
X411978Y-92036D01*
X413784Y-93842D01*
X415996Y-95119D01*
X418463Y-95780D01*
X421017D01*
X423484Y-95119D01*
X425696Y-93842D01*
X427502Y-92036D01*
X428779Y-89824D01*
X429440Y-87357D01*
Y-84803D01*
X428779Y-82336D01*
X427502Y-80124D01*
X425696Y-78318D01*
X423484Y-77041D01*
X421017Y-76380D01*
D02*
G37*
%LPD*%
G36*
X219852Y327234D02*
X219833Y327200D01*
X219250Y325026D01*
Y322774D01*
X219833Y320600D01*
X220958Y318650D01*
X221322Y318286D01*
X220836Y317113D01*
X187600D01*
X186351Y316864D01*
X185293Y316157D01*
X142693Y273557D01*
X141986Y272499D01*
X141737Y271250D01*
Y245341D01*
X140883Y244487D01*
X139613Y244898D01*
Y274724D01*
X201376Y336487D01*
X210599D01*
X219852Y327234D01*
D02*
G37*
D10*
X188200Y59050D02*
X214200Y33050D01*
X188200Y59050D02*
Y63050D01*
X302600Y39350D02*
X320750Y57500D01*
X250046Y39350D02*
X302600D01*
X243746Y33050D02*
X250046Y39350D01*
X214200Y33050D02*
X243746D01*
X222750Y-10500D02*
Y7500D01*
X216250Y14000D02*
X222750Y7500D01*
X222500Y-10750D02*
X222750Y-10500D01*
D30*
X294600Y343500D02*
D03*
X285900D02*
D03*
D64*
X242750Y-18000D02*
D03*
X234750D02*
D03*
X226750D02*
D03*
X194750D02*
D03*
X202750D02*
D03*
X210750D02*
D03*
X246750Y-11000D02*
D03*
X230750D02*
D03*
X222750D02*
D03*
X190750D02*
D03*
X206750D02*
D03*
X214750D02*
D03*
D75*
X302650Y326350D02*
Y335250D01*
X294600Y343300D02*
X302650Y335250D01*
Y326350D02*
X303000Y326000D01*
X294600Y343300D02*
Y343500D01*
X278600Y323900D02*
Y336000D01*
X285000Y342400D01*
Y343250D01*
X295000Y115000D02*
X309250Y100750D01*
X344421D02*
X354421Y110750D01*
X309250Y100750D02*
X344421D01*
X314250Y132250D02*
X333750Y112750D01*
X183250Y115000D02*
X295000D01*
X180800Y57200D02*
Y76200D01*
X172500Y84500D02*
X180800Y76200D01*
Y57200D02*
X209150Y28850D01*
X170757Y95750D02*
X212710D01*
X169000Y91225D02*
Y93993D01*
Y-8550D02*
Y31750D01*
X165800Y88025D02*
X169000Y91225D01*
Y31750D02*
Y79275D01*
X165800Y82475D02*
Y88025D01*
X169000Y93993D02*
X170757Y95750D01*
X165800Y82475D02*
X169000Y79275D01*
X209150Y28850D02*
X245485D01*
X168250Y205750D02*
X177500Y215000D01*
X168250Y124750D02*
Y205750D01*
X139550Y86654D02*
X139704Y86500D01*
Y77204D02*
Y86500D01*
X139500Y77000D02*
X139704Y77204D01*
X146250Y91332D02*
X148400Y93482D01*
X139550Y86654D02*
Y100075D01*
X148400Y93482D02*
Y226100D01*
X139550Y100075D02*
X143700Y104225D01*
X146250Y90250D02*
Y91332D01*
X147750Y226750D02*
X148400Y226100D01*
X141050Y219557D02*
X143700Y216907D01*
Y104225D02*
Y216907D01*
X137000Y201250D02*
Y216960D01*
X185000Y132250D02*
X314250D01*
X251785Y35150D02*
X310400D01*
X245485Y28850D02*
X251785Y35150D01*
X310400D02*
X333250Y58000D01*
X175450Y-43700D02*
Y-19500D01*
Y-76500D02*
Y-43700D01*
X247324Y-11574D02*
X251250D01*
X254176Y-14500D01*
X256500D01*
X246750Y-11000D02*
X247324Y-11574D01*
X175472Y-17250D02*
X176500D01*
X175450Y-19500D02*
Y-17272D01*
X175472Y-17250D01*
X186250Y-11574D02*
X190176D01*
X183824Y-14000D02*
X186250Y-11574D01*
X182500Y-14000D02*
X183824D01*
X190176Y-11574D02*
X190750Y-11000D01*
X169000Y-8550D02*
X176250Y-15800D01*
X212710Y95750D02*
X220960Y87500D01*
X236318Y48818D02*
X274950Y87450D01*
X227750Y43950D02*
X228832D01*
X217149Y38869D02*
X223356D01*
X233700Y48818D02*
X236318D01*
X228832Y43950D02*
X233700Y48818D01*
X239500Y37250D02*
X283000Y80750D01*
X224975Y37250D02*
X239500D01*
X223356Y38869D02*
X224975Y37250D01*
X216384Y39634D02*
X217149Y38869D01*
X283000Y80750D02*
X358000D01*
X274950Y87450D02*
X365218D01*
X136350Y276075D02*
X200025Y339750D01*
X141050Y219557D02*
Y230096D01*
X144235Y240485D02*
X145000Y241250D01*
X144235Y233281D02*
Y240485D01*
X136350Y217610D02*
Y276075D01*
Y217610D02*
X137000Y216960D01*
X141050Y230096D02*
X144235Y233281D01*
X365218Y87450D02*
X370218Y82450D01*
X371300D01*
X354421Y110750D02*
X374250D01*
X177500Y215000D02*
X183913D01*
X147750Y226750D02*
X169325Y248325D01*
Y286825D01*
X183913Y215000D02*
X265050Y296137D01*
Y299163D01*
X274437Y308550D01*
X302863D01*
X318050Y323737D02*
X329237D01*
X302863Y308550D02*
X318050Y323737D01*
X329237D02*
X329400Y323900D01*
X293350Y313250D02*
X304000Y323900D01*
X263410Y313250D02*
X293350D01*
X259310Y309150D02*
X263410Y313250D01*
X191650Y309150D02*
X259310D01*
X169325Y286825D02*
X191650Y309150D01*
X145000Y271250D02*
X187600Y313850D01*
X257363D01*
X267250Y323737D01*
X278437D01*
X278600Y323900D01*
X145000Y241250D02*
Y271250D01*
X200025Y339750D02*
X211950D01*
X227800Y323900D01*
D76*
X262624Y-18374D02*
Y-9283D01*
Y-18374D02*
X263000Y-18750D01*
X262624Y-9283D02*
X263700Y-8207D01*
X254561Y28179D02*
X263700Y19040D01*
Y-8207D02*
Y19040D01*
X254561Y28179D02*
Y28450D01*
X262050Y-48500D02*
Y-19500D01*
Y-75050D02*
Y-48500D01*
X175450Y-43700D02*
X180250Y-48500D01*
X175250Y-43500D02*
X175450Y-43700D01*
X180250Y-48500D02*
X262050D01*
Y-75050D02*
X263000Y-76000D01*
D77*
X371444Y147500D02*
X371944Y148000D01*
X363750Y147500D02*
X371444D01*
X371944Y148000D02*
X379250D01*
X390000Y15250D02*
Y137250D01*
X379250Y148000D02*
X390000Y137250D01*
Y15250D02*
X390750Y14500D01*
D78*
X206750Y-11000D02*
Y20221D01*
X246750Y21500D02*
X246750Y21500D01*
X228769Y21500D02*
X246750D01*
X227119Y23150D02*
X228769Y21500D01*
X209679Y23150D02*
X227119D01*
X206750Y20221D02*
X209679Y23150D01*
D79*
X254750Y325450D02*
X285550Y356250D01*
X395250D02*
X434750Y316750D01*
X285550Y356250D02*
X395250D01*
X434750Y187750D02*
Y316750D01*
X254750Y324750D02*
Y325450D01*
D81*
X438000Y381250D02*
D03*
X158000Y380750D02*
D03*
D82*
X326000Y224100D02*
D03*
X341000D02*
D03*
Y209100D02*
D03*
X326000D02*
D03*
Y239100D02*
D03*
X341000D02*
D03*
D83*
Y14250D02*
D03*
D84*
X390000D02*
D03*
D85*
X309758Y-85572D02*
D03*
X419740Y-86080D02*
D03*
D86*
X262050Y-76500D02*
D03*
X175450D02*
D03*
X262050Y-19500D02*
D03*
X175450D02*
D03*
D87*
X178700Y-14500D02*
D03*
X258800D02*
D03*
D88*
X254750Y-4500D02*
D03*
X182750D02*
D03*
D89*
X202400Y298500D02*
D03*
X227800D02*
D03*
Y323900D02*
D03*
X253200Y298500D02*
D03*
Y323900D02*
D03*
X278600Y298500D02*
D03*
Y323900D02*
D03*
X304000Y298500D02*
D03*
Y323900D02*
D03*
X329400Y298500D02*
D03*
Y323900D02*
D03*
X354800Y298500D02*
D03*
Y323900D02*
D03*
X380200Y298500D02*
D03*
Y323900D02*
D03*
D90*
X202400D02*
D03*
D91*
X333750Y112750D02*
D03*
X187750Y63250D02*
D03*
X183250Y115000D02*
D03*
X168250Y124750D02*
D03*
X161550Y166000D02*
D03*
X139500Y77000D02*
D03*
X146250Y90250D02*
D03*
X137000Y201250D02*
D03*
X185000Y132250D02*
D03*
X466000Y366000D02*
D03*
X456000Y346000D02*
D03*
X466000Y326000D02*
D03*
X456000Y306000D02*
D03*
X466000Y286000D02*
D03*
X456000Y266000D02*
D03*
X466000Y246000D02*
D03*
X456000Y226000D02*
D03*
X466000Y206000D02*
D03*
X456000Y186000D02*
D03*
X466000Y166000D02*
D03*
X456000Y146000D02*
D03*
X466000Y126000D02*
D03*
X456000Y106000D02*
D03*
X466000Y86000D02*
D03*
X456000Y66000D02*
D03*
X466000Y46000D02*
D03*
X456000Y26000D02*
D03*
X466000Y6000D02*
D03*
X456000Y-14000D02*
D03*
X466000Y-34000D02*
D03*
X456000Y-54000D02*
D03*
X446000Y406000D02*
D03*
X436000Y346000D02*
D03*
X446000Y326000D02*
D03*
Y286000D02*
D03*
Y166000D02*
D03*
X436000Y146000D02*
D03*
X446000Y126000D02*
D03*
X436000Y106000D02*
D03*
X446000Y86000D02*
D03*
X436000Y66000D02*
D03*
X446000Y46000D02*
D03*
X436000Y26000D02*
D03*
X446000Y6000D02*
D03*
X436000Y-14000D02*
D03*
X446000Y-34000D02*
D03*
X436000Y-54000D02*
D03*
X426000Y406000D02*
D03*
X416000Y386000D02*
D03*
Y306000D02*
D03*
Y266000D02*
D03*
X426000Y246000D02*
D03*
X416000Y226000D02*
D03*
Y186000D02*
D03*
X426000Y166000D02*
D03*
X416000Y146000D02*
D03*
X426000Y126000D02*
D03*
X416000Y106000D02*
D03*
X426000Y86000D02*
D03*
X416000Y66000D02*
D03*
X426000Y46000D02*
D03*
X416000Y26000D02*
D03*
X426000Y6000D02*
D03*
X416000Y-14000D02*
D03*
X426000Y-34000D02*
D03*
X416000Y-54000D02*
D03*
X426000Y-74000D02*
D03*
X406000Y406000D02*
D03*
X396000Y386000D02*
D03*
X406000Y366000D02*
D03*
Y326000D02*
D03*
Y286000D02*
D03*
X396000Y266000D02*
D03*
X406000Y246000D02*
D03*
X396000Y226000D02*
D03*
X406000Y206000D02*
D03*
X396000Y186000D02*
D03*
X406000Y166000D02*
D03*
X396000Y146000D02*
D03*
X406000Y126000D02*
D03*
Y86000D02*
D03*
Y46000D02*
D03*
Y6000D02*
D03*
X396000Y-14000D02*
D03*
X406000Y-34000D02*
D03*
X396000Y-54000D02*
D03*
X406000Y-74000D02*
D03*
X396000Y-94000D02*
D03*
X386000Y406000D02*
D03*
X376000Y386000D02*
D03*
X386000Y366000D02*
D03*
Y286000D02*
D03*
X376000Y266000D02*
D03*
X386000Y246000D02*
D03*
X376000Y26000D02*
D03*
Y-14000D02*
D03*
X386000Y-34000D02*
D03*
X376000Y-54000D02*
D03*
X386000Y-74000D02*
D03*
X376000Y-94000D02*
D03*
X366000Y406000D02*
D03*
X356000Y386000D02*
D03*
X366000Y366000D02*
D03*
Y286000D02*
D03*
X356000Y26000D02*
D03*
X366000Y6000D02*
D03*
X356000Y-14000D02*
D03*
X366000Y-34000D02*
D03*
X356000Y-54000D02*
D03*
X366000Y-74000D02*
D03*
X356000Y-94000D02*
D03*
X346000Y406000D02*
D03*
X336000Y386000D02*
D03*
X346000Y366000D02*
D03*
Y286000D02*
D03*
Y166000D02*
D03*
X336000Y146000D02*
D03*
X346000Y46000D02*
D03*
X336000Y-14000D02*
D03*
X346000Y-34000D02*
D03*
X336000Y-54000D02*
D03*
X346000Y-74000D02*
D03*
X336000Y-94000D02*
D03*
X326000Y406000D02*
D03*
X316000Y386000D02*
D03*
X326000Y366000D02*
D03*
X316000Y306000D02*
D03*
X326000Y286000D02*
D03*
Y166000D02*
D03*
X316000Y26000D02*
D03*
X326000Y6000D02*
D03*
X316000Y-14000D02*
D03*
X326000Y-34000D02*
D03*
X316000Y-54000D02*
D03*
X326000Y-74000D02*
D03*
X306000Y406000D02*
D03*
X296000Y386000D02*
D03*
X306000Y366000D02*
D03*
X296000Y186000D02*
D03*
X306000Y166000D02*
D03*
X296000Y66000D02*
D03*
Y26000D02*
D03*
X306000Y6000D02*
D03*
X296000Y-14000D02*
D03*
X306000Y-34000D02*
D03*
X296000Y-54000D02*
D03*
Y-94000D02*
D03*
X286000Y406000D02*
D03*
X276000Y386000D02*
D03*
X286000Y366000D02*
D03*
X276000Y266000D02*
D03*
X286000Y46000D02*
D03*
X276000Y26000D02*
D03*
X286000Y6000D02*
D03*
X276000Y-14000D02*
D03*
Y-54000D02*
D03*
X286000Y-74000D02*
D03*
X276000Y-94000D02*
D03*
X266000Y406000D02*
D03*
X256000Y386000D02*
D03*
X266000Y366000D02*
D03*
X256000Y346000D02*
D03*
Y266000D02*
D03*
X266000Y246000D02*
D03*
X256000Y226000D02*
D03*
Y186000D02*
D03*
X266000Y6000D02*
D03*
X256000Y-54000D02*
D03*
Y-94000D02*
D03*
X246000Y406000D02*
D03*
X236000Y386000D02*
D03*
X246000Y366000D02*
D03*
X236000Y346000D02*
D03*
X246000Y246000D02*
D03*
X236000Y226000D02*
D03*
X246000Y206000D02*
D03*
Y166000D02*
D03*
X236000Y-54000D02*
D03*
X246000Y-74000D02*
D03*
X236000Y-94000D02*
D03*
X226000Y406000D02*
D03*
X216000Y386000D02*
D03*
X226000Y366000D02*
D03*
X216000Y346000D02*
D03*
Y-54000D02*
D03*
X226000Y-74000D02*
D03*
X216000Y-94000D02*
D03*
X206000Y406000D02*
D03*
X196000Y386000D02*
D03*
X206000Y366000D02*
D03*
X196000Y346000D02*
D03*
Y266000D02*
D03*
X206000Y206000D02*
D03*
X196000Y186000D02*
D03*
X206000Y166000D02*
D03*
X196000Y146000D02*
D03*
Y26000D02*
D03*
X206000Y-34000D02*
D03*
X196000Y-54000D02*
D03*
X206000Y-74000D02*
D03*
X196000Y-94000D02*
D03*
X186000Y406000D02*
D03*
Y366000D02*
D03*
X176000Y346000D02*
D03*
X186000Y246000D02*
D03*
Y206000D02*
D03*
Y166000D02*
D03*
X176000Y26000D02*
D03*
X186000Y6000D02*
D03*
Y-34000D02*
D03*
X176000Y-54000D02*
D03*
X186000Y-74000D02*
D03*
X176000Y-94000D02*
D03*
X166000Y406000D02*
D03*
X156000Y346000D02*
D03*
X166000Y326000D02*
D03*
X156000Y306000D02*
D03*
Y66000D02*
D03*
X166000Y46000D02*
D03*
X156000Y26000D02*
D03*
X166000Y6000D02*
D03*
X156000Y-14000D02*
D03*
X166000Y-34000D02*
D03*
X156000Y-54000D02*
D03*
X166000Y-74000D02*
D03*
X146000Y406000D02*
D03*
X136000Y386000D02*
D03*
Y346000D02*
D03*
X146000Y326000D02*
D03*
X136000Y306000D02*
D03*
Y186000D02*
D03*
Y146000D02*
D03*
Y106000D02*
D03*
Y66000D02*
D03*
X146000Y46000D02*
D03*
X136000Y26000D02*
D03*
X146000Y6000D02*
D03*
X136000Y-14000D02*
D03*
X146000Y-34000D02*
D03*
X136000Y-54000D02*
D03*
X254561Y28450D02*
D03*
X168750Y31750D02*
D03*
X220960Y87500D02*
D03*
X216384Y39634D02*
D03*
X227750Y43950D02*
D03*
X320750Y57500D02*
D03*
X172500Y85250D02*
D03*
X333250Y58000D02*
D03*
X358000Y80750D02*
D03*
X371300Y82450D02*
D03*
X374250Y110750D02*
D03*
X246750Y21500D02*
D03*
X363750Y147500D02*
D03*
X379444Y148009D02*
D03*
X371944Y147509D02*
D03*
X177500Y215000D02*
D03*
X147750Y226750D02*
D03*
X145000Y241250D02*
D03*
X434750Y187750D02*
D03*
X216250Y14000D02*
D03*
M02*
