G04*
G04 #@! TF.GenerationSoftware,Altium Limited,Altium Designer,21.6.1 (37)*
G04*
G04 Layer_Color=32896*
%FSLAX44Y44*%
%MOMM*%
G71*
G04*
G04 #@! TF.SameCoordinates,5872C4F4-FB42-489D-B6BF-DE351544A3BA*
G04*
G04*
G04 #@! TF.FilePolarity,Positive*
G04*
G01*
G75*
%ADD12C,0.1700*%
%ADD15C,0.1800*%
D12*
X301750Y336750D02*
Y351250D01*
X279000Y336750D02*
Y351250D01*
X301750D01*
X279000Y336750D02*
X301750D01*
X466385Y238213D02*
X467551Y239380D01*
X469884D01*
X471050Y238213D01*
Y233548D01*
X469884Y232382D01*
X467551D01*
X466385Y233548D01*
Y235881D01*
X468717D01*
X464052Y232382D02*
Y239380D01*
X459387Y232382D01*
Y239380D01*
X457054D02*
Y232382D01*
X453556D01*
X452389Y233548D01*
Y238213D01*
X453556Y239380D01*
X457054D01*
X471050Y219904D02*
Y226902D01*
X466385Y219904D01*
Y226902D01*
X459387Y225736D02*
X460553Y226902D01*
X462886D01*
X464052Y225736D01*
Y221071D01*
X462886Y219904D01*
X460553D01*
X459387Y221071D01*
X466385Y213259D02*
X467551Y214425D01*
X469884D01*
X471050Y213259D01*
Y212092D01*
X469884Y210926D01*
X467551D01*
X466385Y209760D01*
Y208594D01*
X467551Y207427D01*
X469884D01*
X471050Y208594D01*
X464052Y214425D02*
Y207427D01*
X460553D01*
X459387Y208594D01*
Y209760D01*
X460553Y210926D01*
X464052D01*
X460553D01*
X459387Y212092D01*
Y213259D01*
X460553Y214425D01*
X464052D01*
X457054D02*
Y208594D01*
X455888Y207427D01*
X453556D01*
X452389Y208594D01*
Y214425D01*
X445392Y213259D02*
X446558Y214425D01*
X448890D01*
X450057Y213259D01*
Y212092D01*
X448890Y210926D01*
X446558D01*
X445392Y209760D01*
Y208594D01*
X446558Y207427D01*
X448890D01*
X450057Y208594D01*
X466385Y201948D02*
X471050D01*
Y198449D01*
X468717Y199615D01*
X467551D01*
X466385Y198449D01*
Y196116D01*
X467551Y194950D01*
X469884D01*
X471050Y196116D01*
X464052Y201948D02*
Y197283D01*
X461720Y194950D01*
X459387Y197283D01*
Y201948D01*
X202037Y275885D02*
X200871Y277051D01*
Y279384D01*
X202037Y280550D01*
X206702D01*
X207869Y279384D01*
Y277051D01*
X206702Y275885D01*
X204370D01*
Y278218D01*
X207869Y273552D02*
X200871D01*
X207869Y268887D01*
X200871D01*
Y266555D02*
X207869D01*
Y263056D01*
X206702Y261889D01*
X202037D01*
X200871Y263056D01*
Y266555D01*
X225825Y275885D02*
Y280550D01*
X229324D01*
X228158Y278218D01*
Y277051D01*
X229324Y275885D01*
X231657D01*
X232823Y277051D01*
Y279384D01*
X231657Y280550D01*
X225825Y273552D02*
X230491D01*
X232823Y271220D01*
X230491Y268887D01*
X225825D01*
X250780Y275885D02*
Y280550D01*
X254279D01*
X253113Y278218D01*
Y277051D01*
X254279Y275885D01*
X256611D01*
X257778Y277051D01*
Y279384D01*
X256611Y280550D01*
X250780Y273552D02*
X255445D01*
X257778Y271220D01*
X255445Y268887D01*
X250780D01*
X276901Y275885D02*
X275734Y277051D01*
Y279384D01*
X276901Y280550D01*
X281566D01*
X282732Y279384D01*
Y277051D01*
X281566Y275885D01*
X279233D01*
Y278218D01*
X282732Y273552D02*
X275734D01*
Y270054D01*
X276901Y268887D01*
X279233D01*
X280399Y270054D01*
Y273552D01*
X275734Y266555D02*
Y264222D01*
Y265388D01*
X282732D01*
Y266555D01*
Y264222D01*
X275734Y257224D02*
Y259557D01*
X276901Y260723D01*
X281566D01*
X282732Y259557D01*
Y257224D01*
X281566Y256058D01*
X276901D01*
X275734Y257224D01*
Y249060D02*
Y253725D01*
X279233D01*
X278067Y251393D01*
Y250226D01*
X279233Y249060D01*
X281566D01*
X282732Y250226D01*
Y252559D01*
X281566Y253725D01*
X301855Y275885D02*
X300689Y277051D01*
Y279384D01*
X301855Y280550D01*
X306520D01*
X307687Y279384D01*
Y277051D01*
X306520Y275885D01*
X304188D01*
Y278218D01*
X307687Y273552D02*
X300689D01*
Y270054D01*
X301855Y268887D01*
X304188D01*
X305354Y270054D01*
Y273552D01*
X300689Y266555D02*
Y264222D01*
Y265388D01*
X307687D01*
Y266555D01*
Y264222D01*
X300689Y257224D02*
Y259557D01*
X301855Y260723D01*
X306520D01*
X307687Y259557D01*
Y257224D01*
X306520Y256058D01*
X301855D01*
X300689Y257224D01*
X307687Y250226D02*
X300689D01*
X304188Y253725D01*
Y249060D01*
X326810Y275885D02*
X325643Y277051D01*
Y279384D01*
X326810Y280550D01*
X331475D01*
X332641Y279384D01*
Y277051D01*
X331475Y275885D01*
X329142D01*
Y278218D01*
X332641Y273552D02*
X325643D01*
Y270054D01*
X326810Y268887D01*
X329142D01*
X330308Y270054D01*
Y273552D01*
X325643Y266555D02*
Y264222D01*
Y265388D01*
X332641D01*
Y266555D01*
Y264222D01*
X325643Y257224D02*
Y259557D01*
X326810Y260723D01*
X331475D01*
X332641Y259557D01*
Y257224D01*
X331475Y256058D01*
X326810D01*
X325643Y257224D01*
X326810Y253725D02*
X325643Y252559D01*
Y250226D01*
X326810Y249060D01*
X327976D01*
X329142Y250226D01*
Y251393D01*
Y250226D01*
X330308Y249060D01*
X331475D01*
X332641Y250226D01*
Y252559D01*
X331475Y253725D01*
X351764Y275885D02*
X350598Y277051D01*
Y279384D01*
X351764Y280550D01*
X356429D01*
X357596Y279384D01*
Y277051D01*
X356429Y275885D01*
X354097D01*
Y278218D01*
X357596Y273552D02*
X350598D01*
Y270054D01*
X351764Y268887D01*
X354097D01*
X355263Y270054D01*
Y273552D01*
X350598Y266555D02*
Y264222D01*
Y265388D01*
X357596D01*
Y266555D01*
Y264222D01*
X350598Y257224D02*
Y259557D01*
X351764Y260723D01*
X356429D01*
X357596Y259557D01*
Y257224D01*
X356429Y256058D01*
X351764D01*
X350598Y257224D01*
X357596Y249060D02*
Y253725D01*
X352930Y249060D01*
X351764D01*
X350598Y250226D01*
Y252559D01*
X351764Y253725D01*
X376719Y275885D02*
X375552Y277051D01*
Y279384D01*
X376719Y280550D01*
X381384D01*
X382550Y279384D01*
Y277051D01*
X381384Y275885D01*
X379051D01*
Y278218D01*
X382550Y273552D02*
X375552D01*
X382550Y268887D01*
X375552D01*
Y266555D02*
X382550D01*
Y263056D01*
X381384Y261889D01*
X376719D01*
X375552Y263056D01*
Y266555D01*
X134448Y260334D02*
X139113D01*
Y256835D01*
X136780Y258001D01*
X135614D01*
X134448Y256835D01*
Y254503D01*
X135614Y253336D01*
X137947D01*
X139113Y254503D01*
X132115Y260334D02*
Y255669D01*
X129782Y253336D01*
X127450Y255669D01*
Y260334D01*
X143778Y240859D02*
Y247857D01*
X140279D01*
X139113Y246690D01*
Y244358D01*
X140279Y243192D01*
X143778D01*
X141446D02*
X139113Y240859D01*
X136780Y247857D02*
X132115Y240859D01*
Y247857D02*
X136780Y240859D01*
X129782Y247857D02*
X127450D01*
X128616D01*
Y240859D01*
X129782D01*
X127450D01*
X146111Y235379D02*
X141446D01*
X143778D01*
Y228382D01*
X139113Y235379D02*
X134448Y228382D01*
Y235379D02*
X139113Y228382D01*
X128616Y235379D02*
X130949D01*
X132115Y234213D01*
Y229548D01*
X130949Y228382D01*
X128616D01*
X127450Y229548D01*
Y234213D01*
X128616Y235379D01*
X146111Y215904D02*
Y222902D01*
X142612D01*
X141446Y221736D01*
Y219403D01*
X142612Y218237D01*
X146111D01*
X143778D02*
X141446Y215904D01*
X139113Y222902D02*
X134448D01*
X136780D01*
Y215904D01*
X127450Y221736D02*
X128616Y222902D01*
X130949D01*
X132115Y221736D01*
Y220570D01*
X130949Y219403D01*
X128616D01*
X127450Y218237D01*
Y217071D01*
X128616Y215904D01*
X130949D01*
X132115Y217071D01*
X141446Y209259D02*
X142612Y210425D01*
X144944D01*
X146111Y209259D01*
Y204594D01*
X144944Y203427D01*
X142612D01*
X141446Y204594D01*
X139113Y210425D02*
X134448D01*
X136780D01*
Y203427D01*
X127450Y209259D02*
X128616Y210425D01*
X130949D01*
X132115Y209259D01*
Y208092D01*
X130949Y206926D01*
X128616D01*
X127450Y205760D01*
Y204594D01*
X128616Y203427D01*
X130949D01*
X132115Y204594D01*
X141446Y196781D02*
X142612Y197948D01*
X144944D01*
X146111Y196781D01*
Y192116D01*
X144944Y190950D01*
X142612D01*
X141446Y192116D01*
Y194449D01*
X143778D01*
X139113Y190950D02*
Y197948D01*
X134448Y190950D01*
Y197948D01*
X132115D02*
Y190950D01*
X128616D01*
X127450Y192116D01*
Y196781D01*
X128616Y197948D01*
X132115D01*
X200060Y384635D02*
X198894Y385801D01*
Y388134D01*
X200060Y389300D01*
X204725D01*
X205891Y388134D01*
Y385801D01*
X204725Y384635D01*
X202393D01*
Y386968D01*
X205891Y382302D02*
X198894D01*
X205891Y377637D01*
X198894D01*
Y375304D02*
X205891D01*
Y371806D01*
X204725Y370639D01*
X200060D01*
X198894Y371806D01*
Y375304D01*
X225014Y384635D02*
X223848Y385801D01*
Y388134D01*
X225014Y389300D01*
X229680D01*
X230846Y388134D01*
Y385801D01*
X229680Y384635D01*
X223848Y382302D02*
Y377637D01*
Y379970D01*
X230846D01*
X225014Y370639D02*
X223848Y371806D01*
Y374138D01*
X225014Y375304D01*
X226181D01*
X227347Y374138D01*
Y371806D01*
X228513Y370639D01*
X229680D01*
X230846Y371806D01*
Y374138D01*
X229680Y375304D01*
X248803Y384635D02*
Y389300D01*
X252302D01*
X251135Y386968D01*
Y385801D01*
X252302Y384635D01*
X254634D01*
X255800Y385801D01*
Y388134D01*
X254634Y389300D01*
X248803Y382302D02*
X253468D01*
X255800Y379970D01*
X253468Y377637D01*
X248803D01*
X280755Y389300D02*
X273757D01*
Y385801D01*
X274923Y384635D01*
X277256D01*
X278422Y385801D01*
Y389300D01*
Y386968D02*
X280755Y384635D01*
X273757Y382302D02*
X280755Y377637D01*
X273757D02*
X280755Y382302D01*
X273757Y375304D02*
Y372972D01*
Y374138D01*
X280755D01*
Y375304D01*
Y372972D01*
X298712Y389300D02*
Y384635D01*
Y386968D01*
X305709D01*
X298712Y382302D02*
X305709Y377637D01*
X298712D02*
X305709Y382302D01*
X298712Y371806D02*
Y374138D01*
X299878Y375304D01*
X304543D01*
X305709Y374138D01*
Y371806D01*
X304543Y370639D01*
X299878D01*
X298712Y371806D01*
X330664Y389300D02*
X323666D01*
Y385801D01*
X324832Y384635D01*
X327165D01*
X328331Y385801D01*
Y389300D01*
Y386968D02*
X330664Y384635D01*
X323666Y382302D02*
Y377637D01*
Y379970D01*
X330664D01*
X324832Y370639D02*
X323666Y371806D01*
Y374138D01*
X324832Y375304D01*
X325999D01*
X327165Y374138D01*
Y371806D01*
X328331Y370639D01*
X329498D01*
X330664Y371806D01*
Y374138D01*
X329498Y375304D01*
X349787Y384635D02*
X348621Y385801D01*
Y388134D01*
X349787Y389300D01*
X354452D01*
X355618Y388134D01*
Y385801D01*
X354452Y384635D01*
X352119D01*
Y386968D01*
X355618Y382302D02*
X348621D01*
Y378803D01*
X349787Y377637D01*
X352119D01*
X353286Y378803D01*
Y382302D01*
X348621Y375304D02*
Y372972D01*
Y374138D01*
X355618D01*
Y375304D01*
Y372972D01*
X348621Y365974D02*
Y368307D01*
X349787Y369473D01*
X354452D01*
X355618Y368307D01*
Y365974D01*
X354452Y364808D01*
X349787D01*
X348621Y365974D01*
X349787Y362475D02*
X348621Y361309D01*
Y358976D01*
X349787Y357810D01*
X354452D01*
X355618Y358976D01*
Y361309D01*
X354452Y362475D01*
X349787D01*
X374741Y384635D02*
X373575Y385801D01*
Y388134D01*
X374741Y389300D01*
X379407D01*
X380573Y388134D01*
Y385801D01*
X379407Y384635D01*
X377074D01*
Y386968D01*
X380573Y382302D02*
X373575D01*
Y378803D01*
X374741Y377637D01*
X377074D01*
X378240Y378803D01*
Y382302D01*
X373575Y375304D02*
Y372972D01*
Y374138D01*
X380573D01*
Y375304D01*
Y372972D01*
X373575Y365974D02*
Y368307D01*
X374741Y369473D01*
X379407D01*
X380573Y368307D01*
Y365974D01*
X379407Y364808D01*
X374741D01*
X373575Y365974D01*
X380573Y362475D02*
Y360143D01*
Y361309D01*
X373575D01*
X374741Y362475D01*
X387219Y384635D02*
X386052Y385801D01*
Y388134D01*
X387219Y389300D01*
X388385D01*
X389551Y388134D01*
Y385801D01*
X390718Y384635D01*
X391884D01*
X393050Y385801D01*
Y388134D01*
X391884Y389300D01*
X386052Y382302D02*
X393050D01*
Y378803D01*
X391884Y377637D01*
X390718D01*
X389551Y378803D01*
Y382302D01*
Y378803D01*
X388385Y377637D01*
X387219D01*
X386052Y378803D01*
Y382302D01*
Y375304D02*
X391884D01*
X393050Y374138D01*
Y371806D01*
X391884Y370639D01*
X386052D01*
X387219Y363642D02*
X386052Y364808D01*
Y367141D01*
X387219Y368307D01*
X388385D01*
X389551Y367141D01*
Y364808D01*
X390718Y363642D01*
X391884D01*
X393050Y364808D01*
Y367141D01*
X391884Y368307D01*
D15*
X299247Y354751D02*
Y361749D01*
X295748D01*
X294582Y360583D01*
Y358250D01*
X295748Y357084D01*
X299247D01*
X296915D02*
X294582Y354751D01*
X292249D02*
X289917D01*
X291083D01*
Y361749D01*
X292249Y360583D01*
X281753Y361749D02*
X284085Y360583D01*
X286418Y358250D01*
Y355917D01*
X285252Y354751D01*
X282919D01*
X281753Y355917D01*
Y357084D01*
X282919Y358250D01*
X286418D01*
M02*
